<svg width="286" height="372" viewBox="0 0 286 372" fill="none" xmlns="http://www.w3.org/2000/svg">
<path d="M86.0397 41.5579C67.3697 44.0217 49.3574 49.2733 33.3868 57.499C14.5598 67.1972 -4.66974 82.3138 1.01371 102.083C11.4972 138.579 61.804 139.246 51.7623 163.786C40.3856 191.585 48.0126 224.194 99.0655 233.264C196.038 250.491 313.26 149.71 280.337 94.3384C259.841 59.8647 185.191 28.4634 86.0397 41.5481V41.5579Z" fill="#34AC7E"/>
<path opacity="0.9" d="M86.0397 41.5579C67.3697 44.0217 49.3574 49.2733 33.3868 57.499C14.5598 67.1972 -4.66974 82.3138 1.01371 102.083C11.4972 138.579 61.804 139.246 51.7623 163.786C40.3856 191.585 48.0126 224.194 99.0655 233.264C196.038 250.491 313.26 149.71 280.337 94.3384C259.841 59.8647 185.191 28.4634 86.0397 41.5481V41.5579Z" fill="white"/>
<path d="M279.179 366.064C279.179 368.999 217.191 371.375 140.735 371.375C64.2779 371.375 2.29004 368.999 2.29004 366.064C2.29004 363.129 64.2779 360.754 140.735 360.754C217.191 360.754 279.179 363.129 279.179 366.064Z" fill="#F5F5F5"/>
<path d="M166.944 115.708C166.944 115.708 164.735 112.95 161.457 112.478C158.178 112.007 154.86 114.54 154.674 115.963C154.487 117.396 156.019 117.75 156.019 117.75C156.019 117.75 154.968 118.751 155.224 119.556C155.479 120.351 157.265 122.01 159.032 121.892C160.799 121.774 166.914 116.984 167.042 116.876C167.17 116.778 166.934 115.698 166.934 115.698L166.944 115.708Z" fill="#FFC3BD"/>
<path d="M167.935 116.15C167.935 116.15 170.576 113.804 170.88 110.505C171.184 107.207 168.475 104.027 167.042 103.919C165.609 103.801 165.324 105.362 165.324 105.362C165.324 105.362 164.264 104.37 163.479 104.665C162.694 104.959 161.27 106.824 161.349 108.591C161.614 115.031 166.659 116.208 166.767 116.326C166.875 116.444 167.935 116.159 167.935 116.159V116.15Z" fill="#FFC3BD"/>
<path d="M165.894 116.709C165.894 116.709 160.201 119.183 160.309 123.865C160.417 128.547 161.428 128.587 162.4 128.272C163.372 127.958 164.098 127.89 164.098 127.89C164.098 127.89 164.442 129.637 166.11 129.028C167.779 128.42 168.564 127.026 169.566 124.483C170.557 121.931 167.936 117.112 167.337 116.582C167.337 116.582 167.396 115.875 165.894 116.709Z" fill="#FFC3BD"/>
<path d="M168.299 116.199C168.299 116.199 168.642 112.685 171.126 110.496C173.609 108.307 177.771 108.611 178.714 109.71C179.656 110.8 178.566 111.948 178.566 111.948C178.566 111.948 179.99 112.223 180.215 113.028C180.441 113.833 179.842 116.199 178.301 117.072C176.76 117.936 169.015 117.269 168.858 117.249C168.691 117.229 168.309 116.209 168.309 116.209L168.299 116.199Z" fill="#FFC3BD"/>
<path d="M169.545 116.709C169.545 116.709 175.661 115.668 178.134 119.654C180.598 123.629 179.783 124.218 178.792 124.483C177.801 124.748 177.163 125.092 177.163 125.092C177.163 125.092 177.83 126.741 176.093 127.143C174.355 127.546 172.942 126.81 170.714 125.219C168.485 123.629 168.053 118.162 168.26 117.386C168.26 117.386 167.818 116.827 169.545 116.709Z" fill="#FFC3BD"/>
<path d="M170.782 115.443C171.292 117.229 169.869 118.937 168.023 118.761C166.993 118.662 166.099 117.916 165.815 116.925C165.304 115.139 166.728 113.431 168.573 113.607C169.604 113.705 170.497 114.451 170.782 115.443Z" fill="#EB7E7B"/>
<path opacity="0.2" d="M172.617 116.64C174.826 116.395 177.172 117.887 177.869 119.997C176.121 118.623 174.6 117.642 172.617 116.64Z" fill="white"/>
<path opacity="0.2" d="M168.131 105.156C170.065 106.245 171.105 108.827 170.447 110.947C169.829 108.817 169.162 107.129 168.131 105.156Z" fill="white"/>
<path opacity="0.2" d="M159.15 112.969C161.143 111.988 163.852 112.586 165.236 114.324C163.126 113.627 161.359 113.224 159.15 112.969Z" fill="white"/>
<path opacity="0.2" d="M160.524 124.199C160.102 122.02 161.398 119.556 163.449 118.692C162.222 120.547 161.368 122.147 160.524 124.199Z" fill="white"/>
<path d="M201.927 80.331C201.927 80.331 202.84 73.45 199.061 68.169C195.282 62.8782 187.183 61.6119 184.906 63.2904C182.629 64.9591 184.199 67.6291 184.199 67.6291C184.199 67.6291 181.353 67.5113 180.567 68.9542C179.782 70.3972 179.87 75.1874 182.423 77.5334C184.985 79.8794 200.082 82.0389 200.405 82.088C200.72 82.1273 201.927 80.3408 201.927 80.3408V80.331Z" fill="#FFC3BD"/>
<path d="M202.654 82.3433C202.654 82.3433 209.564 82.893 214.649 78.8488C219.734 74.8046 220.578 66.6475 218.781 64.4586C216.995 62.2696 214.413 63.9776 214.413 63.9776C214.413 63.9776 214.384 61.131 212.902 60.4242C211.419 59.7175 206.845 60.2279 204.43 62.731C195.655 71.8402 200.848 80.6059 200.828 80.92C200.808 81.2439 202.654 82.3433 202.654 82.3433Z" fill="#FFC3BD"/>
<path d="M199.091 80.1935C199.091 80.1935 187.852 75.4916 181.363 81.9996C174.875 88.5076 176.18 89.9898 177.947 90.942C179.714 91.8941 180.794 92.8267 180.794 92.8267C180.794 92.8267 178.782 95.6831 181.923 97.2242C185.054 98.7751 188.097 97.9899 193.064 95.9383C198.031 93.8868 201.299 83.6193 201.241 82.0585C201.241 82.0585 202.33 81.1849 199.091 80.1935Z" fill="#FFC3BD"/>
<path d="M203.076 82.9224C203.076 82.9224 208.524 78.6329 215.003 79.1826C221.481 79.7323 226.693 86.0537 226.418 88.8709C226.144 91.6881 223.042 91.6881 223.042 91.6881C223.042 91.6881 224.593 94.0734 223.749 95.4869C222.904 96.9004 218.742 99.266 215.425 98.2648C212.097 97.2538 202.536 85.3666 202.34 85.1212C202.144 84.866 203.066 82.9224 203.066 82.9224H203.076Z" fill="#FFC3BD"/>
<path d="M204.037 85.396C204.037 85.396 213.814 92.6697 211.527 101.563C209.24 110.456 207.296 110.103 205.579 109.062C203.861 108.022 202.506 107.58 202.506 107.58C202.506 107.58 201.073 110.761 198.148 108.856C195.223 106.952 194.339 103.938 193.574 98.6182C192.808 93.2979 199.974 85.2488 201.348 84.5028C201.348 84.5028 201.544 83.1187 204.047 85.396H204.037Z" fill="#FFC3BD"/>
<path d="M206.933 86.2401C205.088 88.3603 201.878 88.5861 199.758 86.7407C197.637 84.8953 197.412 81.6854 199.257 79.5652C201.102 77.4449 204.312 77.2192 206.433 79.0646C208.553 80.91 208.779 84.1198 206.933 86.2401Z" fill="#EB7E7B"/>
<path opacity="0.2" d="M208.317 89.6462C211.154 92.7874 212.126 97.6757 210.693 101.661C210.87 97.4303 210.104 93.4941 208.317 89.6462Z" fill="white"/>
<path opacity="0.2" d="M218.506 67.6782C218.978 71.8795 216.926 76.4243 213.441 78.8292C216.052 75.5016 217.721 71.8402 218.506 67.6782Z" fill="white"/>
<path opacity="0.2" d="M195.233 65.5775C198.973 67.5603 201.555 71.8205 201.575 76.0512C200.298 72.0168 198.227 68.5714 195.233 65.5775Z" fill="white"/>
<path opacity="0.2" d="M181.167 82.7654C184.063 79.6831 188.863 78.3187 192.946 79.4279C188.715 79.585 184.848 80.6844 181.167 82.7654Z" fill="white"/>
<path d="M36.2635 230.898C36.2635 230.898 30.6488 226.039 23.6991 226.295C16.7494 226.56 10.8401 233.058 10.9972 236.081C11.1543 239.104 14.4622 239.271 14.4622 239.271C14.4622 239.271 12.6856 241.745 13.5101 243.296C14.3346 244.847 18.6733 247.595 22.2758 246.682C25.8782 245.77 36.7151 233.549 36.931 233.284C37.1568 233.019 36.2635 230.898 36.2635 230.898Z" fill="#FFC3BD"/>
<path d="M38.4917 231.428C38.4917 231.428 43.0561 225.568 42.4279 218.638C41.8095 211.708 35.007 206.152 31.9935 206.466C28.98 206.78 28.9898 210.088 28.9898 210.088C28.9898 210.088 26.4279 208.439 24.9162 209.342C23.4143 210.255 21.1665 214.643 21.991 218.275C24.9751 231.487 35.861 232.007 36.1359 232.214C36.4107 232.42 38.4819 231.418 38.4819 231.418L38.4917 231.428Z" fill="#FFC3BD"/>
<path d="M34.4672 233.352C34.4672 233.352 23.6401 240.636 25.6426 250.265C27.645 259.895 29.7359 259.61 31.6303 258.589C33.5248 257.568 34.9874 257.156 34.9874 257.156C34.9874 257.156 36.3518 260.631 39.5911 258.736C42.8206 256.842 43.9101 253.671 45.0095 248.017C46.0991 242.373 38.8451 233.392 37.4119 232.528C37.4119 232.528 37.2745 231.046 34.477 233.352H34.4672Z" fill="#FFC3BD"/>
<path d="M39.2574 231.389C39.2574 231.389 38.639 223.988 42.9384 218.52C47.2476 213.053 55.974 212.11 58.3299 214.015C60.6857 215.919 58.8697 218.687 58.8697 218.687C58.8697 218.687 61.9225 218.707 62.6882 220.287C63.4538 221.867 63.1201 226.991 60.2636 229.367C57.4072 231.742 41.1421 233.293 40.7985 233.323C40.455 233.352 39.2672 231.379 39.2672 231.379L39.2574 231.389Z" fill="#FFC3BD"/>
<path d="M42.0353 231.988C42.0353 231.988 54.2954 227.522 60.9016 234.815C67.5077 242.108 66.0353 243.63 64.1016 244.552C62.158 245.475 60.9605 246.427 60.9605 246.427C60.9605 246.427 62.9629 249.578 59.5273 251.08C56.0917 252.572 52.8819 251.59 47.6794 249.146C42.4672 246.702 39.4929 235.551 39.6303 233.882C39.6303 233.882 38.5113 232.891 42.0254 231.988H42.0353Z" fill="#FFC3BD"/>
<path d="M44.4888 229.897C45.2937 232.793 43.6054 235.796 40.7097 236.601C37.814 237.406 34.8103 235.718 34.0054 232.822C33.2004 229.927 34.8888 226.923 37.7845 226.118C40.6802 225.313 43.6839 227.001 44.4888 229.897Z" fill="#EB7E7B"/>
<path opacity="0.2" d="M48.3574 230.663C52.8335 230.024 57.7513 232.017 60.4998 235.61C56.8581 232.92 52.8433 231.281 48.3574 230.663Z" fill="white"/>
<path opacity="0.2" d="M34.7217 208.616C38.7364 210.707 41.5634 215.193 41.7008 219.718C40.307 215.408 38.0002 211.737 34.7217 208.616Z" fill="white"/>
<path opacity="0.2" d="M19.125 228.189C23.1103 226.059 28.4109 226.255 32.2293 228.69C27.8907 227.414 23.552 227.237 19.125 228.189Z" fill="white"/>
<path opacity="0.2" d="M26.2113 250.893C25.2101 246.486 26.8003 241.421 30.1672 238.388C27.7819 242.236 26.4764 246.368 26.2113 250.893Z" fill="white"/>
<path d="M155.665 261.583C154.428 259.217 152.21 257.499 149.815 256.331C147.901 255.399 145.859 254.771 143.817 254.152C143.051 253.917 142.286 254.506 142.315 255.301C142.404 257.853 142.678 260.415 143.395 262.859C144.259 265.833 145.82 268.67 148.195 270.653C150.404 272.498 154.006 273.421 156.843 273.018C157.177 271.085 156.882 269.249 156.892 267.296C156.902 265.323 156.588 263.32 155.675 261.573L155.665 261.583Z" fill="#34AC7E"/>
<path d="M160.7 278.702C158.207 272.793 154.693 267.374 150.335 262.673C149.766 262.054 148.853 262.977 149.412 263.595C153.692 268.219 157.127 273.558 159.572 279.369C159.896 280.135 161.015 279.477 160.691 278.712L160.7 278.702Z" fill="#34AC7E"/>
<path opacity="0.3" d="M160.7 278.702C158.207 272.793 154.693 267.374 150.335 262.673C149.766 262.054 148.853 262.977 149.412 263.595C153.692 268.219 157.127 273.558 159.572 279.369C159.896 280.135 161.015 279.477 160.691 278.712L160.7 278.702Z" fill="black"/>
<path d="M102.756 233.195C111.846 229.897 120.356 224.459 126.059 216.655C131.37 209.382 133.981 199.909 132.145 191.144C126.059 190.506 119.934 189.877 113.819 190.24C107.674 190.604 101.49 192.007 96.2382 195.207C89.1216 199.536 84.2235 206.81 81.0725 214.525C77.9216 222.231 76.3216 230.466 74.3584 238.555C83.9977 237.809 93.6762 236.503 102.766 233.205L102.756 233.195Z" fill="#34AC7E"/>
<path d="M104.955 210.54C117.068 199.978 130.997 191.585 145.986 185.814C146.761 185.519 146.418 184.263 145.642 184.557C133.794 189.112 122.584 195.266 112.415 202.854C109.539 205.004 106.741 207.261 104.032 209.617C103.404 210.167 104.327 211.08 104.955 210.54Z" fill="#34AC7E"/>
<path opacity="0.3" d="M104.955 210.54C117.068 199.978 130.997 191.585 145.986 185.814C146.761 185.519 146.418 184.263 145.642 184.557C133.794 189.112 122.584 195.266 112.415 202.854C109.539 205.004 106.741 207.261 104.032 209.617C103.404 210.167 104.327 211.08 104.955 210.54Z" fill="black"/>
<path d="M57.3779 178.432C62.7865 174.515 69.2062 171.757 75.881 171.521C82.1044 171.305 89.5645 173.504 93.8639 177.961C91.8614 181.691 88.8185 185.411 86.2369 188.768C83.6455 192.145 80.4455 195.129 76.578 196.905C71.346 199.301 65.2798 199.271 59.6454 198.093C54.011 196.905 48.681 194.628 43.292 192.616C47.454 187.394 51.9595 182.358 57.3681 178.442L57.3779 178.432Z" fill="#34AC7E"/>
<path d="M65.4762 185.539C80.5928 179.904 96.6125 176.94 112.75 176.812C113.584 176.812 113.584 175.507 112.75 175.516C96.5143 175.644 80.3474 178.608 65.1327 184.282C64.3572 184.567 64.6909 185.823 65.4762 185.539Z" fill="#34AC7E"/>
<path opacity="0.3" d="M65.4762 185.539C80.5928 179.904 96.6125 176.94 112.75 176.812C113.584 176.812 113.584 175.507 112.75 175.516C96.5143 175.644 80.3474 178.608 65.1327 184.282C64.3572 184.567 64.6909 185.823 65.4762 185.539Z" fill="black"/>
<path d="M36.3131 102.918C42.9684 103.536 49.604 105.686 54.7868 109.907C59.6065 113.843 63.7684 120.42 64.0727 126.604C60.1071 128.096 55.366 128.881 51.2138 129.715C47.042 130.55 42.6641 130.687 38.5905 129.47C33.0739 127.821 28.5291 123.806 25.0739 119.202C21.6186 114.599 19.1057 109.377 16.3867 104.312C22.9634 103.124 29.6677 102.309 36.3131 102.928V102.918Z" fill="#34AC7E"/>
<path d="M37.825 113.637C52.8434 119.33 66.8214 127.654 78.9932 138.147C79.6214 138.687 80.5441 137.774 79.9159 137.224C70.306 128.94 59.5968 121.951 48.1023 116.572C44.8532 115.05 41.5354 113.656 38.1784 112.38C37.3931 112.086 37.0593 113.342 37.8348 113.637H37.825Z" fill="#34AC7E"/>
<path opacity="0.3" d="M37.825 113.637C52.8434 119.33 66.8214 127.654 78.9932 138.147C79.6214 138.687 80.5441 137.774 79.9159 137.224C70.306 128.94 59.5968 121.951 48.1023 116.572C44.8532 115.05 41.5354 113.656 38.1784 112.38C37.3931 112.086 37.0593 113.342 37.8348 113.637H37.825Z" fill="black"/>
<path d="M57.4467 85.7396C61.2454 87.5163 64.7203 90.196 66.8798 93.7985C68.8921 97.1457 69.9522 101.916 68.8234 105.637C66.1632 105.676 63.189 105.136 60.5681 104.743C57.9276 104.351 55.3068 103.497 53.1571 101.916C50.2515 99.7666 48.416 96.4292 47.3558 92.9739C46.2957 89.5187 45.9227 85.8966 45.3828 82.3236C49.5153 83.0205 53.6577 83.9629 57.4565 85.7396H57.4467Z" fill="#34AC7E"/>
<path d="M52.8329 89.7838C60.5189 96.3703 66.9974 104.233 71.9839 113.048C72.3962 113.774 73.5152 113.126 73.1029 112.39C68.0772 103.497 61.5103 95.5163 53.7556 88.8611C53.1274 88.3212 52.2047 89.2341 52.8329 89.7838Z" fill="#34AC7E"/>
<path opacity="0.3" d="M52.8329 89.7838C60.5189 96.3703 66.9974 104.233 71.9839 113.048C72.3962 113.774 73.5152 113.126 73.1029 112.39C68.0772 103.497 61.5103 95.5163 53.7556 88.8611C53.1274 88.3212 52.2047 89.2341 52.8329 89.7838Z" fill="black"/>
<path d="M218.761 245.151L203.586 225.764L216.828 217.077L229.746 242.874L218.761 245.151Z" fill="#34AC7E"/>
<path opacity="0.7" d="M218.761 245.151L203.586 225.764L216.828 217.077L229.746 242.874L218.761 245.151Z" fill="white"/>
<path d="M224.033 256.155L229.991 253.887C229.991 253.887 230.963 252.827 231.709 252.641C232.445 252.454 235.066 251.963 235.066 251.963L250.899 245.946C250.536 245.367 250.163 244.876 249.8 244.454C249.358 243.934 248.907 243.522 248.465 243.198C246.914 242.069 245.373 242.039 243.881 242.511C241.613 243.227 232.975 241.509 232.975 241.509C232.975 241.509 230.129 241.637 229.029 239.163C228.617 238.231 226.683 237.642 225.937 237.818C224.416 238.172 223.935 239.34 224.249 240.773L224.612 242.442L221.078 243.227C221.078 243.227 217.064 242.913 217.819 244.415C218.251 245.269 220.342 249.019 221.893 252.032C222.256 252.729 222.6 253.396 222.904 253.985C223.572 255.281 224.033 256.165 224.033 256.165V256.155Z" fill="#263238"/>
<g opacity="0.7">
<path d="M250.899 245.936L235.066 251.953C235.066 251.953 232.445 252.444 231.709 252.631C230.973 252.817 229.991 253.877 229.991 253.877L224.033 256.145C224.033 256.145 223.572 255.261 222.904 253.966L249.8 244.434C250.163 244.856 250.536 245.357 250.899 245.926V245.936Z" fill="white"/>
</g>
<path d="M237.068 241.794C236.97 241.755 236.852 241.794 236.784 241.872C236.489 242.265 236.283 242.736 236.224 243.257C236.195 243.531 236.636 243.62 236.666 243.335C236.715 242.874 236.892 242.461 237.147 242.118C237.235 242 237.196 241.843 237.058 241.794H237.068Z" fill="white"/>
<path d="M235.547 241.578C235.449 241.539 235.331 241.578 235.262 241.657C234.968 242.049 234.761 242.52 234.703 243.041C234.673 243.315 235.115 243.404 235.144 243.119C235.193 242.658 235.37 242.246 235.625 241.902C235.714 241.784 235.674 241.627 235.537 241.578H235.547Z" fill="white"/>
<path d="M233.996 241.421C233.898 241.382 233.78 241.421 233.711 241.5C233.417 241.892 233.211 242.363 233.152 242.884C233.122 243.158 233.564 243.247 233.594 242.962C233.643 242.501 233.819 242.089 234.075 241.745C234.163 241.627 234.124 241.47 233.986 241.421H233.996Z" fill="white"/>
<path d="M206.177 229.2L218.584 220.591L219.929 223.281L208.209 231.674L206.177 229.2Z" fill="#34AC7E"/>
<path d="M208.788 232.537L220.371 224.145L220.852 225.117L209.652 233.627L208.788 232.537Z" fill="#34AC7E"/>
<path d="M190.904 161.244C173.952 150.417 126.6 140.719 124.136 139.963C120.985 139.001 111.895 135.124 111.895 135.124L100.715 143.919L119.149 165.327L130.025 168.989L130.065 169.038C130.997 169.165 139.832 172.267 149.481 173.975C162.104 176.223 174.531 182.27 177.937 183.143L210.31 238.005L227.292 228.395C227.292 228.395 198.168 165.877 190.904 161.244Z" fill="#263238"/>
<path d="M73.633 101.092C69.3336 111.958 68.8919 124.179 71.4637 135.516C74.0061 146.746 79.8171 157.455 88.1116 165.485C97.6724 174.741 110.276 179.865 123.007 183.026C135.425 186.118 148.195 187.531 160.563 190.8C163.538 191.585 166.482 192.469 169.378 193.499C170.811 194.01 172.235 194.569 173.648 195.139C174.208 195.365 173.157 194.933 173.167 194.933C173.324 195.011 173.491 195.07 173.648 195.139C173.972 195.276 174.286 195.423 174.6 195.561C175.336 195.895 176.073 196.248 176.799 196.611C179.479 197.946 182.08 199.458 184.534 201.176C184.819 201.372 185.093 201.578 185.378 201.774C185.535 201.892 186.448 202.589 185.8 202.079C185.152 201.568 186.046 202.275 186.203 202.403C186.556 202.687 186.919 202.982 187.263 203.286C188.401 204.258 189.501 205.288 190.551 206.368C191.032 206.869 191.513 207.389 191.974 207.909C192.21 208.174 192.436 208.439 192.652 208.704C192.76 208.842 192.878 208.969 192.985 209.107C193.103 209.254 193.741 210.069 193.211 209.382C192.711 208.734 193.408 209.657 193.525 209.814C193.731 210.098 193.938 210.383 194.134 210.668C194.595 211.335 195.037 212.022 195.469 212.719C196.225 213.956 196.922 215.242 197.56 216.547C197.736 216.911 197.913 217.284 198.08 217.657C198.159 217.843 198.63 218.903 198.296 218.138C197.962 217.372 198.414 218.442 198.482 218.628C198.63 219.011 198.777 219.394 198.905 219.777C199.925 222.633 200.632 225.588 201.093 228.582C201.152 228.935 201.113 229.554 201.044 228.189C201.044 228.366 201.084 228.543 201.103 228.709C201.143 229.053 201.172 229.406 201.211 229.75C201.28 230.506 201.329 231.262 201.359 232.017C201.417 233.529 201.398 235.041 201.3 236.552C201.251 237.308 201.182 238.064 201.093 238.81C201.074 238.987 201.044 239.154 201.035 239.33C201.035 239.36 201.211 238.162 201.103 238.761C201.035 239.163 200.976 239.566 200.907 239.968C200.642 241.441 200.308 242.893 199.886 244.327C199.484 245.691 199.003 247.036 198.482 248.361C198.119 249.284 198.924 247.389 198.512 248.282C198.355 248.626 198.198 248.979 198.031 249.323C197.727 249.971 197.403 250.599 197.069 251.227C196.401 252.484 195.665 253.701 194.88 254.889C194.487 255.478 194.075 256.067 193.663 256.636C193.545 256.803 192.868 257.686 193.388 257.009C193.908 256.332 193.133 257.323 192.995 257.49C191.189 259.698 189.187 261.73 186.998 263.566C186.743 263.782 186.497 263.988 186.232 264.194C186.104 264.292 185.977 264.4 185.849 264.498C185.398 264.871 186.32 264.145 186.291 264.155C185.653 264.577 185.054 265.068 184.426 265.5C183.248 266.305 182.041 267.051 180.794 267.728C180.215 268.042 179.636 268.346 179.047 268.641C178.703 268.808 178.36 268.975 178.006 269.132C177.859 269.2 177.702 269.269 177.555 269.338C176.897 269.642 177.722 269.269 177.938 269.181C176.612 269.681 175.307 270.202 173.962 270.614C168.603 272.253 163.027 273.009 157.511 273.863C152.122 274.697 146.654 275.561 141.54 277.524C135.493 279.831 130.369 283.286 126.472 288.518C122.144 294.329 120.779 301.848 121.79 308.906C122.703 315.227 126.355 321.343 131.341 325.318C134.139 327.546 137.084 329.215 140.49 330.344C143.169 331.227 146.487 329.323 147.115 326.584C147.793 323.62 146.222 320.911 143.356 319.959C143.042 319.851 142.728 319.753 142.423 319.635C142.266 319.576 142.119 319.517 141.962 319.458C141.412 319.252 142.512 319.694 142.492 319.684C141.864 319.272 141.098 319.016 140.45 318.634C139.881 318.3 139.331 317.946 138.791 317.564C138.654 317.465 138.526 317.367 138.389 317.269C137.918 316.935 138.841 317.622 138.831 317.603C138.576 317.328 138.232 317.102 137.947 316.857C137.417 316.386 136.907 315.885 136.416 315.355C136.19 315.11 135.974 314.864 135.758 314.619C135.65 314.491 135.552 314.364 135.444 314.236C134.983 313.726 136.072 315.11 135.68 314.55C134.855 313.372 134.09 312.194 133.471 310.899C133.403 310.761 133.353 310.584 133.265 310.447C133.245 310.427 133.687 311.527 133.481 310.977C133.363 310.673 133.245 310.368 133.137 310.054C132.892 309.357 132.686 308.651 132.519 307.934C132.431 307.532 132.342 307.139 132.274 306.737C132.244 306.57 132.234 306.383 132.195 306.216C132.195 306.206 132.313 307.384 132.283 306.776C132.244 306.02 132.166 305.264 132.166 304.499C132.166 303.802 132.195 303.095 132.264 302.398C132.284 302.221 132.303 302.045 132.323 301.878C132.391 301.141 132.126 302.987 132.274 302.27C132.352 301.868 132.421 301.465 132.509 301.063C132.657 300.376 132.843 299.699 133.059 299.031C133.167 298.697 133.285 298.364 133.403 298.04C133.461 297.873 133.53 297.716 133.589 297.549C133.834 296.881 133.137 298.501 133.461 297.863C134.168 296.499 134.885 295.213 135.768 293.946C136.102 293.465 135.464 294.339 135.464 294.339C135.582 294.251 135.69 294.064 135.788 293.946C135.994 293.711 136.2 293.475 136.406 293.249C136.887 292.729 137.398 292.219 137.928 291.748C138.153 291.541 138.379 291.345 138.615 291.159C138.733 291.06 138.86 290.972 138.968 290.874C139.007 290.835 138.006 291.581 138.468 291.257C138.998 290.884 139.518 290.501 140.058 290.148C141.147 289.451 142.286 288.832 143.464 288.292C143.739 288.165 144.014 288.057 144.288 287.929C144.347 287.9 143.15 288.391 143.699 288.184C143.837 288.135 143.984 288.076 144.122 288.018C144.779 287.762 145.447 287.517 146.124 287.301C147.351 286.898 148.588 286.545 149.844 286.231C152.524 285.564 155.253 285.073 157.972 284.631C163.41 283.748 168.897 283.08 174.237 281.725C179.989 280.263 185.555 277.848 190.414 274.432C200.524 267.325 208.249 256.685 210.949 244.533C213.766 231.821 211.479 218.049 204.588 206.977C197.619 195.767 186.517 188.542 174.404 183.89C162.782 179.423 150.453 177.578 138.291 175.271C131.979 174.083 125.687 172.758 119.542 170.874C117.991 170.402 116.46 169.892 114.939 169.333C114.242 169.077 113.545 168.812 112.848 168.547C112.504 168.41 112.161 168.272 111.817 168.135C111.523 168.017 110.973 167.674 112.072 168.243C111.856 168.135 111.621 168.047 111.395 167.948C108.509 166.682 105.702 165.22 103.032 163.541C101.717 162.717 100.45 161.813 99.1938 160.901C98.7227 160.557 99.6945 161.293 99.6552 161.264C99.5374 161.166 99.4098 161.067 99.2822 160.969C99.0368 160.773 98.7914 160.577 98.546 160.371C98.0257 159.939 97.5055 159.487 96.9951 159.036C94.973 157.21 93.0981 155.217 91.4 153.097C91.3018 152.979 91.2036 152.852 91.1055 152.724C90.7325 152.272 91.4883 153.234 91.4687 153.195C91.2822 152.94 91.0859 152.694 90.8994 152.439C90.4969 151.89 90.1042 151.33 89.7214 150.771C88.9558 149.642 88.2294 148.483 87.5521 147.305C86.865 146.118 86.2269 144.91 85.638 143.683C85.3631 143.114 85.0981 142.545 84.8429 141.966C84.7545 141.769 84.3226 140.768 84.676 141.593C85.0294 142.427 84.5582 141.278 84.4699 141.063C83.4687 138.52 82.6441 135.899 82.0061 133.239C81.7018 131.963 81.4367 130.667 81.2208 129.372C81.1619 129.009 81.103 128.645 81.0539 128.282C80.9067 127.301 81.1913 129.45 81.0735 128.459C80.995 127.782 80.9165 127.104 80.8576 126.417C80.622 123.747 80.5828 121.067 80.73 118.397C80.7693 117.72 80.8183 117.043 80.887 116.356C80.9165 116.042 80.9459 115.727 80.9852 115.413C81.0048 115.256 81.0245 115.099 81.0441 114.942C81.1324 114.196 81.0048 115.256 80.9754 115.443C81.2208 114.098 81.4073 112.753 81.7116 111.428C82.2809 108.866 83.0662 106.353 84.038 103.909C84.519 102.692 84.1263 100.846 83.4981 99.7569C82.8404 98.6379 81.5644 97.5778 80.2785 97.2833C77.1766 96.5765 74.7717 98.2354 73.6527 101.043L73.633 101.092Z" fill="#934E42"/>
<path d="M78.777 84.2674C78.777 84.2674 77.55 78.5839 73.0837 75.4821C68.6174 72.3802 61.8641 73.6661 60.5389 75.6293C59.2137 77.5925 61.2064 79.2514 61.2064 79.2514C61.2064 79.2514 58.9291 79.9582 58.7131 81.3226C58.507 82.6772 59.9205 86.4367 62.6003 87.5655C65.28 88.6944 77.8052 86.1324 78.0702 86.0833C78.3353 86.0342 78.777 84.2772 78.777 84.2772V84.2674Z" fill="#FFC3BD"/>
<path d="M79.9251 85.6514C79.9251 85.6514 85.53 84.1299 88.4061 79.5066C91.2723 74.8832 89.6331 68.2084 87.6012 66.9912C85.5693 65.774 84.0183 67.8452 84.0183 67.8452C84.0183 67.8452 83.1938 65.6071 81.8196 65.4697C80.4453 65.3323 76.9803 67.0206 75.7925 69.6808C71.444 79.3495 78.0109 84.7876 78.0797 85.0526C78.1484 85.3078 79.9152 85.6612 79.9152 85.6612L79.9251 85.6514Z" fill="#FFC3BD"/>
<path d="M76.5004 84.9643C76.5004 84.9643 66.3016 84.4244 63.0231 91.3938C59.7446 98.3533 61.1875 99.1582 62.8562 99.4134C64.5151 99.6588 65.6341 100.101 65.6341 100.101C65.6341 100.101 64.8587 102.918 67.7642 103.251C70.6697 103.585 72.8489 102.113 76.1863 99.0993C79.5237 96.076 79.2096 87.0551 78.7188 85.8379C78.7188 85.8379 79.3274 84.8465 76.5004 84.9741V84.9643Z" fill="#FFC3BD"/>
<path d="M80.4164 85.9852C80.4164 85.9852 83.5084 81.0674 88.7698 79.6735C94.0311 78.2796 99.9305 81.7937 100.51 84.0907C101.089 86.3876 98.6446 87.2711 98.6446 87.2711C98.6446 87.2711 100.539 88.714 100.274 90.0686C100.009 91.4232 97.398 94.4662 94.4925 94.6036C91.5869 94.7508 80.6912 88.0661 80.4654 87.9287C80.2397 87.7815 80.4164 85.995 80.4164 85.995V85.9852Z" fill="#FFC3BD"/>
<path d="M81.8794 87.6636C81.8794 87.6636 91.6463 90.6378 92.3531 98.3041C93.0598 105.97 91.4206 106.235 89.7715 105.902C88.1224 105.568 86.9347 105.597 86.9347 105.597C86.9347 105.597 86.7089 108.513 83.8524 107.835C81.0058 107.158 79.4647 105.028 77.3543 101.053C75.2438 97.0771 78.6303 88.7041 79.4941 87.7225C79.4941 87.7225 79.2586 86.5838 81.8794 87.6636Z" fill="#FFC3BD"/>
<path d="M84.6281 86.7017C84.0686 89.7053 80.7214 91.1679 78.1398 89.5483C76.7066 88.6452 75.9312 86.8783 76.2355 85.2194C76.795 82.2158 80.1422 80.7532 82.7238 82.3728C84.157 83.2759 84.9324 85.0428 84.6281 86.7017Z" fill="#EB7E7B"/>
<path opacity="0.2" d="M86.4531 89.8035C89.6335 91.3937 91.8225 95.0452 91.7145 98.6084C90.566 95.2415 88.8777 92.4145 86.4531 89.8035Z" fill="white"/>
<path opacity="0.2" d="M88.2886 69.6122C89.9475 72.7631 89.5941 77.0036 87.4346 79.8306C88.4652 76.4146 88.7401 73.1459 88.2886 69.6122Z" fill="white"/>
<path opacity="0.2" d="M69.334 74.5201C72.8677 74.9324 76.1757 77.6122 77.2947 80.9889C75.0567 78.2109 72.5144 76.1398 69.334 74.5201Z" fill="white"/>
<path opacity="0.2" d="M63.0918 92.0514C64.4268 88.7533 67.882 86.2698 71.4452 86.0931C68.1765 87.5165 65.4967 89.4208 63.0918 92.0514Z" fill="white"/>
<path d="M54.6587 146.029C54.6587 146.029 50.5851 140.945 44.5385 140.071C38.4918 139.197 32.3765 143.87 32.0231 146.51C31.6795 149.141 34.5065 149.808 34.5065 149.808C34.5065 149.808 32.5728 151.664 33.044 153.136C33.5151 154.608 36.8133 157.661 40.0722 157.445C43.3311 157.229 54.6097 148.385 54.8452 148.199C55.0808 148.012 54.6489 146.029 54.6489 146.029H54.6587Z" fill="#FFC3BD"/>
<path d="M56.4942 146.844C56.4942 146.844 61.3629 142.505 61.9225 136.429C62.482 130.353 57.4954 124.483 54.8451 124.267C52.1948 124.061 51.6844 126.918 51.6844 126.918C51.6844 126.918 49.731 125.092 48.2881 125.632C46.8451 126.181 44.2144 129.617 44.3519 132.876C44.8328 144.753 54.158 146.923 54.3543 147.148C54.5605 147.374 56.504 146.834 56.504 146.834L56.4942 146.844Z" fill="#FFC3BD"/>
<path d="M52.7157 147.865C52.7157 147.865 42.2224 152.439 42.4187 161.067C42.6249 169.696 44.4801 169.784 46.2666 169.195C48.0629 168.606 49.3881 168.488 49.3881 168.488C49.3881 168.488 50.0163 171.708 53.1083 170.579C56.2004 169.46 57.6433 166.888 59.4789 162.186C61.3145 157.485 56.4752 148.591 55.3758 147.62C55.3758 147.62 55.4936 146.314 52.7157 147.865Z" fill="#FFC3BD"/>
<path d="M57.1621 146.923C57.1621 146.923 57.7903 140.434 62.3744 136.4C66.9585 132.366 74.6346 132.935 76.372 134.947C78.0996 136.959 76.0971 139.07 76.0971 139.07C76.0971 139.07 78.7278 139.57 79.1401 141.053C79.5523 142.535 78.453 146.903 75.6161 148.503C72.7695 150.103 58.4873 148.866 58.1928 148.837C57.8885 148.807 57.1719 146.913 57.1719 146.913L57.1621 146.923Z" fill="#FFC3BD"/>
<path d="M59.4589 147.885C59.4589 147.885 70.7472 145.97 75.3019 153.313C79.8467 160.645 78.3448 161.735 76.519 162.226C74.6933 162.717 73.5154 163.345 73.5154 163.345C73.5154 163.345 74.7424 166.388 71.5424 167.134C68.3423 167.88 65.7313 166.525 61.6184 163.59C57.5055 160.655 56.7006 150.564 57.0932 149.141C57.0932 149.141 56.2883 148.11 59.4589 147.885Z" fill="#FFC3BD"/>
<path d="M61.9125 146.471C62.1579 149.102 60.2143 151.418 57.5934 151.664C54.9628 151.909 52.6462 149.966 52.4008 147.345C52.1554 144.724 54.0989 142.397 56.7198 142.152C59.3505 141.916 61.6671 143.85 61.9125 146.471Z" fill="#EB7E7B"/>
<path opacity="0.2" d="M65.1328 147.737C69.1083 147.816 73.0837 150.348 74.831 153.931C72.0433 151.085 68.8923 149.063 65.1328 147.737Z" fill="white"/>
<path opacity="0.2" d="M56.8477 126.554C60.0378 128.94 61.7949 133.308 61.1176 137.234C60.5188 133.298 59.125 129.813 56.8477 126.554Z" fill="white"/>
<path opacity="0.2" d="M40.2881 140.974C44.0574 139.688 48.6611 140.709 51.5176 143.477C47.9249 141.75 44.2734 140.935 40.2881 140.974Z" fill="white"/>
<path opacity="0.2" d="M42.8203 161.696C42.5749 157.72 44.7835 153.558 48.2093 151.526C45.5982 154.53 43.8314 157.838 42.8203 161.696Z" fill="white"/>
<path d="M97.573 94.9469L83.6834 130.206L93.5289 160.478L84.8614 160.9C84.8614 160.9 70 133.651 70.6184 129.587C71.2368 125.524 82.4368 91.7567 82.4368 91.7567L97.573 94.9567V94.9469Z" fill="#FFC3BD"/>
<path d="M91.6344 157.749C91.6344 157.749 94.8835 158.142 96.5326 160.282C98.1817 162.432 100.066 163.708 101.185 165.386C102.304 167.065 99.6737 166.338 98.3584 165.661C97.043 164.994 95.5412 164.238 95.1976 165.308C94.8541 166.378 96.8565 175.84 96.2087 177.273C95.5608 178.706 94.7559 177.273 94.7559 177.273C94.7559 177.273 95.178 179.58 94.3142 180.002C94.0884 180.11 93.3915 180.002 93.0283 178.972C92.2234 176.675 90.7706 171.757 90.7706 171.757C90.859 172.041 92.2136 178.235 92.2921 179.187C92.4001 180.434 91.8111 181.082 91.0847 181.111C90.0541 181.17 88.1105 173.533 87.8062 173.278C87.8062 173.278 89.0725 177.637 88.1203 178.569C87.178 179.511 86.2258 176.812 85.8528 174.279C85.4994 171.953 84.2136 167.487 84.086 165.082C83.9289 162.127 84.4884 160.105 86.9522 158.829C89.416 157.553 91.6148 157.73 91.6148 157.73L91.6344 157.749Z" fill="#FFC3BD"/>
<path d="M114.397 271.664L122.015 248.243L136.611 254.388L122.427 279.497L114.397 271.664Z" fill="#34AC7E"/>
<path opacity="0.7" d="M114.397 271.664L122.015 248.243L136.611 254.388L122.427 279.497L114.397 271.664Z" fill="white"/>
<path d="M108.891 282.138L116.429 285.662C116.429 285.662 117.862 285.563 118.53 285.936C119.197 286.309 121.435 287.752 121.435 287.752L136.758 294.231C136.886 293.563 136.964 292.955 136.984 292.395C137.013 291.718 136.984 291.109 136.876 290.57C136.523 288.685 135.737 287.635 134.334 286.947C132.194 285.907 127.099 278.722 127.099 278.722C127.099 278.722 124.94 276.857 125.843 274.304C126.177 273.343 125.185 271.585 124.518 271.203C123.173 270.417 122.024 270.938 121.259 272.184L120.375 273.647L117.274 271.792C117.274 271.792 114.574 268.808 114.093 270.417C113.818 271.34 111.099 274.422 110.167 277.671C109.951 278.427 109.745 279.154 109.558 279.782C109.156 281.185 108.881 282.147 108.881 282.147L108.891 282.138Z" fill="#263238"/>
<path opacity="0.7" d="M136.767 294.231L121.444 287.752C121.444 287.752 119.196 286.309 118.539 285.936C117.871 285.563 116.438 285.662 116.438 285.662L108.899 282.138C108.899 282.138 109.174 281.176 109.577 279.772L137.003 292.386C136.973 292.945 136.904 293.554 136.777 294.221L136.767 294.231Z" fill="white"/>
<path d="M129.877 281.745C129.828 281.647 129.72 281.598 129.622 281.607C129.131 281.686 128.67 281.892 128.267 282.226C128.061 282.403 128.317 282.766 128.532 282.589C128.886 282.295 129.298 282.108 129.72 282.039C129.867 282.02 129.946 281.872 129.887 281.745H129.877Z" fill="white"/>
<path d="M128.925 280.538C128.876 280.439 128.768 280.39 128.66 280.4C128.169 280.479 127.708 280.685 127.306 281.019C127.099 281.195 127.355 281.558 127.571 281.382C127.924 281.087 128.336 280.901 128.758 280.832C128.906 280.812 128.984 280.665 128.925 280.538Z" fill="white"/>
<path d="M127.904 279.36C127.855 279.262 127.747 279.212 127.648 279.222C127.158 279.301 126.696 279.507 126.294 279.841C126.088 280.017 126.343 280.381 126.559 280.204C126.912 279.909 127.324 279.723 127.747 279.654C127.894 279.635 127.972 279.487 127.913 279.36H127.904Z" fill="white"/>
<path d="M120.61 252.317L134.676 257.794L133.204 260.415L119.697 255.379L120.61 252.317Z" fill="#34AC7E"/>
<path d="M119.295 256.341L132.723 261.259L132.193 262.211L118.873 257.666L119.295 256.341Z" fill="#34AC7E"/>
<path d="M143.571 167.016L149.078 143.722C147.193 141.013 142.452 132.346 142.452 132.346L102.059 139.717C102.059 139.717 100.538 146.274 100.901 151.781C102.285 172.434 131.183 199.516 132.322 206.986C128.101 224.145 113.652 264.626 113.652 264.626L131.88 270.908C131.88 270.908 155.006 222.957 155.762 209.578C156.518 196.199 141.323 169.587 141.323 169.587L143.571 167.016Z" fill="#263238"/>
<path d="M121.946 83.7272C124.125 86.9076 127.541 90.3628 134.442 86.9665C139.085 84.6794 145.289 78.0045 153.77 70.8486L140.822 59.8057C135.679 64.1051 132.331 66.51 125.441 72.5174C116.4 81.8622 121.946 83.7272 121.946 83.7272Z" fill="#34AC7E"/>
<path d="M140.498 93.4842C139.222 89.1652 137.416 83.8056 135.914 79.5161C134.304 74.9026 130.446 71.6142 125.568 71.7025C118.078 71.8302 110.196 71.8498 97.563 75.2265L94.8047 97.1946L101.627 132.247C101.627 132.247 101.588 140.758 99.8207 148.483C118.088 154.068 140.577 152.822 151.58 145.371C151.58 145.371 143.07 102.171 140.498 93.4842Z" fill="#34AC7E"/>
<path opacity="0.7" d="M105.2 73.5087C105.2 73.5087 110.923 79.8301 119.355 77.916C127.787 76.0019 125.843 71.7025 125.843 71.7025C125.843 71.7025 124.95 71.7221 123.556 71.732C119.708 71.7614 111.689 71.9774 105.2 73.5087Z" fill="#263238"/>
<path d="M97.8386 75.2461C97.8386 75.2461 90.614 74.6277 86.9527 82.0191C83.5858 88.8314 75.2422 103.742 75.2422 103.742L92.6165 111.104L102.266 93.9357L97.8386 75.2461Z" fill="#34AC7E"/>
<path d="M107.536 74.0877C111.826 69.9847 110.972 58.8337 109.823 53.0815L123.32 63.4865C123.045 64.1638 122.82 64.8509 122.643 65.5576C122.28 66.8239 122.241 68.1589 122.545 69.435C122.839 70.4853 124.194 73.3908 124.194 73.3908C124.194 73.3908 125.028 76.6791 116.272 77.0227C112.444 77.592 107.526 74.0976 107.526 74.0976L107.536 74.0877Z" fill="#FFC3BD"/>
<path d="M107.33 48.1443C109.382 56.056 110.373 60.5615 115.321 63.8498C122.771 68.7971 132.037 63.359 132.459 54.9762C132.842 47.4277 129.426 35.7663 120.749 34.1663C112.199 32.5958 105.279 40.2424 107.32 48.1541L107.33 48.1443Z" fill="#FFC3BD"/>
<path d="M103.874 37.3859C104.179 32.4485 116.331 30.1123 120.189 31.889C120.768 32.154 114.24 37.0227 114.643 36.7773L111.472 38.554C110.932 38.5442 110.019 39.3295 109.784 40.9982C109.784 40.9982 112.699 54.0338 109.607 58.5491C106.25 57.6657 105.072 52.5025 103.501 49.597C101.165 45.2583 98.1321 38.8289 103.865 37.3859H103.874Z" fill="#263238"/>
<path d="M105.367 55.4277C106.427 57.3615 108.302 58.6376 110.088 59.1186C112.778 59.8449 113.19 57.0572 112.473 54.5836C111.825 52.3553 110.608 49.7149 107.899 50.078C105.229 50.4412 104.159 53.2093 105.367 55.4277Z" fill="#FFC3BD"/>
<path d="M118.519 47.9087C118.676 48.7234 119.255 49.3025 119.805 49.1945C120.355 49.0866 120.679 48.3307 120.522 47.516C120.365 46.7013 119.785 46.1221 119.236 46.2301C118.686 46.3381 118.362 47.0939 118.519 47.9087Z" fill="#263238"/>
<path d="M126.853 46.9467C127.01 47.7615 127.589 48.3406 128.139 48.2326C128.689 48.1247 129.013 47.3688 128.856 46.5541C128.699 45.7394 128.119 45.1602 127.57 45.2682C127.02 45.3762 126.696 46.132 126.853 46.9467Z" fill="#263238"/>
<path d="M125.097 46.9073C125.097 46.9073 128.552 50.4804 129.73 51.9724C128.758 53.219 126.638 53.1307 126.638 53.1307L125.097 46.9073Z" fill="#BA4D3C"/>
<path d="M116.763 44.7775C116.901 44.8069 117.048 44.7579 117.146 44.6499C118.334 43.3345 119.806 43.5014 119.816 43.5112C120.032 43.5407 120.238 43.3934 120.277 43.1775C120.307 42.9615 120.16 42.7652 119.944 42.7358C119.865 42.7259 118.03 42.51 116.547 44.1394C116.4 44.3063 116.42 44.5517 116.577 44.6891C116.626 44.7382 116.695 44.7677 116.763 44.7775Z" fill="#263238"/>
<path opacity="0.2" d="M111.04 54.7701C110.951 54.7701 110.863 54.7112 110.834 54.6228C110.628 53.9848 110.254 53.4057 109.754 52.9541C109.43 52.6596 108.91 52.2964 108.291 52.267C107.732 52.2474 107.202 52.532 107.015 52.9541C106.966 53.0621 106.839 53.1112 106.731 53.0621C106.623 53.013 106.574 52.8854 106.623 52.7774C106.888 52.1885 107.575 51.7958 108.321 51.8351C109.067 51.8744 109.675 52.2866 110.058 52.6302C110.618 53.1406 111.03 53.7787 111.256 54.4952C111.295 54.613 111.226 54.7308 111.118 54.7701C111.099 54.7701 111.079 54.7799 111.05 54.7799L111.04 54.7701Z" fill="black"/>
<path d="M130.859 42.7159C130.928 42.6865 130.997 42.6374 131.036 42.5687C131.164 42.392 131.114 42.1466 130.928 42.0288C129.092 40.8312 127.394 41.5478 127.316 41.5773C127.109 41.6656 127.021 41.8914 127.1 42.0975C127.188 42.2938 127.414 42.3822 127.62 42.3036C127.689 42.2742 129.004 41.7343 130.476 42.6963C130.594 42.7748 130.732 42.7748 130.849 42.7257L130.859 42.7159Z" fill="#263238"/>
<path d="M126.491 55.8889C125.853 56.8214 125.284 57.7932 124.783 58.8042C124.597 58.7454 124.4 58.6963 124.214 58.6276C121.642 57.8128 120.71 56.5957 120.474 55.4766C120.366 54.9269 120.396 54.3674 120.543 53.8275C120.621 53.5233 120.739 53.2288 120.906 52.9637C122.015 54.2104 124.342 55.1527 125.618 55.6042C126.177 55.7711 126.491 55.8987 126.491 55.8987V55.8889Z" fill="#263238"/>
<path d="M125.647 55.5748L125.117 56.419C122.702 55.6534 121.102 54.7896 120.572 53.7981C120.651 53.4938 120.769 53.1994 120.935 52.9343C122.045 54.1908 124.371 55.1233 125.647 55.5748Z" fill="white"/>
<path d="M124.244 58.6081C121.672 57.7934 120.739 56.5762 120.514 55.4572C121.485 55.7811 122.389 56.2817 123.193 56.9197C123.714 57.3615 124.087 57.9504 124.254 58.6081H124.244Z" fill="#C15854"/>
<path d="M107.791 36.0116C107.791 36.0116 111.521 23.8103 122.692 24.095C121.681 24.5171 120.768 25.1257 119.983 25.8815C119.983 25.8815 129.219 23.3293 133.362 29.3858L131.369 28.6692C131.369 28.6692 134.765 33.6852 132.625 37.7981L131.771 36.0901C131.771 36.0901 128.807 41.5576 122.81 41.2631L124.606 39.8791C124.606 39.8791 114.672 41.4006 111.806 39.3392C110.343 38.3772 108.998 37.2582 107.781 35.992L107.791 36.0116Z" fill="#263238"/>
<path d="M186.949 299.551H87.0713V315.973H186.949V299.551Z" fill="#CC753A"/>
<path d="M93.6877 310.496C92.3527 309.691 103.337 366.064 103.337 366.064H170.174L180.382 310.486H93.6877V310.496Z" fill="#CC753A"/>
<path d="M141.992 60.8069L159.072 47.3983L165.05 20.1099L171.793 23.6338C171.793 23.6338 170.959 50.8731 168.692 53.6707C166.414 56.4682 152.476 69.7591 152.476 69.7591L141.992 60.8167V60.8069Z" fill="#FFC3BD"/>
<path d="M171.558 30.7012L172.137 21.0717C172.137 21.0717 173.512 19.5404 174.218 18.2251C174.925 16.9195 175.74 15.2116 175.151 12.8066C174.562 10.4017 173.433 11.8447 173.433 11.8447C172.51 9.5183 170.577 10.4508 170.577 10.4508C169.831 8.39928 167.681 9.20419 167.681 9.20419C167.681 9.20419 165.129 9.75388 164.235 10.549C163.342 11.3441 163.077 15.6435 163.077 15.6435L165.05 20.0901L163.519 29.5822C163.686 29.6018 171.558 30.6914 171.558 30.6914V30.7012Z" fill="#FFC3BD"/>
<path opacity="0.3" d="M174.856 15.0939C174.856 15.516 174.532 15.9184 174.1 15.9577C173.639 15.997 173.246 15.6534 173.168 15.2117C173.079 14.7111 173.256 14.1614 173.305 13.6608C173.364 13.0816 173.374 12.5025 173.345 11.9233C173.335 11.6779 172.942 11.6681 172.952 11.9233C172.991 12.6595 172.962 13.3957 172.854 14.1319C172.765 14.7111 172.648 15.3786 173.05 15.8792C173.374 16.2816 173.953 16.4583 174.434 16.2816C174.925 16.0951 175.249 15.6142 175.249 15.1037C175.249 14.8485 174.866 14.8485 174.856 15.1037V15.0939Z" fill="black"/>
<path opacity="0.3" d="M172.481 14.4656C172.137 14.8582 171.637 15.1625 171.097 15.0938C170.596 15.0349 170.174 14.6423 170.164 14.1318C170.164 13.8374 170.253 13.5429 170.302 13.2484C170.351 12.9637 170.39 12.6791 170.41 12.3846C170.459 11.7564 170.42 11.138 170.331 10.5196C170.292 10.2742 169.919 10.3821 169.958 10.6275C170.076 11.3834 170.076 12.1588 169.958 12.9245C169.87 13.5331 169.595 14.2006 169.939 14.7797C170.194 15.2116 170.695 15.4864 171.195 15.4963C171.804 15.5159 172.363 15.1821 172.756 14.7404C172.923 14.5539 172.648 14.2791 172.481 14.4656Z" fill="black"/>
<path opacity="0.3" d="M169.368 13.3762C169.015 13.6805 168.465 13.759 168.043 13.5431C167.621 13.3271 167.356 12.8756 167.376 12.4044C167.376 12.1492 166.993 12.1492 166.983 12.4044C166.964 13.013 167.317 13.6314 167.876 13.8965C168.456 14.1713 169.153 14.0731 169.643 13.6511C169.83 13.4842 169.555 13.2093 169.368 13.3762Z" fill="black"/>
<path d="M138.605 12.2865L145.133 34.716L167.739 28.6203L160.034 6.12207L138.605 12.2865Z" fill="#EDB24A"/>
<path d="M132.568 18.4607L132.666 14.4558C132.666 14.4558 128.927 18.0975 127.817 22.2104L131.655 20.5221L145.643 32.0264L144.74 24.6644L132.568 18.4509V18.4607Z" fill="#EDB24A"/>
<path d="M144.77 13.2484C144.24 10.6374 143.661 7.84964 144.515 5.23859C145.212 3.12815 146.88 1.36128 149.217 1.29256C151.631 1.21404 153.683 2.71588 154.9 4.70852C156.274 6.9662 156.588 9.63614 156.618 12.2276C156.628 13.0619 157.923 13.0619 157.914 12.2276C157.864 7.95761 156.785 2.82386 152.554 0.752686C150.64 -0.189648 148.284 -0.317255 146.399 0.772318C144.701 1.7441 143.602 3.53061 143.121 5.38583C142.404 8.08522 142.974 10.922 143.513 13.592C143.68 14.4067 144.927 14.0632 144.77 13.2484Z" fill="#EDB24A"/>
<path d="M159.679 10.0385C161.26 8.75264 163.449 8.28148 165.383 9.00786C167.257 9.71461 168.543 11.4128 168.769 13.3956C169.25 17.5478 166.786 22.4852 162.693 23.8398C161.908 24.1048 162.241 25.3515 163.037 25.0962C165.461 24.2913 167.395 22.5048 168.573 20.257C169.78 17.9502 170.497 15.0152 169.908 12.4435C169.397 10.1956 167.67 8.39927 165.491 7.6827C163.154 6.91706 160.612 7.60418 158.747 9.12565C158.099 9.65571 159.022 10.5686 159.67 10.0484L159.679 10.0385Z" fill="#EDB24A"/>
<path d="M165.688 19.1382C168.947 17.9112 168.24 14.1419 166.875 13.5431C167.052 12.7578 167.081 12.5615 167.258 11.7861C167.759 11.7762 168.76 11.1971 169.231 11.0008C169.702 10.8143 170.026 10.4216 169.82 9.89157C169.634 9.4204 169.496 9.32224 164.902 10.2155" fill="#FFC3BD"/>
<path d="M225.153 157.308C217.094 158.525 209.153 161.598 203.146 167.104C197.55 172.228 193.879 181.289 193.938 188.847C198.866 190.388 202.576 192.125 207.69 192.842C212.824 193.568 219.352 191.566 224.22 189.799C230.817 187.414 236.078 182.201 239.965 176.361C243.852 170.52 246.552 163.983 249.516 157.622C241.428 156.631 233.202 156.101 225.143 157.318L225.153 157.308Z" fill="#34AC7E"/>
<path d="M188.589 193.451C200.702 182.889 214.63 174.496 229.619 168.724C230.395 168.43 230.051 167.173 229.276 167.468C217.428 172.022 206.218 178.177 196.049 185.765C193.173 187.914 190.375 190.172 187.666 192.528C187.038 193.078 187.96 193.99 188.589 193.451Z" fill="#34AC7E"/>
<path opacity="0.3" d="M188.589 193.451C200.702 182.889 214.63 174.496 229.619 168.724C230.395 168.43 230.051 167.173 229.276 167.468C217.428 172.022 206.218 178.177 196.049 185.765C193.173 187.914 190.375 190.172 187.666 192.528C187.038 193.078 187.96 193.99 188.589 193.451Z" fill="black"/>
<path d="M173.824 149.023C170.83 154.452 169.024 160.675 169.574 166.859C170.084 172.611 173.863 179.011 178.457 182.466C181.667 180.199 184.435 178.756 187.233 176.007C190.04 173.239 191.846 168.371 193.034 164.601C194.644 159.507 193.927 153.921 192.19 148.876C190.452 143.821 187.753 139.178 185.279 134.437C180.941 138.874 176.818 143.595 173.834 149.023H173.824Z" fill="#34AC7E"/>
<path d="M176.298 191.949C180.283 181.024 182.335 169.451 182.355 157.828C182.355 156.994 181.059 156.994 181.059 157.828C181.039 169.352 178.997 180.788 175.051 191.605C174.767 192.39 176.023 192.734 176.308 191.949H176.298Z" fill="#34AC7E"/>
<path opacity="0.3" d="M176.298 191.949C180.283 181.024 182.335 169.451 182.355 157.828C182.355 156.994 181.059 156.994 181.059 157.828C181.039 169.352 178.997 180.788 175.051 191.605C174.767 192.39 176.023 192.734 176.308 191.949H176.298Z" fill="black"/>
<path d="M184.583 237.269C183.366 232.567 180.117 228.611 176.338 225.549C173.324 223.104 169.957 221.161 166.591 219.227C165.324 218.501 163.724 219.227 163.449 220.66C162.566 225.234 161.997 229.877 162.262 234.53C162.576 240.165 164.186 245.828 167.582 250.324C170.753 254.516 176.76 257.617 181.962 258.069C183.337 254.771 183.572 251.404 184.397 247.929C185.231 244.435 185.476 240.744 184.573 237.269H184.583Z" fill="#34AC7E"/>
<path d="M186.017 269.917C184.024 258.462 180.029 247.419 174.237 237.328C173.825 236.602 172.696 237.259 173.118 237.986C178.851 247.978 182.787 258.913 184.76 270.261C184.907 271.085 186.154 270.732 186.017 269.917Z" fill="#34AC7E"/>
<path opacity="0.3" d="M186.017 269.917C184.024 258.462 180.029 247.419 174.237 237.328C173.825 236.602 172.696 237.259 173.118 237.986C178.851 247.978 182.787 258.913 184.76 270.261C184.907 271.085 186.154 270.732 186.017 269.917Z" fill="black"/>
<path d="M220.598 269.838C215.189 268.739 209.417 268.847 204.303 270.947C199.543 272.911 195.449 276.749 193.731 281.568C196.509 283.698 199.307 285.828 202.389 287.477C205.491 289.136 208.927 290.295 212.441 290.304C217.201 290.314 221.756 288.233 225.594 285.416C229.432 282.599 232.662 279.065 236.038 275.708C231.121 273.195 226.006 270.947 220.598 269.838Z" fill="#34AC7E"/>
<path d="M214.874 280.449C203.419 281.666 191.827 280.901 180.646 278.133C179.831 277.936 179.488 279.183 180.303 279.389C191.591 282.177 203.311 282.982 214.874 281.745C215.699 281.657 215.709 280.361 214.874 280.449Z" fill="#34AC7E"/>
<path opacity="0.3" d="M214.874 280.449C203.419 281.666 191.827 280.901 180.646 278.133C179.831 277.936 179.488 279.183 180.303 279.389C191.591 282.177 203.311 282.982 214.874 281.745C215.699 281.657 215.709 280.361 214.874 280.449Z" fill="black"/>
<path d="M178.085 190.064C178.085 190.064 177.29 186.128 174.227 183.949C171.165 181.77 166.502 182.594 165.56 183.949C164.627 185.293 165.992 186.452 165.992 186.452C165.992 186.452 164.411 186.923 164.254 187.855C164.097 188.788 165.039 191.399 166.885 192.194C168.73 192.999 177.398 191.34 177.574 191.301C177.761 191.262 178.075 190.064 178.075 190.064H178.085Z" fill="#FFC3BD"/>
<path d="M178.86 191.026C178.86 191.026 182.747 190.025 184.77 186.854C186.792 183.683 185.722 179.06 184.328 178.206C182.934 177.342 181.844 178.766 181.844 178.766C181.844 178.766 181.295 177.215 180.352 177.107C179.41 176.999 176.995 178.137 176.151 179.963C173.069 186.599 177.555 190.417 177.594 190.594C177.643 190.771 178.86 191.036 178.86 191.036V191.026Z" fill="#FFC3BD"/>
<path d="M176.504 190.525C176.504 190.525 169.466 190.064 167.14 194.844C164.813 199.625 165.805 200.194 166.953 200.38C168.102 200.567 168.867 200.881 168.867 200.881C168.867 200.881 168.308 202.815 170.31 203.08C172.313 203.345 173.834 202.344 176.161 200.282C178.497 198.231 178.35 191.988 178.026 191.153C178.026 191.153 178.458 190.476 176.494 190.535L176.504 190.525Z" fill="#FFC3BD"/>
<path d="M179.194 191.262C179.194 191.262 181.374 187.895 185.015 186.972C188.657 186.059 192.701 188.533 193.084 190.123C193.467 191.713 191.769 192.302 191.769 192.302C191.769 192.302 193.064 193.313 192.868 194.246C192.672 195.178 190.846 197.259 188.834 197.328C186.821 197.397 179.361 192.695 179.204 192.597C179.047 192.498 179.194 191.262 179.194 191.262Z" fill="#FFC3BD"/>
<path d="M180.185 192.439C180.185 192.439 186.9 194.579 187.322 199.88C187.744 205.181 186.605 205.347 185.476 205.102C184.338 204.857 183.513 204.867 183.513 204.867C183.513 204.867 183.327 206.879 181.363 206.388C179.4 205.897 178.36 204.415 176.936 201.647C175.513 198.879 177.928 193.127 178.536 192.459C178.536 192.459 178.379 191.664 180.185 192.439Z" fill="#FFC3BD"/>
<path d="M181.933 192.351C181.324 193.853 179.606 194.579 178.104 193.971C176.603 193.362 175.876 191.644 176.485 190.142C177.093 188.641 178.811 187.914 180.313 188.523C181.815 189.131 182.541 190.849 181.933 192.351Z" fill="#EB7E7B"/>
<path opacity="0.2" d="M183.327 193.961C185.634 194.933 187.185 197.603 186.89 200.086C185.928 197.779 184.868 195.934 183.327 193.961Z" fill="white"/>
<path opacity="0.2" d="M184.78 180.022C186.085 182.152 185.791 185.235 184.103 187.07C184.672 184.636 184.878 182.516 184.78 180.022Z" fill="white"/>
<path opacity="0.2" d="M171.646 183.242C174.139 183.369 176.514 185.342 177.084 187.777C175.395 185.931 173.766 184.567 171.646 183.242Z" fill="white"/>
<path opacity="0.2" d="M167.18 195.296C167.965 192.921 170.497 191.154 173.001 191.252C170.772 192.4 169.025 193.608 167.18 195.296Z" fill="white"/>
<path d="M195.077 249.058C195.077 249.058 193.29 246.83 190.65 246.447C188.009 246.064 185.329 248.106 185.172 249.264C185.025 250.412 186.262 250.707 186.262 250.707C186.262 250.707 185.418 251.522 185.624 252.16C185.83 252.798 187.273 254.142 188.696 254.044C190.12 253.946 195.057 250.079 195.165 250C195.263 249.922 195.077 249.048 195.077 249.048V249.058Z" fill="#FFC3BD"/>
<path d="M195.881 249.411C195.881 249.411 198.011 247.517 198.257 244.857C198.502 242.196 196.323 239.625 195.155 239.536C193.997 239.448 193.771 240.695 193.771 240.695C193.771 240.695 192.917 239.89 192.289 240.135C191.66 240.371 190.512 241.882 190.561 243.306C190.777 248.498 194.851 249.45 194.939 249.549C195.027 249.647 195.881 249.411 195.881 249.411Z" fill="#FFC3BD"/>
<path d="M194.232 249.863C194.232 249.863 189.639 251.865 189.727 255.644C189.815 259.423 190.63 259.453 191.415 259.198C192.2 258.942 192.78 258.893 192.78 258.893C192.78 258.893 193.054 260.297 194.409 259.806C195.764 259.315 196.392 258.196 197.197 256.135C198.002 254.074 195.881 250.187 195.4 249.755C195.4 249.755 195.45 249.185 194.232 249.863Z" fill="#FFC3BD"/>
<path d="M196.177 249.451C196.177 249.451 196.452 246.614 198.454 244.847C200.457 243.08 203.823 243.325 204.579 244.209C205.335 245.092 204.461 246.015 204.461 246.015C204.461 246.015 205.61 246.231 205.787 246.889C205.963 247.536 205.482 249.451 204.245 250.147C202.999 250.844 196.756 250.305 196.618 250.295C196.491 250.285 196.177 249.451 196.177 249.451Z" fill="#FFC3BD"/>
<path d="M197.178 249.863C197.178 249.863 202.115 249.028 204.108 252.238C206.1 255.448 205.443 255.919 204.638 256.135C203.843 256.351 203.322 256.626 203.322 256.626C203.322 256.626 203.862 257.951 202.459 258.285C201.055 258.609 199.916 258.02 198.12 256.734C196.324 255.448 195.97 251.031 196.137 250.412C196.137 250.412 195.784 249.961 197.168 249.863H197.178Z" fill="#FFC3BD"/>
<path d="M198.257 249.245C198.365 250.393 197.511 251.414 196.363 251.512C195.214 251.62 194.193 250.766 194.095 249.618C193.987 248.469 194.841 247.448 195.99 247.35C197.138 247.242 198.159 248.096 198.257 249.245Z" fill="#EB7E7B"/>
<path opacity="0.2" d="M199.661 249.804C201.457 249.49 203.44 250.746 203.902 252.513C202.39 251.473 201.242 250.727 199.661 249.804Z" fill="white"/>
<path opacity="0.2" d="M196.038 240.538C197.687 241.333 198.561 243.502 197.903 245.21C197.285 243.492 196.774 242.206 196.038 240.538Z" fill="white"/>
<path opacity="0.2" d="M188.794 246.849C190.374 245.936 192.661 246.437 193.712 247.949C191.935 247.487 190.6 247.183 188.794 246.849Z" fill="white"/>
<path opacity="0.2" d="M189.893 255.909C189.432 254.143 190.521 252.071 192.249 251.463C191.336 253.053 190.688 254.26 189.893 255.909Z" fill="white"/>
<path d="M165.933 262.025C165.933 262.025 164.755 260.552 162.998 260.297C161.24 260.042 159.474 261.396 159.366 262.162C159.267 262.928 160.082 263.114 160.082 263.114C160.082 263.114 159.523 263.654 159.66 264.076C159.798 264.498 160.75 265.391 161.702 265.323C162.644 265.264 165.923 262.692 165.982 262.643C166.05 262.584 165.923 262.015 165.923 262.015L165.933 262.025Z" fill="#FFC3BD"/>
<path d="M166.462 262.26C166.462 262.26 167.875 261.004 168.032 259.237C168.19 257.47 166.747 255.772 165.981 255.713C165.215 255.654 165.058 256.479 165.058 256.479C165.058 256.479 164.489 255.949 164.077 256.106C163.655 256.263 162.899 257.264 162.938 258.206C163.075 261.652 165.785 262.28 165.844 262.349C165.902 262.417 166.472 262.26 166.472 262.26H166.462Z" fill="#FFC3BD"/>
<path d="M165.374 262.555C165.374 262.555 162.331 263.88 162.39 266.383C162.448 268.886 162.988 268.906 163.509 268.739C164.029 268.572 164.412 268.533 164.412 268.533C164.412 268.533 164.598 269.465 165.491 269.141C166.385 268.817 166.807 268.071 167.337 266.707C167.867 265.342 166.463 262.761 166.149 262.476C166.149 262.476 166.178 262.093 165.374 262.545V262.555Z" fill="#FFC3BD"/>
<path d="M166.659 262.28C166.659 262.28 166.846 260.395 168.171 259.227C169.496 258.059 171.724 258.226 172.225 258.805C172.725 259.394 172.146 260.003 172.146 260.003C172.146 260.003 172.912 260.15 173.03 260.582C173.148 261.014 172.833 262.28 172.009 262.741C171.184 263.203 167.042 262.849 166.954 262.839C166.865 262.839 166.659 262.28 166.659 262.28Z" fill="#FFC3BD"/>
<path d="M167.325 262.564C167.325 262.564 170.604 262.015 171.919 264.135C173.235 266.265 172.803 266.579 172.273 266.717C171.743 266.864 171.399 267.041 171.399 267.041C171.399 267.041 171.752 267.924 170.83 268.14C169.897 268.356 169.141 267.963 167.954 267.109C166.766 266.255 166.53 263.33 166.638 262.918C166.638 262.918 166.403 262.623 167.325 262.555V262.564Z" fill="#FFC3BD"/>
<path d="M168.042 262.152C168.111 262.918 167.552 263.585 166.786 263.654C166.02 263.723 165.353 263.163 165.284 262.398C165.215 261.632 165.775 260.965 166.54 260.896C167.306 260.827 167.974 261.387 168.042 262.152Z" fill="#EB7E7B"/>
<path opacity="0.2" d="M166.57 256.371C167.817 256.744 168.455 258.344 167.807 259.472C167.179 258.334 166.904 257.627 166.57 256.371Z" fill="white"/>
<path opacity="0.2" d="M161.77 260.562C162.781 259.747 164.459 260.12 165.028 261.288C163.733 261.161 162.997 260.994 161.77 260.562Z" fill="white"/>
<path opacity="0.2" d="M162.497 266.569C161.977 265.382 162.782 263.86 164.058 263.625C163.597 264.842 163.233 265.509 162.497 266.569Z" fill="white"/>
<path opacity="0.1" d="M94.1777 315.973H179.282L178.271 321.922H95.1397L94.1777 315.973Z" fill="black"/>
<path opacity="0.3" d="M96.2588 104.626L98.5459 100.287L97.8784 112.969L96.2588 104.626Z" fill="black"/>
<path opacity="0.3" d="M137.741 84.8561L136.239 78.731L139.42 83.5015L137.741 84.8561Z" fill="black"/>
</svg>
