<svg width="315" height="277" viewBox="0 0 315 277" fill="none" xmlns="http://www.w3.org/2000/svg">
<path d="M31.6145 33.7927C53.7632 -13.3684 132.41 -6.71267 162.777 26.4548C193.144 59.6222 202.997 80.8744 230.373 68.4991C257.75 56.1238 292.662 59.4239 294.63 98.771C296.597 138.118 264.572 184.66 213.659 198.408C162.745 212.156 162.777 260.888 95.3474 251.059C58.6102 245.696 57.7772 205.952 62.9653 173.078C68.1534 140.205 5.93575 88.49 31.6145 33.7927Z" fill="#3CC18E"/>
<path opacity="0.9" d="M31.6145 33.7927C53.7632 -13.3684 132.41 -6.71267 162.777 26.4548C193.144 59.6222 202.997 80.8744 230.373 68.4991C257.75 56.1238 292.662 59.4239 294.63 98.771C296.597 138.118 264.572 184.66 213.659 198.408C162.745 212.156 162.777 260.888 95.3474 251.059C58.6102 245.696 57.7772 205.952 62.9653 173.078C68.1534 140.205 5.93575 88.49 31.6145 33.7927Z" fill="white"/>
<path d="M161.19 276.333C246.137 276.333 315.001 272.313 315.001 267.353C315.001 262.393 246.137 258.373 161.19 258.373C76.2424 258.373 7.37891 262.393 7.37891 267.353C7.37891 272.313 76.2424 276.333 161.19 276.333Z" fill="#E3E6EA"/>
<path d="M286.433 243.824H286.472C286.647 243.824 286.766 243.681 286.742 243.562C286.718 243.443 286.671 243.086 286.576 242.341C286.433 241.206 286.163 238.787 286.036 235.455V235.304C285.893 231.393 285.981 227.482 286.306 223.587C286.607 219.795 287.139 216.027 287.892 212.299C288.598 208.896 289.511 205.54 290.629 202.256C290.804 201.748 290.986 201.232 291.177 200.725C291.367 200.217 291.486 199.884 291.653 199.455C292.089 198.353 292.446 197.29 292.819 196.282C293.612 194.069 294.278 191.824 294.865 189.611C295.222 188.262 295.548 186.929 295.817 185.644C296.944 180.488 297.579 175.244 297.729 169.969C297.793 167.771 297.729 165.55 297.626 163.369C297.491 161.005 297.229 158.657 296.833 156.324C296.833 156.158 296.777 155.999 296.753 155.848L296.714 155.618C296.714 155.372 296.508 155.174 296.262 155.182C296.127 155.182 296 155.245 295.921 155.349C295.802 155.468 295.754 155.642 295.794 155.801L295.841 156.031C295.841 156.189 295.889 156.356 295.928 156.523C296.317 158.823 296.587 161.14 296.722 163.464C296.857 165.622 296.896 167.819 296.841 170.001C296.706 175.228 296.087 180.432 294.992 185.549C294.723 186.826 294.413 188.151 294.056 189.516C293.485 191.721 292.803 193.95 292.041 196.155C291.708 197.147 291.319 198.21 290.891 199.329C290.724 199.757 290.566 200.185 290.415 200.606C290.264 201.026 290.042 201.637 289.868 202.145C288.741 205.453 287.837 208.832 287.139 212.259C286.377 216.011 285.854 219.803 285.552 223.619C285.243 227.53 285.171 231.449 285.322 235.368C285.322 235.423 285.322 235.487 285.322 235.542C285.457 238.874 285.735 241.294 285.878 242.436C285.973 243.229 286.044 243.65 286.052 243.689C286.06 243.729 286.274 243.832 286.433 243.824Z" fill="#3CC18E"/>
<path d="M296.31 155.785C295.532 155.103 294.676 154.508 293.755 154.032C292.724 153.5 291.637 153.096 290.503 152.85" fill="#3CC18E"/>
<path d="M296.31 156.229C296.373 156.229 296.437 156.213 296.492 156.182C296.722 156.086 296.825 155.817 296.73 155.587C296.706 155.539 296.675 155.491 296.635 155.452L296.587 155.412C295.786 154.698 294.898 154.087 293.946 153.587C292.883 153.032 291.748 152.628 290.582 152.366C290.328 152.318 290.082 152.469 290.019 152.715C289.956 152.945 290.098 153.183 290.328 153.246C290.328 153.246 290.344 153.246 290.352 153.246C292.431 153.699 294.358 154.674 295.953 156.078C296.048 156.174 296.175 156.229 296.31 156.221V156.229Z" fill="#3CC18E"/>
<path d="M297.223 163.821C297.326 163.821 297.429 163.773 297.508 163.71L300.539 161.171C300.721 161.029 300.753 160.759 300.61 160.569C300.61 160.569 300.61 160.569 300.61 160.561C300.428 160.394 300.158 160.394 299.975 160.561L296.945 163.107C296.771 163.242 296.731 163.496 296.866 163.67C296.866 163.678 296.882 163.686 296.89 163.702C296.977 163.789 297.104 163.837 297.231 163.821H297.223Z" fill="#3CC18E"/>
<path d="M292.486 196.56C292.693 196.552 292.859 196.393 292.875 196.187C292.764 195.56 292.566 194.958 292.296 194.386C291.915 193.545 291.392 192.768 290.757 192.094C290.257 191.562 289.694 191.086 289.083 190.674C288.901 190.555 288.663 190.579 288.512 190.737C288.393 190.856 288.393 191.055 288.512 191.174C288.528 191.189 288.552 191.205 288.568 191.221C289.131 191.602 289.647 192.038 290.115 192.53C290.71 193.157 291.193 193.871 291.55 194.656C291.796 195.164 291.979 195.695 292.09 196.243C292.09 196.425 292.256 196.544 292.471 196.544L292.486 196.56Z" fill="#3CC18E"/>
<path d="M290.289 202.502C290.44 202.502 290.566 202.415 290.638 202.288C291.463 200.796 292.835 199.686 294.469 199.186C294.644 199.146 294.755 198.972 294.715 198.797C294.715 198.789 294.715 198.773 294.707 198.766C294.612 198.583 294.406 198.504 294.216 198.583C292.383 199.138 290.844 200.392 289.924 202.074C289.86 202.224 289.924 202.399 290.075 202.462C290.09 202.462 290.114 202.478 290.13 202.478L290.289 202.502Z" fill="#3CC18E"/>
<path d="M285.735 228.141C286.529 227.451 287.1 224.841 287.433 223.421C287.512 223.072 287.584 222.778 287.639 222.564" fill="#3CC18E"/>
<path d="M285.735 228.395C285.831 228.395 285.918 228.363 285.989 228.299C286.782 227.617 287.298 225.459 287.766 223.452C287.845 223.111 287.917 222.818 287.972 222.612C288.028 222.405 287.885 222.326 287.695 222.302C287.52 222.262 287.338 222.358 287.274 222.524C287.219 222.738 287.147 223.032 287.068 223.381C286.767 224.682 286.156 227.347 285.482 227.982C285.386 228.053 285.37 228.188 285.442 228.284C285.466 228.315 285.489 228.331 285.529 228.347C285.593 228.379 285.664 228.395 285.735 228.395Z" fill="#3CC18E"/>
<path d="M294.509 189.912C294.707 189.912 294.874 189.769 294.906 189.571C294.953 188.992 295.905 174.649 286.528 168.985C286.322 168.866 286.06 168.914 285.918 169.104C285.791 169.271 285.83 169.509 285.997 169.636C286.013 169.644 286.029 169.659 286.045 169.667C295.017 175.07 294.104 189.428 294.096 189.563C294.096 189.753 294.255 189.912 294.446 189.912C294.453 189.912 294.469 189.912 294.477 189.912H294.509Z" fill="#3CC18E"/>
<path d="M294.175 216.305C295.095 218.867 287.829 223.778 287.829 223.778C287.829 223.778 278.468 223.088 277.373 220.605C276.279 218.122 278.595 213.719 283.323 212.481C288.051 211.244 293.231 213.679 294.175 216.305Z" fill="#3CC18E"/>
<path d="M304.989 179.592C303.664 183.249 295.747 185.89 295.747 185.89C295.747 185.89 290.464 180.385 291.622 176.641C292.78 172.896 297.516 168.383 301.324 169.263C305.132 170.144 306.361 175.831 304.989 179.592Z" fill="#3CC18E"/>
<path d="M284.085 191.237C285.077 191.927 286.171 192.443 287.338 192.76C288.551 193.077 289.844 192.792 290.82 192.006C291.867 190.983 291.613 189.412 291.018 188.183C289.781 185.716 284.981 181.448 281.237 182.757C275.882 184.661 281.769 189.785 284.085 191.237Z" fill="#3CC18E"/>
<path d="M294.533 197.076C293.843 197.782 293.105 198.662 293.438 199.456C293.771 200.249 294.795 200.495 295.723 200.36C296.627 200.177 297.492 199.82 298.261 199.305C300.11 198.25 303.941 195.989 301.72 193.942C299.38 191.8 296.048 195.576 294.533 197.076Z" fill="#3CC18E"/>
<path d="M278.841 164.249C277.968 164.289 277.215 164.884 276.969 165.725C276.818 166.669 277.667 167.486 278.484 168.049C280.507 169.453 286.417 173.158 287.805 169.493C289.122 165.947 281.522 163.94 278.841 164.249Z" fill="#3CC18E"/>
<path d="M290.312 150.946C288.995 151.081 287.694 150.621 286.385 150.716C285.076 150.811 283.609 151.874 283.902 153.096C284.196 154.317 285.624 154.611 286.829 154.682C288.884 154.785 290.939 154.619 292.954 154.198C293.437 154.151 293.882 153.929 294.215 153.572C294.762 152.778 293.961 151.795 293.065 151.525C292.168 151.255 291.153 151.366 290.344 150.914L290.312 150.946Z" fill="#3CC18E"/>
<path d="M302.545 159.458C303.814 159.458 305.076 158.942 306.353 158.926C307.63 158.91 309.026 159.783 308.733 160.989C308.439 162.195 307.043 162.575 305.877 162.71C303.91 162.98 301.918 162.996 299.943 162.766C299.491 162.766 299.055 162.591 298.729 162.274C298.198 161.6 298.999 160.576 299.864 160.259C300.729 159.942 301.72 159.95 302.513 159.466H302.545V159.458Z" fill="#3CC18E"/>
<path d="M296.675 157.427C296.921 157.403 297.111 157.189 297.095 156.935C296.913 154.5 297.183 152.104 297.659 151.945C297.905 151.866 298.039 151.604 297.976 151.358C297.905 151.128 297.659 151.001 297.429 151.073C297.421 151.073 297.413 151.073 297.405 151.081C295.921 151.58 296.056 155.436 296.183 157.046C296.215 157.284 296.429 157.459 296.667 157.427H296.675Z" fill="#3CC18E"/>
<path d="M295.786 151.7C296.651 149.931 297.595 148.058 299.237 146.884C300.879 145.71 303.465 145.591 304.52 147.178C305.694 148.939 304.227 151.604 302.22 152.548C300.213 153.492 297.952 153.231 295.826 152.953V152.017L295.786 151.7Z" fill="#3CC18E"/>
<path d="M285.854 251.083H285.91C286.076 251.083 286.187 250.94 286.148 250.829C283.538 243.269 276.581 240.096 276.509 240.064C276.359 239.993 276.176 240.024 276.049 240.135C275.954 240.239 275.994 240.381 276.152 240.453C280.484 242.65 283.831 246.394 285.537 250.94C285.6 251.051 285.727 251.107 285.854 251.083Z" fill="#3CC18E"/>
<path d="M278.389 241.659C278.508 241.659 278.619 241.595 278.683 241.492C278.738 241.373 278.643 241.246 278.469 241.214C277.318 241.056 276.144 241.087 275.002 241.309C274.827 241.309 274.716 241.468 274.764 241.587C274.843 241.73 275.002 241.793 275.161 241.754C276.184 241.555 277.239 241.516 278.278 241.651H278.389V241.659Z" fill="#3CC18E"/>
<path d="M279.976 242.84C280.151 242.84 280.285 242.729 280.285 242.61C280.285 239.493 277.636 237.137 277.525 237.057C277.382 236.97 277.192 236.97 277.049 237.057C276.946 237.097 276.898 237.216 276.938 237.319C276.946 237.351 276.969 237.375 276.993 237.391C276.993 237.391 279.595 239.723 279.627 242.682C279.627 242.801 279.778 242.904 279.96 242.896L279.976 242.84Z" fill="#3CC18E"/>
<path d="M282.498 245.3C282.577 245.3 282.657 245.276 282.72 245.228C282.807 245.181 282.839 245.077 282.792 244.99C282.776 244.958 282.752 244.935 282.72 244.919C281.332 244.173 279.714 243.999 278.198 244.419C278.032 244.459 277.945 244.586 278.008 244.705C278.111 244.832 278.278 244.879 278.429 244.824C279.722 244.467 281.102 244.625 282.284 245.252C282.347 245.284 282.427 245.308 282.498 245.3Z" fill="#3CC18E"/>
<path d="M283.792 246.997C283.903 246.997 284.007 246.942 284.07 246.855C284.689 245.704 284.847 244.372 284.522 243.11C284.451 242.975 284.3 242.904 284.149 242.936C283.967 242.936 283.848 243.078 283.88 243.197C284.173 244.379 284.038 245.625 283.483 246.704C283.42 246.815 283.483 246.942 283.658 246.981C283.697 246.997 283.745 246.997 283.792 246.997Z" fill="#3CC18E"/>
<path d="M285.061 248.655C285.061 248.655 285.307 248.838 284.403 248.925C282.181 249.139 278.255 249.322 276.7 248.132C274.455 246.41 279.397 246.236 278.865 245.22C278.334 244.205 273.051 245.434 271.892 243.999C270.734 242.563 274.629 242.571 274.423 241.777C274.217 240.984 270.131 242.317 268.616 240.754C267.101 239.191 270.814 239.818 270.163 239.168C269.513 238.517 264.523 235.867 266.371 235.05C268.22 234.233 272.916 237.065 274.391 237.295C275.867 237.525 276.018 234.424 278.001 235.328C279.984 236.232 278.913 240.841 281.118 241.23C282.753 241.524 281.816 240 283.831 239.921C286.568 239.802 287.504 245.823 285.061 248.655Z" fill="#3CC18E"/>
<g opacity="0.3">
<path d="M285.061 248.655C285.061 248.655 285.307 248.838 284.403 248.925C282.181 249.139 278.255 249.322 276.7 248.132C274.455 246.41 279.397 246.236 278.865 245.22C278.334 244.205 273.051 245.434 271.892 243.999C270.734 242.563 274.629 242.571 274.423 241.777C274.217 240.984 270.131 242.317 268.616 240.754C267.101 239.191 270.814 239.818 270.163 239.168C269.513 238.517 264.523 235.867 266.371 235.05C268.22 234.233 272.916 237.065 274.391 237.295C275.867 237.525 276.018 234.424 278.001 235.328C279.984 236.232 278.913 240.841 281.118 241.23C282.753 241.524 281.816 240 283.831 239.921C286.568 239.802 287.504 245.823 285.061 248.655Z" fill="white"/>
</g>
<path d="M286.1 251.249C286.219 251.249 286.338 251.194 286.393 251.083C288.567 244.617 295.12 240.064 295.199 240.024C295.286 239.969 295.318 239.85 295.262 239.763C295.247 239.739 295.223 239.715 295.199 239.699C295.056 239.612 294.874 239.612 294.731 239.699C294.659 239.747 287.964 244.395 285.759 250.996C285.759 251.115 285.83 251.218 285.997 251.241H286.1V251.249Z" fill="#3CC18E"/>
<path d="M291.011 243.316C291.011 243.205 291.066 243.086 291.225 243.047H291.265C292.502 242.666 293.779 242.468 295.072 242.452C295.247 242.452 295.39 242.547 295.374 242.674C295.358 242.801 295.207 242.896 295.033 242.896C293.835 242.912 292.645 243.102 291.503 243.451H291.368C291.233 243.499 291.082 243.443 291.011 243.316Z" fill="#3CC18E"/>
<path d="M290.074 244.625C290.249 244.625 290.383 244.499 290.368 244.38C290.098 241.849 292.089 239.667 292.113 239.62C292.184 239.548 292.184 239.421 292.113 239.35C292.089 239.326 292.057 239.31 292.026 239.302C291.867 239.239 291.692 239.271 291.566 239.382C291.478 239.477 289.432 241.722 289.725 244.411C289.757 244.546 289.9 244.633 290.074 244.625Z" fill="#3CC18E"/>
<path d="M288.781 246.117C288.86 246.117 288.932 246.093 288.995 246.053C289.979 245.45 291.153 245.22 292.295 245.419C292.446 245.458 292.605 245.395 292.692 245.26C292.747 245.141 292.644 245.022 292.478 244.998C291.113 244.768 289.717 245.054 288.551 245.792C288.472 245.831 288.432 245.926 288.472 246.014C288.487 246.045 288.519 246.077 288.551 246.093C288.622 246.125 288.702 246.133 288.781 246.117Z" fill="#3CC18E"/>
<path d="M287.164 248.528C287.211 248.536 287.251 248.536 287.298 248.528C287.457 248.465 287.513 248.338 287.441 248.235C286.846 247.362 286.6 246.299 286.751 245.26C286.751 245.141 286.632 245.038 286.457 245.03C286.307 245.006 286.156 245.093 286.108 245.244C285.974 246.363 286.251 247.497 286.902 248.417C286.973 248.489 287.068 248.528 287.164 248.528Z" fill="#3CC18E"/>
<path d="M286.219 250.194C288.337 250.012 290.368 249.242 292.074 247.973C293.295 246.878 289.956 247.616 290.32 246.767C290.685 245.918 294.771 246.442 295.596 245.181C296.421 243.919 293.422 244.284 293.565 243.642C293.708 242.999 296.825 243.063 297.904 241.698C298.983 240.334 296.191 241.143 296.659 240.572C297.127 240 300.792 237.502 299.356 237.018C297.92 236.534 294.477 239.152 293.367 239.461C292.256 239.77 292.066 238.033 290.598 238.898C289.131 239.762 290.114 243.285 288.456 243.784C287.219 244.149 287.766 242.539 286.338 242.991C283.855 243.769 285.521 250.202 286.219 250.194Z" fill="#3CC18E"/>
<g opacity="0.2">
<path d="M286.219 250.194C288.337 250.012 290.368 249.242 292.074 247.973C293.295 246.878 289.956 247.616 290.32 246.767C290.685 245.918 294.771 246.442 295.596 245.181C296.421 243.919 293.422 244.284 293.565 243.642C293.708 242.999 296.825 243.063 297.904 241.698C298.983 240.334 296.191 241.143 296.659 240.572C297.127 240 300.792 237.502 299.356 237.018C297.92 236.534 294.477 239.152 293.367 239.461C292.256 239.77 292.066 238.033 290.598 238.898C289.131 239.762 290.114 243.285 288.456 243.784C287.219 244.149 287.766 242.539 286.338 242.991C283.855 243.769 285.521 250.202 286.219 250.194Z" fill="white"/>
</g>
<path d="M273.407 266.742H297.483L299.76 252.035H271.13L273.407 266.742Z" fill="#934E42"/>
<path d="M270.497 255.43H300.396L301.974 246.061H268.918L270.497 255.43Z" fill="#CC753A"/>
<path d="M82.59 179.703H222.383C225.2 179.782 227.54 181.884 227.936 184.669L235.869 249.488H86.1915L78.2586 184.669C77.8937 182.32 79.5041 180.115 81.8601 179.75C82.1061 179.711 82.352 179.695 82.59 179.703Z" fill="#CC753A"/>
<path opacity="0.2" d="M101.327 249.488H86.1915L78.2586 184.669C77.8937 182.32 79.5041 180.115 81.8522 179.75C82.1061 179.711 82.3599 179.695 82.6217 179.703H87.8257C90.6419 179.79 92.9821 181.884 93.3787 184.669L101.327 249.488Z" fill="#263238"/>
<path d="M90.5784 266.742H95.8855L98.0512 250.179H88.9521L90.5784 266.742Z" fill="#934E42"/>
<path d="M113.861 266.742H119.169L121.334 250.179H112.243L113.861 266.742Z" fill="#934E42"/>
<path d="M224.843 266.742H230.15L232.316 250.179H223.217L224.843 266.742Z" fill="#934E42"/>
<path d="M248.125 266.742H253.432L255.598 250.179H246.507L248.125 266.742Z" fill="#934E42"/>
<path d="M86.6836 249.131L87.1596 255.232C87.1913 255.684 87.5641 256.025 88.0163 256.025H256.13C256.582 256.025 256.955 255.684 256.987 255.232L257.463 249.131H86.6836Z" fill="#934E42"/>
<path opacity="0.2" d="M109.704 249.131L110.188 255.232C110.22 255.676 110.593 256.025 111.037 256.025H256.129C256.582 256.025 256.954 255.684 256.986 255.232L257.462 249.131H109.704Z" fill="white"/>
<path d="M106.587 235.058H223.772L225.945 210.212C226.358 205.27 230.499 201.47 235.465 201.486H267.276C269.489 201.502 271.274 203.303 271.258 205.516C271.258 205.627 271.258 205.73 271.242 205.841L270.742 211.561C270.576 213.441 269.132 214.948 267.26 215.186L266.125 215.329C264.721 215.512 263.642 216.646 263.523 218.058L260.779 249.409C260.58 251.694 258.661 253.455 256.368 253.447H106.587V235.058Z" fill="#E4944B"/>
<path opacity="0.2" d="M247.967 210.212C248.38 205.27 252.521 201.47 257.487 201.486H235.441C230.475 201.47 226.334 205.27 225.922 210.212L223.748 235.058H245.77L247.967 210.212Z" fill="#263238"/>
<path d="M223.241 190.365C222.051 188.929 219.917 188.73 218.481 189.92H218.441C217.513 190.714 216.53 191.547 215.554 192.3C214.578 193.054 213.602 193.887 212.619 194.68C211.635 195.473 210.643 196.195 209.66 196.885C209.017 197.322 208.382 197.742 207.756 198.115L207.645 198.044C207.05 197.631 206.471 197.187 205.923 196.711C204.757 195.735 203.543 194.68 202.409 193.593C201.275 192.506 200.077 191.412 198.903 190.301L195.372 187.041C194.698 186.398 193.627 186.422 192.985 187.104C192.445 187.675 192.366 188.54 192.794 189.19C193.699 190.587 194.659 191.911 195.626 193.244C196.594 194.577 197.625 195.87 198.681 197.155C199.736 198.44 200.83 199.702 202.036 200.939C202.647 201.558 203.274 202.169 204.003 202.787C204.4 203.129 204.821 203.438 205.265 203.724C205.558 203.914 205.868 204.081 206.193 204.223C206.788 204.501 207.438 204.636 208.097 204.612C208.367 204.604 208.636 204.549 208.89 204.453L209.096 204.374C210.469 203.835 211.802 203.176 213.063 202.407C214.285 201.693 215.443 200.931 216.545 200.146C217.648 199.36 218.743 198.559 219.798 197.687C220.853 196.814 221.868 195.997 222.9 195.029C224.232 193.807 224.383 191.761 223.241 190.365Z" fill="#F7BA34"/>
<path opacity="0.1" d="M223.241 190.365C222.051 188.929 219.917 188.73 218.481 189.92H218.441C217.513 190.714 216.53 191.547 215.554 192.3C214.578 193.054 213.602 193.887 212.619 194.68C211.635 195.473 210.643 196.195 209.66 196.885C209.017 197.322 208.382 197.742 207.756 198.115L207.645 198.044C207.05 197.631 206.471 197.187 205.923 196.711C204.757 195.735 203.543 194.68 202.409 193.593C201.275 192.506 200.077 191.412 198.903 190.301L195.372 187.041C194.698 186.398 193.627 186.422 192.985 187.104C192.445 187.675 192.366 188.54 192.794 189.19C193.699 190.587 194.659 191.911 195.626 193.244C196.594 194.577 197.625 195.87 198.681 197.155C199.736 198.44 200.83 199.702 202.036 200.939C202.647 201.558 203.274 202.169 204.003 202.787C204.4 203.129 204.821 203.438 205.265 203.724C205.558 203.914 205.868 204.081 206.193 204.223C206.788 204.501 207.438 204.636 208.097 204.612C208.367 204.604 208.636 204.549 208.89 204.453L209.096 204.374C210.469 203.835 211.802 203.176 213.063 202.407C214.285 201.693 215.443 200.931 216.545 200.146C217.648 199.36 218.743 198.559 219.798 197.687C220.853 196.814 221.868 195.997 222.9 195.029C224.232 193.807 224.383 191.761 223.241 190.365Z" fill="#263238"/>
<path d="M219.726 199.091C219.44 199.067 219.155 199.011 218.877 198.924C217.402 198.369 216.045 197.568 214.847 196.544C213.824 195.727 212.84 194.855 211.92 193.926C211.92 193.926 219.099 184.359 224.739 185.359C228.73 188.826 225.446 193.617 219.726 199.091Z" fill="#3CC18E"/>
<path opacity="0.2" d="M221.225 193.387C221.122 195.465 220.273 197.433 218.845 198.94C217.37 198.385 216.013 197.583 214.815 196.56C217.029 192.887 221.225 193.387 221.225 193.387Z" fill="#263238"/>
<path d="M167.471 211.815C172.176 211.545 194.134 213.576 194.134 213.576L201.599 214.568L203.233 214.806C203.233 214.806 202.86 215.282 202.321 216.035C200.734 218.264 197.672 222.889 198.457 224.809C199.655 227.712 208.032 231.211 210.357 232.147L210.967 232.385L210.507 232.448C200.718 233.837 181.711 227.34 172.469 223.992C169.415 222.881 167.424 222.12 167.186 222.088C166.948 222.056 166.4 211.878 167.471 211.815Z" fill="#F5B8A3"/>
<path d="M203.876 213.56L191.611 212.894L189.557 231.409L201.242 234.011L203.876 213.56Z" fill="#263238"/>
<path d="M189.977 212.426L193.086 212.489L189.977 231.616L187.137 230.537L189.977 212.426Z" fill="#3CC18E"/>
<path opacity="0.1" d="M172.485 223.976C181.727 227.324 200.734 233.821 210.524 232.433L210.373 232.131L202.321 216.019L200.909 218.106C200.909 218.106 185.535 217.614 172.485 223.976Z" fill="#263238"/>
<path d="M214.244 210.046C209.913 211.22 205.684 212.735 201.599 214.576C200.345 216.765 199.433 219.137 198.886 221.604C197.743 228.672 198.925 237.28 208.199 237.47C221.685 237.7 226.445 233.646 229.499 215.932L214.244 210.046Z" fill="#263238"/>
<path d="M118.882 226.031C118.882 227.681 118.882 229.156 118.93 230.521C118.93 232.179 118.93 233.694 118.978 235.098C118.978 237.613 121.818 235.455 126.189 235.17H126.633C126.696 235.17 126.752 235.066 126.776 234.908C126.887 233.607 126.887 232.306 126.776 231.005C126.022 230.307 125.3 229.561 124.626 228.784C123.388 227.379 122.016 225.499 121.595 223.81C120.794 220.51 118.843 222.358 118.882 226.031Z" fill="#F7BA34"/>
<path d="M125.49 230.973L125.538 235.027L126.284 235.114H126.609C131.757 235.701 154.199 238.018 166.273 235.558C166.273 235.558 203.939 237.042 210.769 237.058C217.599 237.074 221.391 227.808 218.099 222.263C216.171 219.018 213.268 216.297 203.463 218.606C193.658 220.914 172.746 226.808 164.956 227.816C164.956 227.816 154.049 230.156 135.819 230.791C132.971 230.886 129.941 230.941 126.752 230.941L125.49 230.973Z" fill="#F5B8A3"/>
<path opacity="0.1" d="M118.882 226.031C118.882 227.681 118.882 229.156 118.93 230.521C118.93 232.179 118.93 233.694 118.978 235.098C118.978 237.613 121.818 235.455 126.189 235.17L126.316 235.114L126.784 234.884C130.044 233.297 133.392 231.838 135.843 230.822C132.995 230.918 129.965 230.973 126.776 230.973C126.022 230.275 125.3 229.529 124.626 228.752C123.388 227.348 122.016 225.468 121.595 223.778C120.794 220.51 118.843 222.358 118.882 226.031Z" fill="#263238"/>
<path d="M120.842 233.297C121.271 233.162 120.842 228.538 120.842 228.538C120.842 228.538 114.885 226.602 113.219 223.675C111.553 220.748 110.181 223.064 111.212 226.578C112.243 230.092 113.044 232.782 113.774 235.304C114.504 237.827 116.432 234.709 120.842 233.297Z" fill="#F5B8A3"/>
<path d="M167.472 211.815C168.313 211.767 167.4 222.128 167.202 222.072C166.099 221.969 118.074 233.971 118.074 233.971L116.701 230.156C116.701 230.156 162.775 212.077 167.472 211.815Z" fill="#F5B8A3"/>
<path d="M211.538 216.313L194.284 220.359L197.679 237.708C197.679 237.708 216.108 239.556 220.487 235.122C224.865 230.687 220.725 217.44 211.538 216.313Z" fill="#263238"/>
<path d="M192.817 220.264L195.784 219.32L198.989 238.43L195.959 238.327L192.817 220.264Z" fill="#3CC18E"/>
<path d="M238.36 190.214C238.28 190.214 238.209 190.166 238.201 190.087C238.201 190.047 238.209 190.008 238.241 189.976C245.777 179.798 242.747 170.588 242.715 170.501C242.691 170.421 242.731 170.334 242.81 170.31C242.882 170.278 242.969 170.31 243.001 170.39C243.001 170.39 243.001 170.39 243.001 170.397C243.001 170.493 246.11 179.853 238.479 190.158C238.455 190.198 238.407 190.214 238.36 190.214Z" fill="#263238"/>
<path d="M239.526 164.257C242.898 165.55 245.278 172.706 242.105 180.853C239.971 186.089 237.202 191.039 233.854 195.6L223.431 191.975C223.431 191.975 227.207 159.482 239.526 164.257Z" fill="#263238"/>
<path d="M243.342 194.973C243.16 195.672 242.937 196.401 242.668 197.147C241.906 199.21 241.002 201.209 239.955 203.136C239.51 203.993 239.034 204.842 238.543 205.683C238.336 206.048 238.122 206.413 237.908 206.77L237.781 206.976C235.195 211.196 232.284 215.194 229.055 218.947L214.244 210.046C214.244 210.046 217.116 198.94 217.869 196.6C218.409 194.831 219.075 193.109 219.877 191.443C221.225 188.683 222.82 186.739 224.636 186.549C225.382 186.477 226.175 186.446 227.016 186.438H228.063C231.8 186.62 235.512 187.088 239.169 187.85L239.677 187.953C241.7 188.365 243.025 188.699 243.025 188.699C244.032 190.214 244 192.427 243.342 194.973Z" fill="#3CC18E"/>
<path d="M239.209 165.788C239.209 165.788 240.684 162.235 234.838 160.664C228.991 159.093 221.352 164.257 221.4 173.475C221.447 182.693 223.534 185.605 220.709 190.269C217.885 194.934 219.781 196.703 221.376 197.798C220.836 197.084 220.733 196.132 221.106 195.315C221.804 194.125 226.215 194.299 226.937 189.571C227.659 184.843 233.156 185.605 233.156 185.605L239.209 165.788Z" fill="#263238"/>
<path d="M236.947 188.627C236.947 188.627 235.131 190.42 230.228 190.158C230.228 190.158 228.134 188.167 229.49 186.453C229.49 186.453 230.585 186.311 231.077 184.708C231.394 183.558 231.458 182.36 231.259 181.186C231.259 181.004 231.212 180.797 231.18 180.599L237.931 177.91C237.931 177.91 234.433 185.208 236.947 188.627Z" fill="#F5B8A3"/>
<path d="M219.099 191.142C219.059 191.15 219.012 191.15 218.972 191.142C218.893 191.118 218.853 191.031 218.877 190.951C218.901 190.88 218.98 190.832 219.059 190.864C219.059 190.864 219.059 190.864 219.067 190.864C219.171 190.864 219.274 190.832 219.345 190.753C219.861 190.325 220.979 188.199 220.178 177.838C219.099 163.837 230.872 160.949 230.998 160.925C231.078 160.909 231.157 160.957 231.173 161.036C231.189 161.116 231.141 161.195 231.062 161.211C230.951 161.211 219.44 164.075 220.495 177.791C221.289 188.016 220.218 190.483 219.52 190.983C219.401 191.086 219.25 191.142 219.099 191.142Z" fill="#263238"/>
<path opacity="0.2" d="M236.202 179.901C236.202 179.901 235.084 184.177 231.109 184.748C231.427 183.598 231.49 182.4 231.292 181.226C233.719 180.433 236.202 179.901 236.202 179.901Z" fill="#263238"/>
<path d="M232.585 164.551C227.476 164.495 225.802 167.208 225.374 172.484C224.834 179.06 226.238 183.748 232.64 182.408C241.311 180.575 241.065 164.638 232.585 164.551Z" fill="#F5B8A3"/>
<path d="M228.674 172.222C228.254 172.984 227.754 173.69 227.167 174.324C227.468 174.761 227.984 174.983 228.508 174.911L228.674 172.222Z" fill="#E4944B"/>
<path d="M231.792 171.833C231.792 172.254 231.99 172.627 232.268 172.627C232.546 172.627 232.792 172.301 232.807 171.881C232.823 171.46 232.601 171.088 232.324 171.088C232.046 171.088 231.792 171.413 231.792 171.833Z" fill="#263238"/>
<path d="M232.458 171.119L231.554 170.731C231.554 170.731 231.982 171.508 232.458 171.119Z" fill="#263238"/>
<path d="M226.596 171.572C226.596 171.992 226.794 172.365 227.08 172.365C227.365 172.365 227.595 172.04 227.611 171.619C227.627 171.199 227.405 170.826 227.127 170.826C226.85 170.826 226.612 171.175 226.596 171.572Z" fill="#263238"/>
<path d="M227.246 170.85L226.342 170.461C226.342 170.461 226.77 171.246 227.246 170.85Z" fill="#263238"/>
<path d="M234.1 169.319C234.037 169.319 233.973 169.295 233.934 169.239C233.402 168.708 232.664 168.446 231.919 168.525C231.8 168.533 231.696 168.454 231.681 168.335C231.665 168.216 231.752 168.105 231.871 168.089C232.759 167.994 233.64 168.319 234.251 168.969C234.322 169.073 234.298 169.207 234.195 169.279C234.164 169.303 234.116 169.319 234.076 169.319H234.1Z" fill="#263238"/>
<path d="M226.143 168.668C226.072 168.668 226 168.629 225.961 168.565C225.897 168.47 225.929 168.335 226.024 168.272C226.667 167.796 227.492 167.637 228.261 167.851C228.372 167.891 228.428 168.018 228.388 168.129C228.349 168.24 228.222 168.295 228.111 168.256C227.468 168.097 226.794 168.232 226.262 168.629C226.23 168.66 226.183 168.668 226.143 168.668Z" fill="#263238"/>
<path d="M238.074 173.214C238.074 173.214 235.695 168.993 236.123 165.757C236.123 165.757 226.048 161.513 225.437 171.778C225.437 171.778 224.549 162.647 233.33 162.544C242.112 162.441 241.938 175.276 237.36 179.052C237.345 179.052 239.518 175.855 238.074 173.214Z" fill="#263238"/>
<path d="M237.226 174.284C237.345 173.055 238.431 172.151 239.661 172.262C241.248 172.452 241.961 175.712 238.019 176.45C237.448 176.553 237.138 175.998 237.226 174.284Z" fill="#F5B8A3"/>
<path d="M229.095 177.569C229.016 177.569 228.952 177.505 228.944 177.434C228.944 177.355 229 177.283 229.079 177.267C229.079 177.267 231.3 176.95 232.03 175.522C232.07 175.451 232.157 175.427 232.229 175.459C232.3 175.49 232.332 175.578 232.3 175.649C232.3 175.649 232.3 175.649 232.3 175.657C231.507 177.244 229.222 177.553 229.127 177.569H229.103H229.095Z" fill="#263238"/>
<path d="M192.128 179.901L193.953 179.108C193.953 179.108 195.888 179.37 196.332 180.988C196.332 180.988 204.122 178.497 207.105 179.108L207.938 181.305L207.145 188.001L194.968 185.454L192.128 179.901Z" fill="white"/>
<path d="M209.238 179.901C209.238 179.901 201.448 179.6 195.99 181.623C195.99 181.623 195.054 179.687 191.508 179.703C191.508 179.703 195.26 195.696 195.324 195.616C195.387 195.537 197.703 195.814 199.631 199.178C203.598 198.226 207.675 197.79 211.76 197.893L209.238 179.901Z" fill="#3CC18E"/>
<path opacity="0.8" d="M209.238 179.901C209.238 179.901 201.448 179.6 195.99 181.623C195.99 181.623 195.054 179.687 191.508 179.703C191.508 179.703 195.26 195.696 195.324 195.616C195.387 195.537 197.703 195.814 199.631 199.178C203.598 198.226 207.675 197.79 211.76 197.893L209.238 179.901Z" fill="white"/>
<path opacity="0.1" d="M195.99 181.607C195.99 181.607 195.054 179.671 191.508 179.687C191.508 179.687 195.26 195.68 195.324 195.6C195.387 195.521 197.703 195.799 199.631 199.162L195.99 181.607Z" fill="#263238"/>
<path d="M207.636 189.071L209.286 188.825C209.905 188.738 210.531 188.952 210.968 189.404L212.998 191.523C213.808 192.363 214.157 193.545 213.942 194.696L213.808 195.41C211.095 195.997 207.731 194.616 207.731 194.616L206.731 194.331C205.875 194.132 205.343 193.284 205.541 192.427C205.541 192.403 205.557 192.379 205.557 192.355L206.089 190.364C206.311 189.666 206.914 189.166 207.636 189.071Z" fill="#F5B8A3"/>
<path d="M192.128 187.985C191.866 187.025 190.787 184.327 192.5 183.487L194.27 184.716V189.42C194.27 189.42 192.675 189.992 192.128 187.985Z" fill="#F5B8A3"/>
<path opacity="0.2" d="M242.668 197.155C241.906 199.218 241.002 201.217 239.955 203.144C239.511 204.001 239.035 204.85 238.543 205.691C234.576 206.762 229.944 206.246 229.238 203.811C228.143 200.082 233.831 195.6 233.831 195.6C237.52 194.529 240.804 195.449 242.668 197.155Z" fill="#263238"/>
<path d="M241.35 200.273C240.327 201.233 239.304 202.058 238.257 202.93C237.209 203.803 236.123 204.596 235.004 205.382C233.885 206.167 232.743 206.968 231.514 207.643C230.252 208.412 228.927 209.07 227.547 209.61L227.341 209.689C227.087 209.784 226.817 209.84 226.548 209.848C225.889 209.864 225.239 209.737 224.636 209.467C224.318 209.316 224.009 209.15 223.715 208.967C223.271 208.682 222.851 208.364 222.454 208.023C221.724 207.405 221.098 206.794 220.487 206.175C219.281 204.945 218.194 203.668 217.131 202.399C216.068 201.13 215.061 199.813 214.077 198.488C213.093 197.163 212.149 195.83 211.245 194.434C210.721 193.665 210.928 192.61 211.697 192.086C212.364 191.634 213.252 191.713 213.823 192.276L217.337 195.6C218.512 196.703 219.67 197.814 220.844 198.893C222.018 199.971 223.224 201.026 224.35 202.01C224.937 202.494 225.524 202.962 226.072 203.335C226.349 203.517 226.611 203.684 226.809 203.787C227.008 203.89 226.976 203.859 226.968 203.843C226.738 203.74 226.484 203.692 226.23 203.724L225.207 203.962C226.206 203.43 227.166 202.827 228.094 202.177C229.078 201.494 230.07 200.741 231.053 199.979C232.037 199.218 233.013 198.393 233.989 197.599C234.964 196.806 235.948 195.965 236.876 195.22C238.28 193.982 240.422 194.117 241.66 195.521C242.897 196.925 242.762 199.067 241.358 200.305V200.273H241.35Z" fill="#F5B8A3"/>
<path d="M243.056 188.706C247.586 191.435 247.166 195.902 240.47 203.089C237.44 203.366 231.109 199.122 231.109 199.122C231.109 199.122 237.345 188.683 243.056 188.706Z" fill="#3CC18E"/>
<path d="M67.2083 201.51H102.288C107.254 201.494 111.395 205.294 111.807 210.236L113.981 235.082H116.472V253.471H78.0763C75.7837 253.471 73.864 251.718 73.6657 249.433L70.9209 218.082C70.8019 216.686 69.723 215.559 68.3268 215.377L67.2003 215.234C65.3282 214.996 63.8765 213.489 63.7099 211.609L63.2101 205.889C63.0038 203.684 64.6222 201.732 66.8275 201.526C66.9544 201.518 67.0813 201.51 67.2083 201.51Z" fill="#E4944B"/>
<g opacity="0.2">
<path d="M98.963 249.409L96.2262 218.058C96.0992 216.662 95.0204 215.536 93.6242 215.353L92.4977 215.21C90.6255 214.972 89.1738 213.465 89.0072 211.585L88.5075 205.865C88.3171 203.66 89.9592 201.716 92.1645 201.526C92.2676 201.518 92.3708 201.51 92.4739 201.51H67.168C64.9547 201.526 63.1698 203.327 63.1857 205.54C63.1857 205.651 63.1857 205.754 63.2015 205.865L63.7013 211.585C63.8679 213.465 65.3196 214.972 67.1918 215.21L68.3182 215.353C69.7144 215.536 70.7933 216.662 70.9123 218.058L73.6571 249.409C73.8554 251.694 75.7752 253.447 78.0678 253.447H103.366C101.073 253.447 99.1693 251.694 98.963 249.409Z" fill="#CC753A"/>
</g>
<path d="M223.772 235.058H106.587V253.447H256.384C258.676 253.447 260.596 251.694 260.794 249.409L262.048 235.058H223.772Z" fill="#E4944B"/>
<path d="M59.91 239.699C60.4891 230.465 64.5428 221.104 71.0637 214.758C72.6503 213.171 76.109 210.046 73.3404 208.411C70.1673 206.523 64.0907 215.361 63.2419 216.995C65.0426 209.95 70.4925 204.857 76.4025 201.922C79.3218 200.479 82.1063 199.114 78.9966 196.964C75.8869 194.814 69.1439 200.026 67.5891 202.256C71.2858 197.107 75.9504 191.943 80.726 188.857C86.0093 185.454 83.6215 179.766 78.1795 184.161C74.808 186.882 69.2629 193.68 69.2629 193.68C69.2629 193.68 77.9891 176.18 75.3475 174.57C71.968 172.507 65.9787 196.377 64.3287 201.066C64.765 197.171 65.1854 187.746 62.2502 187.334C59.6007 186.961 60.2512 210.434 59.6403 214.575C59.2516 216.384 59.0771 217.296 58.7677 219.121C58.4821 215.995 56.7369 207.753 54.0952 208.705C51.8582 209.498 53.2464 215.686 53.8255 218.613C55.2296 225.697 56.6417 232.559 56.6576 239.834L59.91 239.699Z" fill="#3CC18E"/>
<path opacity="0.4" d="M62.7332 191.911C63.2568 197.028 63.3441 202.176 62.9871 207.301C64.0422 204.326 65.2559 201.415 66.6204 198.575C66.6362 198.527 66.66 198.48 66.6838 198.44C67.0963 197.591 67.4771 196.742 67.961 195.909C68.1356 195.576 68.5719 195.727 68.5084 196.036C71.745 191.935 75.648 188.207 80.2887 185.803C80.6299 185.628 80.8599 186.144 80.5347 186.326C75.1403 189.381 71.1342 193.68 67.1519 198.765C65.486 202.168 64.066 205.683 62.8998 209.284C65.8271 204.659 70.3409 201.264 75.5925 199.725C75.9494 199.622 76.1478 200.161 75.7908 200.28C68.6036 202.541 63.5583 207.571 61.5116 214.163C61.4957 214.211 61.4719 214.258 61.4402 214.306C60.4406 218.51 59.6791 222.604 59.0603 226.887C61.0832 220.85 65.4542 215.512 70.4599 211.767C70.7693 211.545 71.039 212.061 70.7375 212.291C64.9783 216.63 60.7976 222.738 58.8382 229.68C58.624 232.393 58.5209 235.114 58.5526 237.851C58.5526 238.009 58.4257 238.136 58.267 238.136C58.1084 238.136 57.9814 238.009 57.9814 237.851C58.037 228.728 59.33 219.652 61.821 210.879C63.1378 204.691 62.6619 198.186 62.1621 191.99C62.1066 191.626 62.7015 191.491 62.7332 191.911Z" fill="white"/>
<path d="M59.2188 239.691C58.5366 228.736 53.7292 217.637 45.9947 210.109C44.059 208.237 40.0053 204.516 43.2975 202.557C47.0497 200.312 54.2607 210.791 55.2682 212.735C53.1343 204.382 46.669 198.337 39.6642 194.862C36.1975 193.149 32.8975 191.538 36.5862 188.984C40.275 186.429 48.2714 192.617 50.0722 195.259C45.6932 189.15 40.156 183.018 34.492 179.393C28.2329 175.355 31.057 168.612 37.5144 173.84C41.4808 177.077 48.0889 185.136 48.0889 185.136C48.0889 185.136 37.7762 164.384 40.87 162.472C44.8841 160.029 51.9761 188.333 53.9434 193.894C53.4199 189.277 52.928 178.1 56.4026 177.616C59.5758 177.172 58.7825 205.008 59.5044 209.919C59.9645 212.069 60.1707 213.147 60.5357 215.313C60.8768 211.608 62.9155 201.827 66.0887 202.962C68.7383 203.914 67.0962 211.236 66.406 214.702C64.7401 223.111 63.0662 231.25 63.0504 239.873L59.2188 239.691Z" fill="#3CC18E"/>
<path opacity="0.2" d="M55.8714 183.011C55.4113 189.063 54.9909 195.195 55.57 201.256C54.3245 197.742 52.8807 194.299 51.2545 190.943C51.2465 190.888 51.2227 190.832 51.1831 190.785C50.6912 189.777 50.1915 188.77 49.6758 187.786C49.4616 187.39 48.946 187.564 49.0174 187.929C45.1858 183.066 40.5609 178.647 35.0555 175.8C34.643 175.593 34.3733 176.204 34.7541 176.426C41.1559 180.044 45.9077 185.152 50.6198 191.174C52.6031 195.203 54.2848 199.376 55.6572 203.652C52.1826 198.162 46.82 194.132 40.5847 192.316C40.1643 192.189 39.9263 192.831 40.3468 192.966C48.8746 195.656 54.856 201.621 57.3152 209.427C57.3311 209.491 57.3628 209.546 57.4025 209.602C58.5845 214.591 59.4888 219.438 60.1869 224.523C57.807 217.384 52.6031 211.037 46.701 206.595C46.3361 206.325 46.0188 206.944 46.3678 207.214C53.2139 212.354 58.1878 219.597 60.528 227.839C60.7819 231.013 60.9009 234.281 60.8691 237.517C60.8374 237.7 60.9643 237.874 61.1547 237.906C61.3451 237.938 61.5117 237.811 61.5434 237.621C61.5434 237.589 61.5434 237.549 61.5434 237.517C61.48 226.705 59.9489 215.948 56.99 205.548C55.4034 198.202 55.9904 190.539 56.5854 183.145C56.6171 182.654 55.9111 182.511 55.8714 183.011Z" fill="white"/>
<path d="M59.2188 239.691C58.5366 228.736 53.7292 217.637 45.9947 210.109C44.059 208.237 40.0053 204.516 43.2975 202.557C47.0497 200.312 54.2607 210.791 55.2682 212.735C53.1343 204.382 46.669 198.337 39.6642 194.862C36.1975 193.149 32.8975 191.538 36.5862 188.984C40.275 186.429 48.2714 192.617 50.0722 195.259C45.6932 189.15 40.156 183.018 34.492 179.393C28.2329 175.355 31.057 168.612 37.5144 173.84C41.4808 177.077 48.0889 185.136 48.0889 185.136C48.0889 185.136 37.7762 164.384 40.87 162.472C44.8841 160.029 51.9761 188.333 53.9434 193.894C53.4199 189.277 52.928 178.1 56.4026 177.616C59.5758 177.172 58.7825 205.008 59.5044 209.919C59.9645 212.069 60.1707 213.147 60.5357 215.313C60.8768 211.608 62.9155 201.827 66.0887 202.962C68.7383 203.914 67.0962 211.236 66.406 214.702C64.7401 223.111 63.0662 231.25 63.0504 239.873L59.2188 239.691Z" fill="#3CC18E"/>
<path opacity="0.2" d="M59.2188 239.691C58.5366 228.736 53.7292 217.637 45.9947 210.109C44.059 208.237 40.0053 204.516 43.2975 202.557C47.0497 200.312 54.2607 210.791 55.2682 212.735C53.1343 204.382 46.669 198.337 39.6642 194.862C36.1975 193.149 32.8975 191.538 36.5862 188.984C40.275 186.429 48.2714 192.617 50.0722 195.259C45.6932 189.15 40.156 183.018 34.492 179.393C28.2329 175.355 31.057 168.612 37.5144 173.84C41.4808 177.077 48.0889 185.136 48.0889 185.136C48.0889 185.136 37.7762 164.384 40.87 162.472C44.8841 160.029 51.9761 188.333 53.9434 193.894C53.4199 189.277 52.928 178.1 56.4026 177.616C59.5758 177.172 58.7825 205.008 59.5044 209.919C59.9645 212.069 60.1707 213.147 60.5357 215.313C60.8768 211.608 62.9155 201.827 66.0887 202.962C68.7383 203.914 67.0962 211.236 66.406 214.702C64.7401 223.111 63.0662 231.25 63.0504 239.873L59.2188 239.691Z" fill="white"/>
<path opacity="0.5" d="M55.8714 183.011C55.4113 189.063 54.9909 195.195 55.57 201.256C54.3245 197.742 52.8807 194.299 51.2545 190.943C51.2465 190.888 51.2227 190.832 51.1831 190.785C50.6912 189.777 50.1915 188.77 49.6758 187.786C49.4616 187.39 48.946 187.564 49.0174 187.929C45.1858 183.066 40.5609 178.647 35.0555 175.8C34.643 175.593 34.3733 176.204 34.7541 176.426C41.1559 180.044 45.9077 185.152 50.6198 191.174C52.6031 195.203 54.2848 199.376 55.6572 203.652C52.1826 198.162 46.82 194.132 40.5847 192.316C40.1643 192.189 39.9263 192.831 40.3468 192.966C48.8746 195.656 54.856 201.621 57.3152 209.427C57.3311 209.491 57.3628 209.546 57.4025 209.602C58.5845 214.591 59.4888 219.438 60.1869 224.523C57.807 217.384 52.6031 211.037 46.701 206.595C46.3361 206.325 46.0188 206.944 46.3678 207.214C53.2139 212.354 58.1878 219.597 60.528 227.839C60.7819 231.013 60.9009 234.281 60.8691 237.517C60.8374 237.7 60.9643 237.874 61.1547 237.906C61.3451 237.938 61.5117 237.811 61.5434 237.621C61.5434 237.589 61.5434 237.549 61.5434 237.517C61.48 226.705 59.9489 215.948 56.99 205.548C55.4034 198.202 55.9904 190.539 56.5854 183.145C56.6171 182.654 55.9111 182.511 55.8714 183.011Z" fill="white"/>
<path d="M72.2763 237.93H47.4701C45.8597 237.93 44.5508 239.239 44.5508 240.849V242.126C44.5508 243.737 45.8597 245.046 47.4701 245.046L50.3259 265.671H69.4283L72.2842 245.046C73.8946 245.046 75.1955 243.745 75.1955 242.134C75.1955 242.134 75.1955 242.134 75.1955 242.126V240.849C75.1955 239.239 73.9025 237.938 72.2921 237.93C72.2921 237.93 72.2842 237.93 72.2763 237.93Z" fill="#CC753A"/>
<path opacity="0.1" d="M71.6889 249.298L72.268 245.109H47.4697L48.0488 249.298H71.6889Z" fill="#263238"/>
<path d="M23.2049 216.869C23.2049 216.869 27.4411 225.984 27.7028 245.586H30.5825C30.5825 245.586 28.2026 216.044 22.721 213.926C19.8017 212.815 23.2049 216.869 23.2049 216.869Z" fill="#3CC18E"/>
<g opacity="0.1">
<path d="M23.2029 216.869C23.2029 216.869 27.4391 225.984 27.7009 245.586H30.5805C30.5805 245.586 28.2007 216.044 22.719 213.926C19.7997 212.815 23.2029 216.869 23.2029 216.869Z" fill="#263238"/>
</g>
<path d="M21.5224 213.941C22.1174 212.188 22.403 212.228 23.4422 211.078C21.9032 210.824 20.0231 210.038 17.4925 211.078C15.2713 212.125 14.4384 214.552 14.8747 216.956C14.9064 217.13 14.8667 217.313 14.7557 217.456C14.5415 217.717 14.1528 217.757 13.8831 217.543C13.8355 217.503 13.7879 217.456 13.7561 217.4C12.7645 215.806 12.6614 213.807 13.4785 212.117C11.4953 212.744 9.21058 213.775 7.98892 215.457C6.65619 217.305 7.10043 221.644 8.66322 223.461C8.79807 223.62 8.79807 223.85 8.66322 224.008C8.51249 224.199 8.23484 224.238 8.03652 224.088C8.03652 224.088 8.02065 224.08 8.02065 224.072C7.22736 223.461 6.5848 222.676 6.13262 221.787C5.56939 220.795 5.53765 219.59 6.05329 218.574C3.53063 218.963 1.39668 224.294 1.65847 224.238C2.01545 226.126 3.71309 227.848 4.56984 228.609C4.87129 228.879 4.93475 229.323 4.7285 229.672C4.49051 230.077 3.95901 230.212 3.55443 229.974C3.51477 229.95 3.48303 229.926 3.4513 229.902C2.54695 229.157 1.17456 227.903 0.793782 226.832C-0.0471051 227.427 0.000492244 228.839 0.000492244 229.863C0.0480896 233.131 2.50729 235.495 4.44291 237.891C6.94971 238.811 9.67069 239.001 12.2806 238.454C14.1766 238.01 15.8345 236.844 16.8976 235.21V235.17C15.1206 234.773 13.1532 234.273 11.3445 233.861C10.9796 233.782 10.7496 233.433 10.813 233.068C10.8606 232.695 11.2017 232.425 11.5746 232.473C11.5825 232.473 11.5984 232.473 11.6063 232.473C13.9862 232.758 15.8504 233.266 18.3017 233.552C19.6344 232.37 21.7525 228.046 21.3717 228.165C19.2695 228.038 15.7076 228.284 13.7244 227.372C13.4388 227.253 13.304 226.92 13.4309 226.634C13.4309 226.618 13.4467 226.594 13.4547 226.579C13.5657 226.364 13.8037 226.245 14.0417 226.285C16.723 226.824 19.4837 226.88 22.1888 226.467C23.7754 224.294 24.9415 222.62 25.124 221.002L18.7777 220.399C18.4841 220.359 18.27 220.097 18.3096 219.796C18.3413 219.55 18.5317 219.36 18.7777 219.328C21.3558 219.026 24.3941 219.955 26.4567 218.479C26.4567 218.479 29.2015 215.822 28.2813 214.275C26.068 215.599 21.2607 214.719 21.5224 213.933V213.941Z" fill="#3CC18E"/>
<path d="M32.2478 217.694C30.3439 221.065 28.9318 224.699 28.0671 228.475C25.1558 241.556 25.2351 245.419 25.2351 245.419L22.8076 245.499C22.8076 245.499 27.5674 220.439 31.4386 216.94C35.3099 213.442 32.2478 217.694 32.2478 217.694Z" fill="#3CC18E"/>
<path opacity="0.4" d="M32.2478 217.694C30.3439 221.065 28.9318 224.699 28.0671 228.475C25.1558 241.556 25.2351 245.419 25.2351 245.419L22.8076 245.499C22.8076 245.499 27.5674 220.439 31.4386 216.94C35.3099 213.442 32.2478 217.694 32.2478 217.694Z" fill="#263238"/>
<path d="M33.1517 214.949C32.5964 214.481 31.9221 214.188 31.2003 214.092C31.9935 213.521 32.7234 212.593 34.3734 212.355C35.8251 212.252 37.1658 213.125 37.6656 214.489C37.7052 214.584 37.7846 214.664 37.8877 214.703C38.086 214.783 38.3161 214.679 38.3875 214.481C38.3954 214.449 38.4033 214.418 38.4113 214.386C38.4192 213.283 37.8322 212.26 36.8802 211.705C38.205 211.356 39.6012 211.379 40.918 211.768C42.2349 212.284 43.3772 214.553 43.0996 215.893C43.0758 216.012 43.1472 216.131 43.2662 216.171C43.409 216.226 43.5756 216.155 43.6311 216.012C43.8691 215.489 43.9722 214.917 43.9326 214.346C43.9088 213.68 43.5359 213.077 42.9489 212.76C44.4403 212.22 47.304 214.227 47.1374 214.275C47.4072 215.266 47.3437 216.314 46.955 217.266C46.8757 217.488 46.9867 217.734 47.2088 217.829C47.4786 217.987 47.8197 217.892 47.9783 217.623C47.9863 217.607 47.9942 217.591 48.0021 217.575C48.3432 216.869 48.5019 216.084 48.4702 215.298C49.1127 215.346 49.549 216.052 49.8664 216.56C50.8738 218.146 50.3027 220.05 50.0091 221.787C48.9065 222.985 47.5024 223.866 45.9475 224.334C44.7734 224.659 43.52 224.564 42.4094 224.064C43.2503 223.358 44.1626 222.541 45.0114 221.811C45.1701 221.684 45.1939 221.454 45.067 221.295C45.067 221.295 45.067 221.295 45.059 221.288C44.9004 221.121 44.6465 221.089 44.4561 221.216C43.2503 222.009 42.4174 222.85 41.1719 223.683C40.0772 223.485 37.5466 221.978 37.7925 221.922C38.8952 221.248 40.9022 220.336 41.6955 219.336C41.7986 219.209 41.7827 219.027 41.6558 218.924C41.6399 218.908 41.6161 218.892 41.6003 218.884C41.4734 218.805 41.3147 218.805 41.1878 218.884C39.8788 219.931 38.4033 220.756 36.8247 221.319C35.2381 220.716 34.1116 220.225 33.4929 219.487L36.7374 217.361C36.8723 217.25 36.8961 217.051 36.7929 216.917C36.7057 216.805 36.547 216.766 36.4122 216.821C34.9128 217.424 33.5643 218.757 31.9777 218.622C31.9777 218.622 29.6454 218.114 29.6533 217.083C31.2082 217.067 33.5167 215.259 33.1517 214.949Z" fill="#3CC18E"/>
<path opacity="0.2" d="M33.1517 214.949C32.5964 214.481 31.9221 214.188 31.2003 214.092C31.9935 213.521 32.7234 212.593 34.3734 212.355C35.8251 212.252 37.1658 213.125 37.6656 214.489C37.7052 214.584 37.7846 214.664 37.8877 214.703C38.086 214.783 38.3161 214.679 38.3875 214.481C38.3954 214.449 38.4033 214.418 38.4113 214.386C38.4192 213.283 37.8322 212.26 36.8802 211.705C38.205 211.356 39.6012 211.379 40.918 211.768C42.2349 212.284 43.3772 214.553 43.0996 215.893C43.0758 216.012 43.1472 216.131 43.2662 216.171C43.409 216.226 43.5756 216.155 43.6311 216.012C43.8691 215.489 43.9722 214.917 43.9326 214.346C43.9088 213.68 43.5359 213.077 42.9489 212.76C44.4403 212.22 47.304 214.227 47.1374 214.275C47.4072 215.266 47.3437 216.314 46.955 217.266C46.8757 217.488 46.9867 217.734 47.2088 217.829C47.4786 217.987 47.8197 217.892 47.9783 217.623C47.9863 217.607 47.9942 217.591 48.0021 217.575C48.3432 216.869 48.5019 216.084 48.4702 215.298C49.1127 215.346 49.549 216.052 49.8664 216.56C50.8738 218.146 50.3027 220.05 50.0091 221.787C48.9065 222.985 47.5024 223.866 45.9475 224.334C44.7734 224.659 43.52 224.564 42.4094 224.064C43.2503 223.358 44.1626 222.541 45.0114 221.811C45.1701 221.684 45.1939 221.454 45.067 221.295C45.067 221.295 45.067 221.295 45.059 221.288C44.9004 221.121 44.6465 221.089 44.4561 221.216C43.2503 222.009 42.4174 222.85 41.1719 223.683C40.0772 223.485 37.5466 221.978 37.7925 221.922C38.8952 221.248 40.9022 220.336 41.6955 219.336C41.7986 219.209 41.7827 219.027 41.6558 218.924C41.6399 218.908 41.6161 218.892 41.6003 218.884C41.4734 218.805 41.3147 218.805 41.1878 218.884C39.8788 219.931 38.4033 220.756 36.8247 221.319C35.2381 220.716 34.1116 220.225 33.4929 219.487L36.7374 217.361C36.8723 217.25 36.8961 217.051 36.7929 216.917C36.7057 216.805 36.547 216.766 36.4122 216.821C34.9128 217.424 33.5643 218.757 31.9777 218.622C31.9777 218.622 29.6454 218.114 29.6533 217.083C31.2082 217.067 33.5167 215.259 33.1517 214.949Z" fill="white"/>
<path d="M30.162 222.097C30.162 222.097 25.4023 229.006 24.1409 235.535C23.4746 238.581 23.0145 241.675 22.7527 244.785H19.873C19.873 244.785 24.9739 225.024 29.3449 221.113C33.7159 217.202 30.162 222.097 30.162 222.097Z" fill="#3CC18E"/>
<path opacity="0.2" d="M30.162 222.097C30.162 222.097 25.4023 229.006 24.1409 235.535C23.4746 238.581 23.0145 241.675 22.7527 244.785H19.873C19.873 244.785 24.9739 225.024 29.3449 221.113C33.7159 217.202 30.162 222.097 30.162 222.097Z" fill="#263238"/>
<path d="M30.3438 221.486C30.0582 219.979 29.8123 219.987 29.0904 218.931C30.3755 218.892 32.0018 218.455 33.9612 219.55C35.6668 220.645 36.0872 222.723 35.4685 224.643C35.4209 224.786 35.4367 224.937 35.5161 225.064C35.6747 225.294 35.9841 225.357 36.2221 225.206C36.2538 225.183 36.2856 225.159 36.3094 225.127C37.293 223.921 37.5865 222.303 37.1026 220.827C38.6892 221.557 40.4107 222.652 41.2277 224.167C42.1242 225.817 41.2912 229.324 39.8078 230.64C39.6808 230.751 39.6491 230.942 39.7364 231.085C39.8316 231.259 40.0537 231.315 40.2203 231.22C40.2282 231.22 40.2441 231.204 40.252 231.204C40.966 230.783 41.5847 230.22 42.0528 229.538C42.6239 228.792 42.7747 227.808 42.4653 226.92C44.4882 227.507 45.6384 232.108 45.448 232.029C44.9483 233.536 43.3696 234.758 42.5922 235.289C42.3146 235.479 42.2114 235.836 42.3463 236.146C42.497 236.503 42.9095 236.669 43.2586 236.519C43.2903 236.503 43.33 236.487 43.3617 236.463C44.3533 235.924 45.2101 235.17 45.8685 234.25C46.4952 234.821 46.3127 235.971 46.1937 236.812C45.7971 239.478 43.5283 241.151 41.6879 242.905C39.5301 243.381 37.293 243.246 35.2067 242.516C33.6994 241.937 32.4778 240.802 31.7876 239.343C33.279 239.216 34.9608 239.018 36.4759 238.875C36.7695 238.851 36.9916 238.605 36.9916 238.312C36.9916 238.002 36.7536 237.756 36.4442 237.748C36.4442 237.748 36.4442 237.748 36.4363 237.748C34.4451 237.748 32.8744 237.962 30.8357 237.907C29.8758 236.796 28.6065 233.028 28.908 233.147C30.6453 233.274 33.5328 233.861 35.2543 233.361C35.5002 233.29 35.6351 233.036 35.5637 232.79C35.5637 232.782 35.5637 232.766 35.5557 232.758C35.4843 232.568 35.3019 232.449 35.1036 232.457C32.8506 232.608 30.5818 232.354 28.4161 231.719C27.3452 229.776 26.5836 228.276 26.6074 226.96L31.859 227.15C32.1049 227.166 32.3112 226.983 32.327 226.737C32.3429 226.523 32.2001 226.333 32.0018 226.277C29.9234 225.746 27.3373 226.174 25.8062 224.746C25.8062 224.746 23.8547 222.279 24.7749 221.105C26.4488 222.327 30.4787 222.152 30.3438 221.486Z" fill="#3CC18E"/>
<path opacity="0.1" d="M30.3438 221.486C30.0582 219.979 29.8123 219.987 29.0904 218.931C30.3755 218.892 32.0018 218.455 33.9612 219.55C35.6668 220.645 36.0872 222.723 35.4685 224.643C35.4209 224.786 35.4367 224.937 35.5161 225.064C35.6747 225.294 35.9841 225.357 36.2221 225.206C36.2538 225.183 36.2856 225.159 36.3094 225.127C37.293 223.921 37.5865 222.303 37.1026 220.827C38.6892 221.557 40.4107 222.652 41.2277 224.167C42.1242 225.817 41.2912 229.324 39.8078 230.64C39.6808 230.751 39.6491 230.942 39.7364 231.085C39.8316 231.259 40.0537 231.315 40.2203 231.22C40.2282 231.22 40.2441 231.204 40.252 231.204C40.966 230.783 41.5847 230.22 42.0528 229.538C42.6239 228.792 42.7747 227.808 42.4653 226.92C44.4882 227.507 45.6384 232.108 45.448 232.029C44.9483 233.536 43.3696 234.758 42.5922 235.289C42.3146 235.479 42.2114 235.836 42.3463 236.146C42.497 236.503 42.9095 236.669 43.2586 236.519C43.2903 236.503 43.33 236.487 43.3617 236.463C44.3533 235.924 45.2101 235.17 45.8685 234.25C46.4952 234.821 46.3127 235.971 46.1937 236.812C45.7971 239.478 43.5283 241.151 41.6879 242.905C39.5301 243.381 37.293 243.246 35.2067 242.516C33.6994 241.937 32.4778 240.802 31.7876 239.343C33.279 239.216 34.9608 239.018 36.4759 238.875C36.7695 238.851 36.9916 238.605 36.9916 238.312C36.9916 238.002 36.7536 237.756 36.4442 237.748C36.4442 237.748 36.4442 237.748 36.4363 237.748C34.4451 237.748 32.8744 237.962 30.8357 237.907C29.8758 236.796 28.6065 233.028 28.908 233.147C30.6453 233.274 33.5328 233.861 35.2543 233.361C35.5002 233.29 35.6351 233.036 35.5637 232.79C35.5637 232.782 35.5637 232.766 35.5557 232.758C35.4843 232.568 35.3019 232.449 35.1036 232.457C32.8506 232.608 30.5818 232.354 28.4161 231.719C27.3452 229.776 26.5836 228.276 26.6074 226.96L31.859 227.15C32.1049 227.166 32.3112 226.983 32.327 226.737C32.3429 226.523 32.2001 226.333 32.0018 226.277C29.9234 225.746 27.3373 226.174 25.8062 224.746C25.8062 224.746 23.8547 222.279 24.7749 221.105C26.4488 222.327 30.4787 222.152 30.3438 221.486Z" fill="#263238"/>
<path d="M20.8248 266.307H30.7965C34.3266 266.307 37.3808 263.863 38.1502 260.421L41.9104 243.595H9.71875L13.4789 260.421C14.2484 263.863 17.3026 266.307 20.8248 266.307Z" fill="#F5B8A3"/>
<path opacity="0.1" d="M21.5224 213.941C22.1174 212.188 22.403 212.228 23.4422 211.078C21.9032 210.824 20.0231 210.038 17.4925 211.078C15.2713 212.125 14.4384 214.552 14.8747 216.956C14.9064 217.13 14.8667 217.313 14.7557 217.456C14.5415 217.717 14.1528 217.757 13.8831 217.543C13.8355 217.503 13.7879 217.456 13.7561 217.4C12.7645 215.806 12.6614 213.807 13.4785 212.117C11.4953 212.744 9.21058 213.775 7.98892 215.457C6.65619 217.305 7.10043 221.644 8.66322 223.461C8.79807 223.62 8.79807 223.85 8.66322 224.008C8.51249 224.199 8.23484 224.238 8.03652 224.088C8.03652 224.088 8.02065 224.08 8.02065 224.072C7.22736 223.461 6.5848 222.676 6.13262 221.787C5.56939 220.795 5.53765 219.59 6.05329 218.574C3.53063 218.963 1.39668 224.294 1.65847 224.238C2.01545 226.126 3.71309 227.848 4.56984 228.609C4.87129 228.879 4.93475 229.323 4.7285 229.672C4.49051 230.077 3.95901 230.212 3.55443 229.974C3.51477 229.95 3.48303 229.926 3.4513 229.902C2.54695 229.157 1.17456 227.903 0.793782 226.832C-0.0471051 227.427 0.000492244 228.839 0.000492244 229.863C0.0480896 233.131 2.50729 235.495 4.44291 237.891C6.94971 238.811 9.67069 239.001 12.2806 238.454C14.1766 238.01 15.8345 236.844 16.8976 235.21V235.17C15.1206 234.773 13.1532 234.273 11.3445 233.861C10.9796 233.782 10.7496 233.433 10.813 233.068C10.8606 232.695 11.2017 232.425 11.5746 232.473C11.5825 232.473 11.5984 232.473 11.6063 232.473C13.9862 232.758 15.8504 233.266 18.3017 233.552C19.6344 232.37 21.7525 228.046 21.3717 228.165C19.2695 228.038 15.7076 228.284 13.7244 227.372C13.4388 227.253 13.304 226.92 13.4309 226.634C13.4309 226.618 13.4467 226.594 13.4547 226.579C13.5657 226.364 13.8037 226.245 14.0417 226.285C16.723 226.824 19.4837 226.88 22.1888 226.467C23.7754 224.294 24.9415 222.62 25.124 221.002L18.7777 220.399C18.4841 220.359 18.27 220.097 18.3096 219.796C18.3413 219.55 18.5317 219.36 18.7777 219.328C21.3558 219.026 24.3941 219.955 26.4567 218.479C26.4567 218.479 29.2015 215.822 28.2813 214.275C26.068 215.599 21.2607 214.719 21.5224 213.933V213.941Z" fill="white"/>
<path d="M117.503 101.611C117.733 100.921 117.78 100.183 117.661 99.4616C117.201 100.033 116.892 100.707 116.765 101.429C116.71 100.985 116.598 100.548 116.448 100.136C116.289 99.7154 116.004 99.3584 115.623 99.1125C115.393 100.072 115.504 101.088 115.948 101.976C115.535 101.278 114.877 100.763 114.1 100.525C114.266 101.596 115.02 102.476 116.051 102.801L116.773 102.706C118.003 102.492 118.907 101.445 118.947 100.207C118.336 100.517 117.828 101.001 117.503 101.603V101.611Z" fill="#F5B8A3"/>
<path d="M117.733 102.262C118.018 101.405 118.082 100.501 117.923 99.6122C117.36 100.318 116.979 101.159 116.828 102.056C116.757 101.508 116.622 100.969 116.432 100.453C116.241 99.9295 115.876 99.4853 115.408 99.1838C115.123 100.374 115.266 101.627 115.813 102.722C115.305 101.857 114.488 101.215 113.528 100.929C113.735 102.254 114.671 103.341 115.948 103.745L116.844 103.634C118.352 103.372 119.47 102.087 119.534 100.556C118.772 100.929 118.145 101.524 117.733 102.262Z" fill="#F98A8A"/>
<path d="M130.258 106.617C130.663 106.339 130.98 105.943 131.155 105.483C130.639 105.609 130.163 105.871 129.782 106.236C129.901 105.966 129.981 105.681 130.012 105.395C130.044 105.078 129.957 104.769 129.766 104.515C129.259 104.935 128.965 105.562 128.973 106.228C128.894 105.641 128.584 105.11 128.124 104.737C127.854 105.379 128.108 106.189 128.751 106.744L129.322 106.966C129.782 107.133 130.282 107.164 130.766 107.069C131.186 106.982 131.567 106.752 131.829 106.411C131.297 106.339 130.75 106.411 130.258 106.617Z" fill="#F5B8A3"/>
<path d="M130.195 107.077C130.695 106.736 131.084 106.244 131.298 105.673C130.656 105.832 130.077 106.149 129.601 106.609C129.751 106.276 129.846 105.927 129.902 105.57C129.942 105.181 129.839 104.792 129.601 104.483C128.966 104.999 128.609 105.784 128.617 106.601C128.522 105.871 128.141 105.197 127.57 104.737C127.237 105.522 127.554 106.53 128.339 107.22L129.037 107.498C129.608 107.704 130.235 107.743 130.83 107.624C131.354 107.521 131.822 107.236 132.147 106.815C131.481 106.728 130.806 106.815 130.188 107.085L130.195 107.077Z" fill="#F98A8A"/>
<path d="M126.626 103.507C126.594 102.175 126.507 100.786 125.84 99.6281C125.174 98.4699 123.794 97.6132 122.516 97.986C120.954 98.4461 120.375 100.334 120.089 101.937C119.153 107.204 118.677 112.551 118.669 117.898L125.967 117.255C126.348 112.678 126.729 108.093 126.618 103.507H126.626Z" fill="#3CC18E"/>
<path d="M122.128 98.2002C121.691 99.7788 121.398 101.397 121.247 103.031C120.716 107.926 120.7 112.852 120.351 117.755C120.525 114.471 120.597 111.202 120.787 107.926C121.017 104.665 121.184 101.357 122.128 98.2002Z" fill="#263238"/>
<path d="M123.405 97.9543C122.937 104.269 122.786 111.202 122.588 117.556C122.691 111.123 122.842 104.364 123.405 97.9543Z" fill="#263238"/>
<path d="M124.872 98.5016C125.11 101.643 125.213 104.777 125.245 107.934C125.276 111.091 125.221 114.24 124.761 117.358C125.459 111.083 125.149 104.777 124.864 98.5016H124.872Z" fill="#263238"/>
<g opacity="0.3">
<path d="M126.626 103.507C126.594 102.175 126.507 100.786 125.84 99.6281C125.174 98.4699 123.794 97.6132 122.516 97.986C120.954 98.4461 120.375 100.334 120.089 101.937C119.153 107.204 118.677 112.551 118.669 117.898L125.967 117.255C126.348 112.678 126.729 108.093 126.618 103.507H126.626Z" fill="#263238"/>
</g>
<path d="M120.033 107.045C119.875 105.594 119.51 103.928 118.193 103.293C116.876 102.659 115.171 103.547 114.441 104.84C113.711 106.133 113.671 107.696 113.647 109.187C113.608 112.479 113.56 115.772 113.521 119.064L120.24 118.056C120.494 114.383 120.422 110.702 120.025 107.045H120.033Z" fill="#3CC18E"/>
<path d="M115.94 103.491C114.877 108.521 115.194 113.701 115.226 118.802C115.083 113.709 114.789 108.505 115.94 103.491Z" fill="#263238"/>
<path d="M116.845 103.476C116.908 108.323 117.051 113.654 117.313 118.493C116.948 113.582 116.821 108.402 116.845 103.476Z" fill="#263238"/>
<path d="M118.201 103.293C119.034 108.212 119.558 113.233 119.272 118.223C119.462 113.233 118.947 108.227 118.201 103.293Z" fill="#263238"/>
<path d="M130.52 110.472C130.655 109.338 130.671 107.997 129.782 107.275C128.894 106.554 127.426 106.934 126.641 107.799C125.856 108.664 125.538 109.846 125.261 110.988L123.404 118.516L128.727 118.937C129.576 116.176 130.179 113.344 130.528 110.472H130.52Z" fill="#3CC18E"/>
<path d="M128.014 107.03C126.317 110.695 125.627 114.709 124.746 118.62C125.539 114.693 126.237 110.655 128.014 107.03Z" fill="#263238"/>
<path d="M128.721 107.18C127.935 110.853 127.055 115.058 126.404 118.754C126.999 114.923 127.808 110.94 128.721 107.18Z" fill="#263238"/>
<path d="M129.783 107.275C129.561 111.186 129.061 115.121 127.942 118.889C128.966 115.097 129.465 111.178 129.783 107.275Z" fill="#263238"/>
<path d="M112.101 116.843H131.584V120.333C131.584 125.363 127.506 129.448 122.469 129.448H121.208C116.178 129.448 112.093 125.37 112.093 120.333V116.843H112.101Z" fill="#263238"/>
<path d="M112.124 120.238H131.584C131.623 120.238 131.655 120.206 131.655 120.166C131.655 120.127 131.623 120.095 131.584 120.095H112.124C112.084 120.095 112.053 120.127 112.053 120.166C112.053 120.206 112.084 120.238 112.124 120.238Z" fill="#3CC18E"/>
<path d="M135.63 132.574H133.273V136.318H135.63V132.574Z" fill="#263238"/>
<path opacity="0.6" d="M135.63 132.574H133.273V136.318H135.63V132.574Z" fill="white"/>
<path d="M109.816 132.574H107.46V136.318H109.816V132.574Z" fill="#263238"/>
<path opacity="0.6" d="M109.816 132.574H107.46V136.318H109.816V132.574Z" fill="white"/>
<path d="M141.992 129.027H102.256V133.026H141.992V129.027Z" fill="#263238"/>
<path opacity="0.7" d="M141.992 129.027H102.256V133.026H141.992V129.027Z" fill="white"/>
<path d="M184.41 133.152H182.054V136.897H184.41V133.152Z" fill="#263238"/>
<path opacity="0.6" d="M184.41 133.152H182.054V136.897H184.41V133.152Z" fill="white"/>
<path d="M158.588 133.152H156.231V136.897H158.588V133.152Z" fill="#263238"/>
<path opacity="0.6" d="M158.588 133.152H156.231V136.897H158.588V133.152Z" fill="white"/>
<path d="M190.772 129.606H151.036V133.604H190.772V129.606Z" fill="#263238"/>
<path opacity="0.7" d="M190.772 129.606H151.036V133.604H190.772V129.606Z" fill="white"/>
<path d="M157.414 100.278C158.009 100.477 158.58 100.731 159.128 101.024C158.533 100.826 157.961 100.58 157.414 100.278Z" fill="#263238"/>
<path d="M178.627 111.757C179.166 111.44 179.73 111.17 180.309 110.948C179.769 111.265 179.206 111.535 178.627 111.757Z" fill="#263238"/>
<path d="M170.432 104.023C170.765 104.554 171.05 105.117 171.288 105.697C170.955 105.165 170.67 104.602 170.432 104.023Z" fill="#263238"/>
<path d="M162.674 113.154C163.285 113.288 163.88 113.479 164.459 113.717C163.848 113.574 163.253 113.392 162.674 113.154Z" fill="#263238"/>
<path d="M179.936 103.769C180.546 103.912 181.133 104.11 181.713 104.356C181.11 104.213 180.515 104.015 179.936 103.769Z" fill="#263238"/>
<path d="M175.803 96.8037C175.866 97.4225 175.882 98.0492 175.843 98.6759C175.779 98.0571 175.763 97.4304 175.803 96.8037Z" fill="#263238"/>
<path d="M160.247 96.0025C160.525 96.5657 160.755 97.1448 160.929 97.7398C160.652 97.1766 160.43 96.5975 160.247 96.0025Z" fill="#263238"/>
<path d="M160.039 106.791C160.515 106.395 161.031 106.03 161.57 105.72C161.094 106.117 160.578 106.482 160.039 106.791Z" fill="#263238"/>
<path d="M167.774 100.001C168.25 99.6041 168.766 99.2392 169.305 98.9298C168.829 99.3264 168.314 99.6913 167.774 100.001Z" fill="#263238"/>
<path d="M165.959 108.592C163.801 108.156 161.834 107.053 160.334 105.443C159.47 104.507 158.764 103.364 158.645 102.103C158.533 100.953 158.93 99.7945 159.589 98.8505C160.247 97.9064 161.175 97.1687 162.175 96.5737C163.349 95.8756 164.816 95.3758 166.046 95.9629C167.164 96.5023 167.72 97.7637 168.045 98.9536C168.68 101.222 168.846 103.602 168.537 105.942" fill="#3CC18E"/>
<g opacity="0.1">
<path d="M163 96.8355C161.564 97.5098 160.318 98.6918 159.811 100.191C159.303 101.69 159.636 103.515 160.818 104.57C161.088 104.816 161.445 105.022 161.802 104.959C162.31 104.856 162.548 104.277 162.69 103.777L164.325 98.1999C164.42 97.8668 164.523 97.5098 164.42 97.1687C164.317 96.8275 163.952 96.5578 163.626 96.6847" fill="white"/>
</g>
<path opacity="0.3" d="M165.672 108.529L168.575 105.808L168.631 105.038L164.656 108.243L165.672 108.529Z" fill="#263238"/>
<path d="M176.985 107.132C178.437 106.649 180.285 105.213 180.999 103.856C181.713 102.5 181.761 100.778 180.983 99.4613C180.206 98.1445 178.564 97.3512 177.08 97.6923C175.597 98.0334 174.526 99.3899 174.113 100.842C173.701 102.293 173.836 103.848 174.05 105.34" fill="#3CC18E"/>
<g opacity="0.1">
<path d="M179.516 99.5168V99.501C179.397 98.8346 178.889 98.311 178.231 98.1603L178.104 98.1286C177.723 98.0254 177.311 98.0651 176.962 98.2396C176.597 98.4538 176.256 98.7156 175.946 99.0091C175.597 99.3582 175.288 99.7389 175.018 100.151C174.725 100.604 174.653 101.183 174.653 101.73C174.653 102.024 174.749 102.365 175.018 102.468C175.224 102.531 175.447 102.476 175.605 102.333C175.764 102.19 175.899 102.032 176.018 101.857C176.613 101.111 177.477 100.643 178.429 100.548C178.747 100.516 179.096 100.516 179.326 100.294C179.508 100.08 179.58 99.7865 179.516 99.5089V99.5168Z" fill="white"/>
</g>
<path opacity="0.3" d="M173.938 104.522C173.938 104.522 175.263 104.641 176.215 105.419C176.897 105.974 177.516 106.918 177.516 106.918L176.659 107.259L173.994 105.181L173.938 104.522Z" fill="#263238"/>
<path d="M166.648 122.681C165.783 121.546 164.038 117.294 163.943 115.24C163.8 112.313 164.688 109.258 166.751 107.188C168.813 105.117 172.129 104.205 174.819 105.363C176.826 106.228 178.285 108.108 178.92 110.195C179.554 112.281 179.451 114.526 178.912 116.652C178.372 118.778 177.444 120.753 176.445 122.697" fill="#3CC18E"/>
<g opacity="0.1">
<path d="M171.654 105.958C171.424 105.808 171.123 105.839 170.845 105.895C168.6 106.363 166.688 107.831 165.657 109.877C165.038 111.123 164.784 112.535 164.768 113.923C164.753 115.081 164.951 116.232 165.34 117.318C165.514 117.763 165.879 118.112 166.331 118.27C166.855 118.5 167.482 118.104 167.696 117.58C167.91 117.057 167.846 116.462 167.775 115.89C167.64 115.073 167.569 114.248 167.561 113.423C167.561 112.59 167.743 111.773 168.116 111.035C168.909 109.568 170.544 108.775 171.559 107.442C171.741 107.228 171.868 106.966 171.924 106.688C171.979 106.403 171.868 106.117 171.646 105.943L171.654 105.958Z" fill="white"/>
</g>
<path d="M161.262 104.499C161.888 104.483 162.507 104.514 163.126 104.594C162.499 104.61 161.88 104.578 161.262 104.499Z" fill="#263238"/>
<path d="M164.895 106.038C165.521 106.022 166.14 106.054 166.759 106.133C166.132 106.149 165.513 106.117 164.895 106.038Z" fill="#263238"/>
<path d="M166.736 102.016C166.648 102.634 166.514 103.245 166.331 103.84C166.418 103.221 166.553 102.611 166.736 102.016Z" fill="#263238"/>
<path d="M162.531 100.572C162.968 101.024 163.364 101.508 163.713 102.016C163.277 101.571 162.88 101.088 162.531 100.572Z" fill="#263238"/>
<path d="M165.435 97.2322C165.388 97.8589 165.292 98.4697 165.142 99.0805C165.189 98.4538 165.284 97.843 165.435 97.2322Z" fill="#263238"/>
<path d="M170.686 108.148C170.749 108.767 170.757 109.393 170.718 110.02C170.654 109.401 170.638 108.774 170.686 108.148Z" fill="#263238"/>
<path d="M167.672 116.699C168.053 117.191 168.394 117.715 168.687 118.27C168.307 117.778 167.965 117.255 167.672 116.699Z" fill="#263238"/>
<path d="M173.803 113.852C173.534 114.415 173.216 114.954 172.859 115.462C173.129 114.899 173.446 114.359 173.803 113.852Z" fill="#263238"/>
<path d="M164.458 120.603C165.077 120.682 165.688 120.809 166.283 120.983C165.664 120.904 165.053 120.777 164.458 120.603Z" fill="#263238"/>
<path d="M174.787 119.182C174.517 119.746 174.2 120.285 173.843 120.793C174.112 120.23 174.43 119.69 174.787 119.182Z" fill="#263238"/>
<path d="M166.909 110.924C167.242 111.456 167.528 112.019 167.758 112.598C167.425 112.067 167.139 111.504 166.909 110.924Z" fill="#263238"/>
<path d="M173.265 101.23C173.653 101.722 173.994 102.238 174.296 102.785C173.907 102.293 173.558 101.778 173.265 101.23Z" fill="#263238"/>
<path d="M174.533 109.599C175.073 109.282 175.636 109.012 176.215 108.79C175.676 109.108 175.112 109.377 174.533 109.599Z" fill="#263238"/>
<path d="M177.342 115.145C177.968 115.145 178.587 115.208 179.206 115.319C178.579 115.319 177.961 115.256 177.342 115.145Z" fill="#263238"/>
<path d="M178.532 104.142C177.984 104.443 177.413 104.697 176.826 104.903C177.374 104.602 177.945 104.348 178.532 104.142Z" fill="#263238"/>
<path d="M177.175 99.9056C177.072 100.524 176.921 101.127 176.723 101.714C176.826 101.096 176.977 100.493 177.175 99.9056Z" fill="#263238"/>
<path d="M181.641 99.0805C181.118 99.4137 180.562 99.7072 179.983 99.9452C180.507 99.612 181.062 99.3185 181.641 99.0805Z" fill="#263238"/>
<path d="M163.785 121.919L166.76 129.511H176.105L179.096 121.919H163.785Z" fill="#263238"/>
<path d="M175.882 125.989L175.858 125.973L173.431 124.307L170.543 125.981L167.656 124.307C165.316 125.759 165.284 125.751 165.26 125.751H165.244V125.735L165.316 125.711L165.284 125.727V125.687C165.371 125.656 166.759 124.807 167.672 124.244L167.687 124.228L167.703 124.244L170.567 125.917L173.455 124.244L173.471 124.259L175.898 125.917L178.056 124.553L178.095 124.616L175.882 125.989Z" fill="#3CC18E"/>
</svg>
