<svg width="306" height="274" viewBox="0 0 306 274" fill="none" xmlns="http://www.w3.org/2000/svg">
<path d="M89.3832 2.85368C69.9883 5.16722 51.2806 10.0881 34.6923 17.8051C15.1348 26.9124 -4.84247 41.0874 1.04893 59.6325C11.9451 93.8687 64.2018 94.4982 53.7725 117.508C41.953 143.586 49.8746 174.171 102.913 182.68C203.649 198.833 325.422 104.303 291.217 52.3614C269.934 20.0295 192.38 -9.43274 89.3832 2.84844V2.85368Z" fill="#3CC18E"/>
<path opacity="0.9" d="M89.3832 2.85368C69.9883 5.16722 51.2806 10.0881 34.6923 17.8051C15.1348 26.9124 -4.84247 41.0874 1.04893 59.6325C11.9451 93.8687 64.2018 94.4982 53.7725 117.508C41.953 143.586 49.8746 174.171 102.913 182.68C203.649 198.833 325.422 104.303 291.217 52.3614C269.934 20.0295 192.38 -9.43274 89.3832 2.84844V2.85368Z" fill="white"/>
<path d="M285.359 233.388C285.359 235.161 223.681 236.603 147.596 236.603C71.5117 236.603 9.83301 235.161 9.83301 233.388C9.83301 231.614 71.5117 230.172 147.596 230.172C223.681 230.172 285.359 231.609 285.359 233.388Z" fill="#E3E6EA"/>
<path d="M184.427 189.435C181.573 189.813 178.294 190.857 176.17 192.798C174.045 194.739 173.075 197.583 172.445 200.389L172.267 200.667C178.646 200.715 183.971 195.799 184.427 189.435Z" fill="#3CC18E"/>
<path d="M172.021 225.77C171.917 225.77 171.833 225.686 171.827 225.581C171.827 225.235 170.149 190.857 172.195 174.531C172.21 174.426 172.31 174.348 172.415 174.363C172.52 174.379 172.599 174.479 172.583 174.584C170.542 190.847 172.2 225.219 172.221 225.566C172.221 225.676 172.142 225.765 172.032 225.77H172.021Z" fill="#263238"/>
<path d="M171.412 202.645C171.375 202.645 171.334 202.635 171.302 202.614C171.213 202.551 171.192 202.43 171.25 202.341C173.647 198.816 176.391 195.532 179.434 192.547C179.517 192.478 179.643 192.489 179.712 192.578C179.775 192.651 179.769 192.762 179.712 192.83C176.685 195.799 173.957 199.057 171.575 202.561C171.538 202.614 171.475 202.645 171.412 202.645Z" fill="#263238"/>
<path d="M164.13 173.387C163.794 177.464 166.034 181.32 169.743 183.051L169.906 183.213C170.866 178.933 168.342 174.636 164.135 173.387H164.13Z" fill="#3CC18E"/>
<path d="M171.438 185.606C171.37 185.606 171.307 185.569 171.27 185.511L166.863 178.366C166.811 178.267 166.842 178.146 166.942 178.093C167.042 178.041 167.162 178.072 167.215 178.172L171.622 185.317C171.674 185.412 171.643 185.532 171.554 185.59C171.517 185.606 171.475 185.611 171.438 185.606Z" fill="#263238"/>
<path d="M157.048 230.775H189.023C189.023 230.775 182.901 227.496 180.897 226.358C178.893 225.219 179.538 227.313 177.356 224.931C175.173 222.549 174.113 223.415 172.151 223.357C170.189 223.299 169.203 224.49 167.655 224.931C166.108 225.372 164.156 226.62 163.264 226.804C162.373 226.987 157.048 230.775 157.048 230.775Z" fill="#263238"/>
<path d="M214.775 210.677L232.25 194.162L236.447 179.966C236.599 179.51 242.674 168.425 242.674 168.425L257.216 164.674C257.216 164.674 241.719 199.723 237.669 203.128C234.395 205.882 218.311 215.351 218.311 215.351L214.775 210.677Z" fill="#F5B8A3"/>
<path d="M232.334 184.667L248.597 190.721C248.597 190.721 255.575 174.982 254.893 171.436C254.211 167.89 252.763 165.991 250.397 165.398C248.031 164.805 242.05 164.044 239.207 170.256C236.988 175.024 232.334 184.667 232.334 184.667Z" fill="#3CC18E"/>
<path d="M217.462 209.937C217.462 209.937 215.363 208.542 213.333 208.972C211.303 209.402 209.55 209.208 208.087 209.633C206.623 210.058 208.491 210.939 209.598 211.207C210.705 211.474 211.953 211.784 211.623 212.581C211.292 213.379 205.385 217.911 205.049 219.071C204.714 220.23 205.899 219.795 205.899 219.795C205.899 219.795 204.493 220.933 204.792 221.615C204.871 221.793 205.317 222.077 206.062 221.657C207.683 220.713 210.988 218.562 210.988 218.562C210.794 218.677 206.906 221.631 206.382 222.145C205.695 222.822 205.721 223.493 206.125 223.876C206.702 224.401 211.644 220.933 211.953 220.928C211.953 220.928 209.042 222.848 209.126 223.866C209.209 224.883 211.109 223.787 212.598 222.491C213.962 221.306 216.953 219.343 218.222 218C219.796 216.348 220.473 214.89 219.67 212.912C219.203 211.747 218.443 210.724 217.462 209.937Z" fill="#F5B8A3"/>
<path opacity="0.3" d="M206.203 219.847C206.203 219.847 206.172 219.852 206.156 219.847C206.13 219.826 206.13 219.784 206.151 219.758C206.151 219.758 206.151 219.758 206.156 219.753C207.3 218.871 208.496 218.032 209.718 217.256C209.744 217.229 209.781 217.229 209.807 217.256C209.828 217.282 209.828 217.319 209.807 217.345C208.585 218.121 207.389 218.955 206.251 219.837C206.235 219.847 206.219 219.852 206.203 219.847Z" fill="#263238"/>
<path d="M239.484 212.099L248.44 211.574C247.007 219.443 245.533 224.579 246.158 228.634L242.548 231.048L239.206 227.758C238.844 222.538 238.934 217.303 239.484 212.099Z" fill="#F7BA34"/>
<path d="M238.667 222.208L241.925 222.245C243.499 224.973 244.59 224.343 246.258 222.407C247.202 222.308 247.444 223.394 247.517 223.682L249.212 230.14C249.359 230.681 249.044 231.237 248.503 231.384C248.404 231.41 248.304 231.42 248.204 231.42L240.393 231.326L229.455 231.2C226.475 231.163 225.887 228.152 227.12 227.89C232.66 226.73 236.563 225.151 238.315 223.567C238.635 223.289 238.315 223.074 238.667 222.208Z" fill="#3CC18E"/>
<path d="M238.997 225.46C238.95 225.46 238.908 225.434 238.887 225.398C238.467 224.721 237.769 224.264 236.982 224.144C236.909 224.128 236.862 224.065 236.872 223.992C236.883 223.918 236.951 223.871 237.019 223.881C237.885 224.013 238.651 224.516 239.117 225.261C239.154 225.324 239.133 225.408 239.07 225.445C239.044 225.455 239.018 225.46 238.992 225.46H238.997Z" fill="#263238"/>
<path d="M237.512 226.552C237.465 226.552 237.423 226.525 237.402 226.489C236.982 225.812 236.29 225.356 235.503 225.235C235.43 225.224 235.382 225.156 235.388 225.083C235.398 225.009 235.466 224.962 235.54 224.973C236.405 225.104 237.177 225.607 237.638 226.352C237.675 226.415 237.654 226.494 237.596 226.531C237.57 226.546 237.544 226.557 237.512 226.552Z" fill="#263238"/>
<path d="M235.676 227.486C235.629 227.486 235.587 227.459 235.56 227.423C235.141 226.746 234.448 226.284 233.661 226.164C233.593 226.153 233.541 226.085 233.551 226.017C233.551 225.948 233.614 225.901 233.677 225.901C233.682 225.901 233.688 225.901 233.698 225.901C234.564 226.027 235.335 226.531 235.797 227.276C235.833 227.339 235.812 227.417 235.755 227.459C235.728 227.47 235.702 227.48 235.676 227.48V227.486Z" fill="#263238"/>
<path opacity="0.7" d="M248.529 231.383C248.429 231.41 248.329 231.42 248.23 231.42L240.418 231.326L229.48 231.2C227.864 231.2 226.962 230.287 226.658 229.432C227.114 229.432 248.854 229.867 249.137 229.773L249.253 230.255C249.331 230.759 249.022 231.247 248.529 231.383Z" fill="white"/>
<path d="M273.784 188.344C273.784 188.344 249.321 175.711 244.557 175.355C239.794 174.998 235.246 177.574 234.333 187.421C233.42 197.268 235.246 222.649 235.246 222.649L248.44 222.874L250.874 198.952C250.874 198.952 260.595 210.173 261.188 210.042C261.78 209.911 279.701 207.765 279.701 207.765L273.784 188.344Z" fill="#263238"/>
<path opacity="0.4" d="M250.102 208.678C250.102 208.678 238.036 212.875 237.905 221.793C237.773 230.712 247.725 228.514 247.725 228.514L250.102 208.678Z" fill="#263238"/>
<path opacity="0.4" d="M256.566 205.405L266.597 201.161L254.662 203.285L256.566 205.405Z" fill="#263238"/>
<path d="M249.32 159.942C249.32 159.942 260.762 154.984 265.767 155.892C270.772 156.799 292.186 178.287 294.621 182.232C297.055 186.177 305.039 194.566 304.892 198.055C304.746 201.543 304.95 202.325 304.494 202.021C304.336 201.916 301.939 201.187 298.901 200.289C290.744 197.881 282.072 197.861 273.904 200.221C270.84 201.103 268.243 201.701 267.718 201.365C264.141 199.083 256.943 189.86 256.943 189.86L240.606 167.942L249.32 159.942Z" fill="#3CC18E"/>
<path opacity="0.4" d="M267.809 167.281C267.006 173.55 265.286 179.672 262.694 185.438C260.994 189.157 259.431 193.045 259.431 193.045L256.923 190.091L267.809 167.281Z" fill="#263238"/>
<path opacity="0.3" d="M269.341 197.834C269.341 197.834 278.191 193.113 287.65 194.335C297.109 195.558 300.178 196.009 300.178 196.009C300.178 196.009 290.63 193.181 286.774 193.071C282.918 192.961 273.527 193.386 269.341 197.834Z" fill="#263238"/>
<path opacity="0.4" d="M247.564 177.233L249.5 170.365L245.146 175.417L246.436 175.748L247.564 177.233Z" fill="#263238"/>
<path d="M282.104 230.586L279.68 221.772C288.153 220.854 293.845 222.942 297.758 221.08L301.31 224.034L298.965 228.435C298.965 228.435 292.738 230.554 282.104 230.586Z" fill="#F7BA34"/>
<path d="M293.504 230.633L292.56 227.307C294.868 224.878 293.882 223.96 291.416 222.837C291.033 221.903 292.067 221.332 292.345 221.169L298.414 217.497C298.897 217.177 299.548 217.313 299.868 217.801C299.878 217.817 299.883 217.827 299.894 217.843C299.952 217.932 299.994 218.032 300.02 218.137C300.854 221.075 301.247 222.465 302.281 226.127L305.428 237.317C306.289 240.37 303.393 241.87 302.753 240.695C299.904 235.397 297.113 231.866 294.973 230.586C294.616 230.355 294.496 230.754 293.504 230.633Z" fill="#3CC18E"/>
<path d="M295.843 231.934C295.78 231.934 295.728 231.887 295.717 231.824C295.586 230.906 295.87 229.977 296.489 229.285C296.541 229.233 296.625 229.233 296.678 229.285C296.73 229.337 296.73 229.416 296.678 229.469C296.111 230.103 295.849 230.953 295.964 231.798C295.975 231.866 295.922 231.934 295.854 231.945L295.843 231.934Z" fill="#263238"/>
<path d="M297.407 233.12C297.339 233.12 297.286 233.073 297.276 233.004C297.15 232.086 297.428 231.163 298.047 230.471C298.099 230.418 298.183 230.418 298.236 230.471C298.288 230.523 298.288 230.602 298.236 230.654C297.669 231.289 297.407 232.139 297.522 232.978C297.533 233.052 297.486 233.12 297.417 233.13V233.12H297.407Z" fill="#263238"/>
<path d="M298.892 234.72C298.829 234.72 298.771 234.673 298.761 234.61C298.64 233.692 298.923 232.763 299.537 232.071C299.59 232.018 299.668 232.018 299.721 232.071C299.773 232.123 299.773 232.207 299.721 232.26C299.154 232.894 298.897 233.744 299.012 234.584C299.023 234.652 298.971 234.72 298.902 234.73L298.892 234.72Z" fill="#263238"/>
<path opacity="0.7" d="M299.894 217.859C299.951 217.948 299.993 218.048 300.019 218.153C300.854 221.091 301.247 222.481 302.281 226.143L305.428 237.333C305.895 238.985 305.26 240.176 304.479 240.743C304.347 240.276 298.23 217.985 298.047 217.723L298.503 217.46C298.996 217.203 299.61 217.376 299.894 217.859Z" fill="white"/>
<path d="M272.52 199.566C271.76 199.87 246.872 208.39 243.205 213.683C239.538 218.976 239.795 220.812 242.224 225.062C244.653 229.311 256.389 229.962 270.097 230.586C284.497 231.247 291.532 231.247 291.532 231.247L292.639 230.554L291.548 220.356C291.548 220.356 297.497 220.356 300.96 215.173C305.65 208.138 304.506 202.021 304.506 202.021L296.978 199.246C296.726 199.151 296.453 199.062 296.207 198.989C289.471 197.084 281.811 197.326 275.012 198.989L272.52 199.566Z" fill="#263238"/>
<path opacity="0.4" d="M291.547 220.356C290.708 220.576 261.036 219.622 261.036 219.622C261.036 219.622 269.807 221.122 276.291 221.673C282.776 222.224 291.547 220.356 291.547 220.356Z" fill="#263238"/>
<path d="M253.244 166.415L244.179 192.872L224.647 216.411L229.495 220.524C229.495 220.524 247.148 205.142 251.864 198.579C256.581 192.017 262.037 179.966 262.037 179.966C262.037 179.966 270.079 167.706 267.209 161.967C264.34 156.228 255.085 158.41 253.244 166.415Z" fill="#F5B8A3"/>
<path d="M246.43 180.984L261.119 186.319C261.119 186.319 269.287 167.223 268.574 163.666C267.86 160.11 266.438 158.216 264.067 157.623C261.696 157.03 252.93 159.758 251.267 164.737C249.604 169.715 246.43 180.984 246.43 180.984Z" fill="#3CC18E"/>
<path d="M230.581 212.691C230.581 212.691 228.483 211.338 226.431 211.81C224.38 212.282 222.654 212.125 221.185 212.581C219.716 213.038 221.621 213.882 222.733 214.124C223.845 214.365 225.104 214.648 224.784 215.456C224.464 216.264 218.646 220.912 218.337 222.066C218.027 223.22 219.197 222.769 219.197 222.769C219.197 222.769 217.817 223.939 218.148 224.611C218.232 224.789 218.704 225.062 219.417 224.611C220.991 223.635 224.275 221.416 224.275 221.416C224.086 221.536 220.262 224.563 219.748 225.088C219.076 225.78 219.113 226.447 219.522 226.824C220.11 227.349 224.984 223.766 225.293 223.755C225.293 223.755 222.418 225.733 222.523 226.756C222.628 227.779 224.506 226.63 225.97 225.308C227.308 224.091 230.256 222.061 231.499 220.697C233.031 219.013 233.682 217.549 232.842 215.577C232.349 214.438 231.567 213.447 230.581 212.691Z" fill="#F5B8A3"/>
<path opacity="0.3" d="M219.528 222.837C219.528 222.837 219.486 222.827 219.476 222.811C219.449 222.785 219.449 222.748 219.476 222.722C220.604 221.814 221.784 220.949 222.991 220.151C223.017 220.13 223.059 220.136 223.08 220.162C223.101 220.188 223.096 220.23 223.069 220.251C223.069 220.251 223.064 220.256 223.059 220.256C221.863 221.059 220.682 221.919 219.56 222.822C219.549 222.832 219.539 222.837 219.528 222.837Z" fill="#263238"/>
<path d="M215.866 152.991C211.616 155.199 209.193 159.821 209.796 164.574L209.738 164.831C214.58 163.116 217.261 157.938 215.866 152.991Z" fill="#3CC18E"/>
<path d="M205.904 143.254C203.103 148.558 203.9 155.047 207.898 159.517L208.018 159.821C211.795 154.601 210.877 147.351 205.92 143.238L205.904 143.254Z" fill="#3CC18E"/>
<path d="M194.373 156.983C194.572 159.905 195.653 162.701 197.474 164.999C199.283 167.27 202.268 168.697 205.059 169.526L205.133 169.484C205.358 166.426 204.115 163.808 202.19 161.416C200.233 159.008 197.442 157.429 194.373 156.983Z" fill="#3CC18E"/>
<path d="M208.579 167.097C208.547 167.097 208.516 167.087 208.485 167.071C208.39 167.019 208.353 166.898 208.406 166.804L214.57 155.656C214.623 155.561 214.743 155.53 214.838 155.582C214.932 155.635 214.964 155.755 214.911 155.85L208.752 166.998C208.715 167.061 208.652 167.097 208.579 167.097Z" fill="#263238"/>
<path d="M215.127 171.1C212.74 173.282 211.654 176.467 210.93 179.62L210.966 180.087C214.361 180.039 217.608 178.691 220.042 176.325C222.571 173.98 224.129 170.77 224.396 167.328C221.186 167.753 217.514 168.923 215.127 171.1Z" fill="#3CC18E"/>
<path d="M209.471 182.505C209.435 182.505 209.393 182.495 209.361 182.474C209.272 182.411 209.251 182.285 209.309 182.196C212.1 178.109 215.284 174.306 218.804 170.827C218.878 170.749 219.003 170.749 219.077 170.827C219.15 170.906 219.15 171.027 219.077 171.105C215.573 174.563 212.409 178.35 209.634 182.411C209.597 182.468 209.534 182.505 209.466 182.505H209.471Z" fill="#263238"/>
<path d="M211.958 222.732C211.853 222.732 211.769 222.648 211.764 222.544C211.339 213.746 210.442 199.623 209.571 185.968C208.7 172.312 207.808 158.163 207.378 149.386C207.378 149.276 207.457 149.187 207.567 149.177C207.672 149.166 207.761 149.245 207.771 149.35C207.771 149.355 207.771 149.36 207.771 149.365C208.202 158.163 209.099 172.286 209.964 185.941C210.83 199.597 211.727 213.746 212.157 222.523C212.162 222.633 212.078 222.727 211.968 222.732H211.958Z" fill="#263238"/>
<path d="M209.01 174.18C208.952 174.18 208.9 174.153 208.863 174.112L198.974 162.649C198.89 162.575 198.879 162.449 198.953 162.365C199.026 162.282 199.152 162.271 199.236 162.344C199.252 162.355 199.262 162.371 199.273 162.392L209.183 173.854C209.256 173.933 209.256 174.054 209.183 174.133C209.136 174.174 209.073 174.19 209.01 174.18Z" fill="#263238"/>
<path d="M193.78 231.032H229.643C229.643 231.032 222.776 227.36 220.53 226.074C218.285 224.789 219.004 227.124 216.554 224.474C214.104 221.825 212.913 222.769 210.715 222.691C208.517 222.612 207.404 223.96 205.668 224.48C203.932 224.999 201.744 226.379 200.747 226.578C199.75 226.777 193.78 231.032 193.78 231.032Z" fill="#263238"/>
<path d="M249.677 160.372C249.677 160.372 247.054 157.833 244.793 151.569C244.793 151.569 244.426 151.637 244.42 151.632C244.106 150.761 243.843 149.932 243.633 149.203V149.177L239.704 158.667C241.068 160.204 242.784 163.834 243.376 165.44C243.376 165.44 244.252 168.535 247.573 166.295C250.034 164.653 249.677 160.372 249.677 160.372Z" fill="#F5B8A3"/>
<path opacity="0.2" d="M241.436 161.258L244.846 157.397C245.37 158.929 245.37 161.243 242.605 163.414C242.275 162.664 241.881 161.945 241.436 161.258Z" fill="#263238"/>
<path d="M241.195 145.693C243.954 150.53 245.612 153.206 244.809 157.109C243.603 162.99 236.631 164.595 232.465 160.671C228.714 157.135 224.827 149.822 228.2 145.022C230.64 141.549 235.435 140.715 238.908 143.159C239.852 143.82 240.633 144.691 241.195 145.693Z" fill="#F5B8A3"/>
<path d="M236.463 139.492C232.958 137.693 229.554 141.932 228.594 144.418C228.457 144.785 233.514 144.203 233.226 144.271L235.146 144.869C235.298 144.712 236.4 146.312 237.349 147.702C238.22 148.977 239.422 149.99 240.822 150.63C242.191 151.27 243.624 151.768 245.098 152.114C246.205 150.257 244.447 147.393 243.854 145.352C242.978 142.346 240.691 136.979 236.463 139.492Z" fill="#263238"/>
<path d="M245.748 148.537C246.11 149.885 245.926 151.322 245.223 152.534C244.289 154.134 242.773 152.959 241.944 151.406C241.199 150.011 240.533 148.154 241.992 147.078C243.45 146.003 245.276 146.889 245.748 148.537Z" fill="#F5B8A3"/>
<path d="M235.597 151.574C235.906 152.052 235.906 152.597 235.597 152.802C235.287 153.006 234.778 152.802 234.464 152.303C234.149 151.805 234.154 151.28 234.464 151.076C234.773 150.871 235.282 151.097 235.597 151.574Z" fill="#263238"/>
<path d="M230.991 154.727C231.306 155.205 231.3 155.75 230.991 155.955C230.681 156.159 230.167 155.955 229.858 155.456C229.548 154.958 229.543 154.433 229.858 154.229C230.172 154.024 230.692 154.255 230.991 154.727Z" fill="#263238"/>
<path d="M232.334 153.468C232.334 153.468 232.382 156.82 232.529 158.1C233.578 158.263 234.543 157.24 234.543 157.24L232.334 153.468Z" fill="#E4944B"/>
<path d="M235.287 148.568C235.235 148.647 235.14 148.694 235.046 148.683C234.369 148.61 233.698 148.857 233.236 149.36C233.142 149.476 232.974 149.497 232.858 149.407C232.743 149.318 232.722 149.15 232.811 149.035C233.383 148.39 234.233 148.064 235.088 148.159C235.23 148.159 235.34 148.28 235.334 148.421C235.334 148.474 235.314 148.526 235.287 148.568Z" fill="#263238"/>
<path d="M237.098 157.933C237.03 157.933 236.967 157.896 236.93 157.838C236.872 157.744 236.898 157.623 236.993 157.565C237.628 157.156 238 156.516 238.247 155.467C238.268 155.362 238.373 155.294 238.477 155.32C238.582 155.341 238.645 155.441 238.624 155.54C238.624 155.54 238.624 155.546 238.624 155.551C238.493 156.5 237.974 157.361 237.197 157.922C237.166 157.938 237.129 157.938 237.092 157.933H237.098Z" fill="#263238"/>
<path opacity="0.2" d="M242.631 150.892C242.584 150.892 242.537 150.861 242.516 150.819C242.29 150.352 242.191 149.832 242.233 149.318C242.238 148.883 242.395 148.463 242.678 148.133C242.988 147.781 243.476 147.655 243.917 147.813C243.979 147.844 244.011 147.917 243.985 147.986C243.958 148.049 243.885 148.085 243.822 148.059C243.822 148.059 243.817 148.059 243.812 148.059C243.476 147.949 243.103 148.049 242.867 148.316C242.631 148.605 242.5 148.961 242.495 149.334C242.469 149.796 242.563 150.252 242.773 150.666C242.804 150.729 242.773 150.808 242.715 150.84L242.631 150.897V150.892Z" fill="#263238"/>
<path d="M227.612 154.071C227.56 154.082 227.513 154.082 227.46 154.071C227.319 154.04 227.224 153.898 227.256 153.756C227.418 152.917 227.98 152.209 228.761 151.857C228.898 151.81 229.05 151.878 229.102 152.015C229.155 152.151 229.092 152.303 228.955 152.356C228.336 152.634 227.896 153.2 227.78 153.872C227.764 153.961 227.702 154.04 227.612 154.071Z" fill="#263238"/>
<path d="M236.463 139.492C233.32 137.987 229.601 138.333 226.789 140.4C222.838 143.233 221.873 147.372 223.048 150.473C223.421 151.522 224.05 152.461 224.874 153.206C225.162 153.452 225.593 153.426 225.844 153.138C225.97 152.991 226.028 152.802 226.007 152.608C225.997 152.435 225.997 152.256 226.007 152.083L226.102 152.162C226.411 152.382 226.841 152.303 227.056 151.994C227.177 151.821 227.214 151.595 227.151 151.391C227.072 151.191 227.014 150.987 226.978 150.777C227.292 150.987 227.717 150.897 227.922 150.583C228.016 150.436 228.053 150.263 228.027 150.095C227.675 147.393 229.58 144.917 232.287 144.565C232.455 144.544 232.622 144.529 232.79 144.523L235.146 144.87C236.798 142.708 236.463 139.492 236.463 139.492Z" fill="#263238"/>
<path d="M106.423 226.578L111.816 227.102L114.764 213.337L106.423 212.56V226.578Z" fill="#F5B8A3"/>
<path d="M112.597 224.721H110.672C110.236 224.726 109.827 224.936 109.575 225.293C108.463 226.809 107.629 226.237 106.428 224.81C105.662 224.721 105.452 225.602 105.379 225.859L103.936 231.105C103.81 231.541 104.067 231.997 104.502 232.123C104.581 232.149 104.66 232.16 104.744 232.155H119.999C122.428 232.155 122.927 229.71 121.93 229.484C117.434 228.493 114.255 227.171 112.865 225.865C112.613 225.602 112.875 225.434 112.597 224.721Z" fill="#263238"/>
<path d="M116.774 226.211C116.978 226.064 117.099 225.833 117.104 225.581C117.12 225.45 117.057 225.319 116.947 225.245C116.343 224.815 113.935 225.943 113.663 226.074C113.61 226.09 113.579 226.153 113.594 226.205C113.605 226.237 113.631 226.263 113.663 226.274C114.255 226.415 114.859 226.494 115.467 226.504C115.924 226.552 116.38 226.447 116.774 226.211ZM116.774 225.424C116.821 225.455 116.847 225.513 116.836 225.571C116.826 225.749 116.737 225.917 116.595 226.027C116.071 226.436 114.733 226.263 114.019 226.132C115.042 225.691 116.459 225.193 116.795 225.424H116.774Z" fill="#3CC18E"/>
<path d="M113.747 226.3C114.471 225.996 115.982 224.81 115.903 224.201C115.903 224.07 115.793 223.913 115.468 223.871C114.151 223.719 113.584 226.09 113.584 226.19C113.569 226.232 113.584 226.274 113.616 226.3C113.637 226.31 113.668 226.31 113.689 226.3H113.747ZM115.426 224.044C115.667 224.07 115.667 224.154 115.667 224.186C115.74 224.569 114.618 225.56 113.852 225.975C114.014 225.419 114.502 224.039 115.337 224.039H115.426V224.044Z" fill="#3CC18E"/>
<path d="M112.299 227.391C112.299 227.391 112.251 227.396 112.23 227.391C112.167 227.349 112.152 227.27 112.188 227.207C112.571 226.599 113.201 226.195 113.914 226.095C113.988 226.09 114.051 226.137 114.067 226.205C114.077 226.279 114.025 226.342 113.951 226.352C113.316 226.441 112.755 226.809 112.409 227.349C112.383 227.38 112.341 227.396 112.299 227.391Z" fill="#3CC18E"/>
<path d="M113.495 228.293C113.495 228.293 113.447 228.299 113.426 228.293C113.369 228.257 113.348 228.178 113.384 228.115C113.767 227.506 114.397 227.103 115.11 227.003C115.179 226.982 115.252 227.024 115.273 227.092C115.294 227.16 115.252 227.234 115.184 227.255C115.173 227.255 115.158 227.26 115.147 227.26C114.512 227.349 113.951 227.711 113.605 228.251C113.579 228.283 113.537 228.299 113.495 228.293Z" fill="#3CC18E"/>
<path d="M114.985 229.059C114.985 229.059 114.938 229.065 114.917 229.059C114.854 229.023 114.833 228.939 114.875 228.881C115.258 228.273 115.887 227.869 116.601 227.769C116.669 227.758 116.737 227.811 116.748 227.879C116.758 227.947 116.716 228.01 116.648 228.026C116.648 228.026 116.643 228.026 116.638 228.026C116.003 228.115 115.436 228.482 115.095 229.023C115.069 229.054 115.027 229.07 114.985 229.065V229.059Z" fill="#3CC18E"/>
<path d="M132.559 226.158L137.952 226.688L140.449 212.87L132.785 212.036L132.559 226.158Z" fill="#F5B8A3"/>
<path d="M138.734 224.306H136.787C136.373 224.322 135.985 224.527 135.738 224.862C134.626 226.379 133.792 225.807 132.59 224.38C131.819 224.291 131.615 225.172 131.541 225.429L130.104 230.675C129.983 231.105 130.224 231.551 130.649 231.682C130.728 231.703 130.807 231.714 130.885 231.714H146.141C148.565 231.714 149.069 229.269 148.067 229.044C143.576 228.047 140.391 226.725 139.006 225.419C138.749 225.188 139.006 225.015 138.734 224.306Z" fill="#263238"/>
<path d="M142.91 225.796C143.114 225.649 143.235 225.418 143.235 225.167C143.251 225.03 143.193 224.899 143.077 224.826C142.474 224.401 140.066 225.523 139.799 225.655C139.767 225.665 139.746 225.686 139.736 225.718C139.715 225.775 139.741 225.838 139.799 225.859C140.391 225.996 140.995 226.074 141.603 226.09C142.06 226.132 142.516 226.027 142.91 225.796ZM142.91 225.009C142.957 225.041 142.983 225.093 142.973 225.151C142.962 225.335 142.873 225.502 142.731 225.613C142.207 226.022 140.864 225.843 140.155 225.712C141.173 225.272 142.595 224.773 142.931 225.009H142.91Z" fill="#3CC18E"/>
<path d="M139.878 225.88C140.601 225.581 142.118 224.39 142.034 223.782C142.034 223.645 141.929 223.488 141.603 223.446C140.281 223.294 139.715 225.665 139.715 225.765C139.704 225.807 139.715 225.849 139.746 225.88H139.878ZM141.556 223.624C141.803 223.651 141.803 223.74 141.803 223.771C141.871 224.154 140.754 225.14 139.988 225.555C140.15 225.004 140.633 223.619 141.472 223.619H141.556V223.624Z" fill="#3CC18E"/>
<path d="M138.435 226.961C138.435 226.961 138.388 226.966 138.362 226.961C138.304 226.919 138.283 226.84 138.32 226.777C138.708 226.174 139.343 225.77 140.051 225.665C140.124 225.655 140.187 225.707 140.198 225.781C140.208 225.849 140.156 225.917 140.087 225.927C139.453 226.017 138.886 226.379 138.545 226.919C138.519 226.95 138.477 226.966 138.435 226.961Z" fill="#3CC18E"/>
<path d="M139.631 227.874C139.631 227.874 139.584 227.879 139.563 227.874C139.5 227.837 139.479 227.753 139.521 227.695C139.904 227.092 140.539 226.683 141.247 226.583C141.315 226.573 141.383 226.625 141.394 226.693C141.404 226.762 141.362 226.825 141.294 226.84C141.294 226.84 141.289 226.84 141.284 226.84C140.649 226.935 140.087 227.297 139.741 227.837C139.715 227.869 139.673 227.884 139.631 227.879V227.874Z" fill="#3CC18E"/>
<path d="M141.116 228.634C141.116 228.634 141.068 228.634 141.047 228.634C140.984 228.593 140.969 228.514 141.005 228.451C141.394 227.848 142.028 227.444 142.737 227.339C142.81 227.333 142.873 227.381 142.883 227.454C142.894 227.522 142.841 227.59 142.773 227.601C142.139 227.69 141.572 228.052 141.231 228.593C141.199 228.624 141.157 228.64 141.116 228.634Z" fill="#3CC18E"/>
<path d="M141.231 123.964C141.619 125.113 145.953 161.998 145.926 169.956C145.884 176.399 140.895 219.847 140.895 219.847L131.51 219.522C131.51 219.522 131.998 198.07 131.72 190.626C131.442 183.182 133.241 169.19 133.241 169.19L122.009 135.615L122.429 124.352L141.231 123.964Z" fill="#263238"/>
<path d="M140.711 118.513L117.377 112.653C113.043 116.572 110.032 125.396 109.109 132.589C107.907 143.852 109.109 163.572 108.773 167.381H108.82C108.338 170.261 107.944 172.443 107.698 173.519C104.356 188.072 105.41 220.975 105.41 220.975L114.943 220.818C114.943 220.818 121.642 172.449 122.235 169.406C122.303 169.065 122.371 168.719 122.444 168.357L123.62 163.048C124.742 158.195 126.064 152.812 127.093 147.309L129.055 138.454C135.917 137.168 141.226 135.778 142.59 134.257C141.708 127.741 140.79 121.955 140.711 118.513Z" fill="#263238"/>
<path d="M156.01 127.5L157.898 133.071C157.898 133.071 157.746 134.251 158.119 134.587C158.229 134.676 158.36 134.734 158.502 134.76C159.074 134.87 159.656 134.671 160.044 134.236L160.327 133.926C160.401 134.335 160.674 134.676 161.057 134.839C161.649 135.038 162.295 134.718 162.494 134.126C162.504 134.099 162.51 134.073 162.515 134.052L162.683 133.727L163.879 133.889C163.879 133.889 163.811 135.516 164.372 135.636C164.933 135.757 165.253 135.72 165.421 134.949C165.61 134.257 165.579 133.522 165.332 132.851C165.075 131.922 163.811 129.451 162.977 127.767C162.142 126.083 159.908 124.237 159.908 124.237L156.01 127.5Z" fill="#F5B8A3"/>
<path d="M136.573 88.3268C135.382 88.7675 134.784 88.1485 133.95 87.2042C128.704 81.9056 132.035 79.7442 132.035 79.7442C133.908 78.9101 134.763 77.247 135.555 74.4666C135.581 74.3879 135.613 74.3092 135.649 74.2358C135.817 73.8948 136.085 73.6167 136.421 73.4331C137.318 72.9137 138.467 73.218 138.991 74.1151L141.441 76.2765L141.41 76.4076C140.743 77.8189 140.182 78.8891 139.783 79.7547C139.741 79.8648 139.694 79.9698 139.642 80.0694C139.605 80.1796 139.563 80.2898 139.505 80.3895C139.012 81.6013 138.981 82.3463 139.579 83.1437C139.936 83.6631 140.597 86.8422 136.573 88.3268Z" fill="#F5B8A3"/>
<path d="M144.294 85.7562C144.294 85.7562 147.321 87.6448 148.129 90.5984C149.273 94.7481 152.08 109.93 152.08 109.93L160.227 123.985L155.406 127.935C155.406 127.935 150.794 122.128 147.369 117.348C143.943 112.569 142.941 103.887 142.941 103.887L144.294 85.7562Z" fill="#3CC18E"/>
<path d="M144.294 85.7562C144.294 85.7562 147.321 87.6448 148.129 90.5984C149.273 94.7481 152.08 109.93 152.08 109.93L160.227 123.985L155.406 127.935C155.406 127.935 150.794 122.128 147.369 117.348C143.943 112.569 142.941 103.887 142.941 103.887L144.294 85.7562Z" fill="#3CC18E"/>
<path opacity="0.2" d="M143.036 102.628C143.036 102.628 145.271 98.2578 145.271 95.5298C145.271 92.8018 145.213 91.59 145.213 91.59C145.213 91.59 146.519 95.8288 145.801 99.3228C145.391 101.374 144.463 103.289 143.104 104.884C142.952 104.139 142.931 103.378 143.036 102.628Z" fill="#263238"/>
<path d="M118.038 105.629L115.116 113.933L140.822 119.011C140.643 117.007 140.14 108.724 140.675 106.945C141.724 104.847 143.036 102.659 144.426 100.125C146.042 96.5632 144.992 86.0867 144.3 85.73C143.607 85.3733 140.208 82.7345 139.458 82.4354C137.029 81.4492 134.547 80.594 132.029 79.8753C131.541 79.7494 131.059 79.5815 130.576 79.4504C130.576 79.4504 121.054 77.1211 120.01 81.0242C119.926 81.2498 121.159 93.2844 118.038 105.629Z" fill="#3CC18E"/>
<path d="M118.038 105.629L115.116 113.933L140.822 119.011C140.643 117.007 140.14 108.724 140.675 106.945C141.724 104.847 143.036 102.659 144.426 100.125C146.042 96.5632 144.992 86.0867 144.3 85.73C143.607 85.3733 140.208 82.7345 139.458 82.4354C137.029 81.4492 134.547 80.594 132.029 79.8753C131.541 79.7494 131.059 79.5815 130.576 79.4504C130.576 79.4504 121.054 77.1211 120.01 81.0242C119.926 81.2498 121.159 93.2844 118.038 105.629Z" fill="#3CC18E"/>
<path opacity="0.2" d="M116.533 109.909L135.786 108.016L139.841 110.544V106.258L135.681 102.596L117.383 107.496L116.533 109.909Z" fill="#263238"/>
<path d="M129.181 79.1776C129.296 83.2801 131.783 86.9419 135.549 88.563C136.871 89.0876 138.529 88.563 139.746 87.8495C140.99 87.0993 141.924 85.9241 142.369 84.5444C138.361 80.9298 133.834 79.5449 129.181 79.1776Z" fill="#F5B8A3"/>
<path opacity="0.2" d="M121.758 97.9062C121.889 97.5128 124.701 90.2836 124.701 90.2836L123.41 96.9042L137.601 100.052L123.326 98.242L121.758 97.9062Z" fill="#263238"/>
<path d="M166.69 132.053L145.433 131.712L142.81 126.062L147.369 121.21L135.738 107.213L114.397 122.846C114.518 123.261 122.901 136.145 129.742 139.97L135.156 134.199L166.685 134.141V132.053H166.69Z" fill="#E4944B"/>
<path d="M136.321 109.972C138.986 107.197 143.393 107.108 146.163 109.773C148.938 112.438 149.027 116.845 146.362 119.615C146.158 119.83 145.937 120.029 145.701 120.218C145.318 120.549 145.874 121.099 146.257 120.774C149.526 118.02 149.945 113.141 147.191 109.873C145.601 107.989 143.214 106.972 140.754 107.134C138.876 107.281 137.108 108.089 135.765 109.411C135.618 109.568 135.623 109.82 135.786 109.967C135.938 110.109 136.169 110.109 136.321 109.967H136.316L136.321 109.972Z" fill="#CC753A"/>
<path opacity="0.2" d="M142.81 126.057L138.598 130.862L143.235 126.985L142.81 126.057Z" fill="#263238"/>
<path d="M168.406 133.486C167.986 133.375 167.556 133.281 167.131 133.202L167.183 132.945C167.608 133.024 168.044 133.118 168.469 133.229L168.406 133.486Z" fill="#3CC18E"/>
<path d="M190.99 160.456C190.696 159.564 190.423 158.751 190.145 157.964L190.392 157.875C190.67 158.662 190.948 159.48 191.242 160.372L190.99 160.456ZM189.248 155.498C188.918 154.659 188.582 153.841 188.246 153.069L188.487 152.964C188.823 153.736 189.159 154.538 189.489 155.404L189.248 155.498ZM187.15 150.682C186.756 149.885 186.347 149.109 185.927 148.358L186.158 148.227C186.578 148.977 186.987 149.764 187.386 150.567L187.15 150.682ZM184.579 146.108C184.338 145.735 184.096 145.373 183.85 145.011C183.603 144.649 183.325 144.298 183.084 143.962L183.294 143.805C183.556 144.161 183.818 144.523 184.065 144.88C184.311 145.237 184.558 145.609 184.799 145.982L184.579 146.108ZM181.431 141.911C180.849 141.25 180.246 140.61 179.621 140.007L179.805 139.818C180.429 140.426 181.043 141.072 181.625 141.738L181.431 141.911ZM177.665 138.27C176.977 137.714 176.269 137.189 175.566 136.696L175.708 136.476C176.432 136.959 177.15 137.488 177.838 138.05L177.665 138.27ZM173.305 135.374C172.534 134.965 171.736 134.603 170.923 134.283L171.018 134.042C171.841 134.362 172.644 134.729 173.426 135.138L173.305 135.374Z" fill="#3CC18E"/>
<path d="M192.176 164.223C192.05 163.808 191.919 163.388 191.793 162.969L192.045 162.89C192.171 163.31 192.302 163.729 192.428 164.149L192.176 164.223Z" fill="#3CC18E"/>
<path d="M169.435 135.248C169.12 134.954 168.79 134.666 168.454 134.393L168.622 134.188C168.963 134.466 169.299 134.76 169.613 135.054L169.435 135.248Z" fill="#3CC18E"/>
<path d="M185.524 178.282C185.466 177.417 185.393 176.546 185.304 175.696H185.566C185.65 176.546 185.724 177.422 185.787 178.293L185.524 178.282ZM185 173.11C184.889 172.265 184.764 171.399 184.622 170.539L184.884 170.497C185.021 171.363 185.146 172.228 185.257 173.078L185 173.11ZM184.171 167.979C184.008 167.134 183.83 166.279 183.646 165.434L183.903 165.382C184.092 166.221 184.27 167.082 184.428 167.932L184.171 167.979ZM183.038 162.911C182.822 162.066 182.592 161.227 182.356 160.403L182.607 160.33C182.843 161.154 183.074 162.003 183.289 162.843L183.038 162.911ZM181.6 157.917C181.333 157.098 181.075 156.269 180.766 155.456L181.013 155.367C181.306 156.186 181.584 157.014 181.847 157.838L181.6 157.917ZM179.864 153.017C179.549 152.219 179.224 151.406 178.883 150.609L179.124 150.509C179.465 151.307 179.795 152.12 180.105 152.922L179.864 153.017ZM177.833 148.232C177.471 147.451 177.094 146.659 176.711 145.893L176.942 145.772C177.33 146.548 177.707 147.346 178.069 148.122L177.833 148.232ZM175.515 143.584C175.074 142.771 174.654 142.01 174.224 141.328L174.45 141.192C174.88 141.9 175.299 142.64 175.745 143.458L175.515 143.584ZM172.802 139.162C172.278 138.433 171.753 137.745 171.229 137.116L171.428 136.948C171.952 137.583 172.509 138.275 173.033 139.01L172.802 139.162Z" fill="#3CC18E"/>
<path d="M185.702 182.196C185.702 181.755 185.702 181.32 185.666 180.884H185.928C185.928 181.325 185.954 181.76 185.965 182.201H185.702V182.196Z" fill="#3CC18E"/>
<g opacity="0.7">
<path d="M168.407 133.485C167.987 133.375 167.557 133.281 167.132 133.202L167.184 132.945C167.609 133.024 168.045 133.118 168.47 133.228L168.407 133.485Z" fill="white"/>
<path d="M190.991 160.456C190.697 159.564 190.424 158.751 190.146 157.964L190.393 157.874C190.671 158.661 190.949 159.48 191.243 160.372L190.991 160.456ZM189.249 155.498C188.919 154.659 188.583 153.84 188.247 153.069L188.488 152.964C188.824 153.735 189.16 154.538 189.49 155.404L189.249 155.498ZM187.151 150.682C186.757 149.885 186.348 149.108 185.928 148.358L186.159 148.227C186.579 148.977 186.988 149.764 187.387 150.567L187.151 150.682ZM184.58 146.107C184.339 145.735 184.097 145.373 183.851 145.011C183.604 144.649 183.326 144.298 183.085 143.962L183.295 143.804C183.557 144.161 183.819 144.523 184.066 144.88C184.312 145.237 184.559 145.609 184.8 145.982L184.58 146.107ZM181.432 141.911C180.85 141.25 180.247 140.609 179.622 140.006L179.806 139.817C180.43 140.426 181.044 141.071 181.626 141.737L181.432 141.911ZM177.666 138.27C176.978 137.714 176.27 137.189 175.567 136.696L175.709 136.476C176.433 136.958 177.151 137.488 177.839 138.049L177.666 138.27ZM173.306 135.374C172.535 134.965 171.737 134.603 170.924 134.283L171.019 134.041C171.842 134.361 172.645 134.729 173.427 135.138L173.306 135.374Z" fill="white"/>
<path d="M192.177 164.222C192.051 163.808 191.92 163.388 191.794 162.969L192.046 162.89C192.172 163.31 192.303 163.729 192.429 164.149L192.177 164.222Z" fill="white"/>
</g>
<g opacity="0.7">
<path d="M169.434 135.248C169.119 134.954 168.789 134.666 168.453 134.393L168.621 134.189C168.962 134.467 169.298 134.76 169.613 135.054L169.434 135.248Z" fill="white"/>
<path d="M185.524 178.282C185.466 177.416 185.393 176.546 185.304 175.696H185.566C185.65 176.546 185.724 177.422 185.787 178.292L185.524 178.282ZM185 173.109C184.889 172.265 184.764 171.399 184.622 170.539L184.884 170.497C185.021 171.362 185.146 172.228 185.257 173.078L185 173.109ZM184.171 167.979C184.008 167.134 183.83 166.279 183.646 165.434L183.903 165.382C184.092 166.221 184.27 167.082 184.428 167.931L184.171 167.979ZM183.038 162.911C182.822 162.066 182.592 161.227 182.356 160.403L182.607 160.33C182.843 161.153 183.074 162.003 183.289 162.843L183.038 162.911ZM181.6 157.917C181.333 157.098 181.075 156.269 180.766 155.456L181.013 155.367C181.306 156.185 181.584 157.014 181.847 157.838L181.6 157.917ZM179.864 153.017C179.549 152.219 179.224 151.406 178.883 150.609L179.124 150.509C179.465 151.306 179.795 152.12 180.105 152.922L179.864 153.017ZM177.833 148.232C177.471 147.451 177.094 146.658 176.711 145.892L176.942 145.772C177.33 146.548 177.707 147.346 178.069 148.122L177.833 148.232ZM175.515 143.584C175.074 142.771 174.654 142.01 174.224 141.328L174.45 141.192C174.88 141.9 175.299 142.64 175.745 143.458L175.515 143.584ZM172.802 139.162C172.278 138.432 171.753 137.745 171.229 137.116L171.428 136.948C171.952 137.583 172.509 138.275 173.033 139.01L172.802 139.162Z" fill="white"/>
<path d="M185.702 182.196C185.702 181.755 185.702 181.32 185.666 180.884H185.928C185.928 181.325 185.954 181.76 185.965 182.201H185.702V182.196Z" fill="white"/>
</g>
<path d="M166.691 134.183L170.416 136.434L167.215 132.053L166.234 132.032L166.691 134.183Z" fill="#CC753A"/>
<path opacity="0.3" d="M116.853 121.042L140.917 127.935L144.285 124.494L120.85 118.114L116.853 121.042Z" fill="white"/>
<path d="M160.647 125.364C161.423 125.847 162.058 126.524 162.493 127.332C163.275 128.722 164.497 132.483 164.067 132.929C163.322 133.69 162.708 132.347 162.493 131.849C162.409 131.251 162.131 130.7 161.706 130.275C160.846 129.184 159.954 130.159 159.193 128.26C158.433 126.361 158.863 125.527 158.863 125.527L160.647 125.364Z" fill="#F5B8A3"/>
<path opacity="0.3" d="M162.493 131.917C162.467 131.917 162.441 131.901 162.43 131.875C161.906 130.522 161.344 130.102 161.124 129.981C160.904 129.871 160.668 129.787 160.426 129.729C160.08 129.656 159.755 129.509 159.472 129.299C158.8 128.727 158.459 127.851 158.569 126.975C158.569 126.939 158.601 126.912 158.637 126.918C158.637 126.918 158.637 126.918 158.643 126.918C158.679 126.923 158.706 126.954 158.7 126.991C158.595 127.825 158.921 128.654 159.556 129.2C159.823 129.394 160.133 129.535 160.458 129.604C160.71 129.661 160.956 129.75 161.187 129.866C161.418 129.992 162.021 130.432 162.556 131.828C162.567 131.859 162.551 131.896 162.52 131.912H162.493V131.917Z" fill="#263238"/>
<path opacity="0.3" d="M164.115 132.101C164.078 132.101 164.052 132.074 164.047 132.038C163.9 130.044 163.034 128.166 161.612 126.76C161.586 126.734 161.586 126.692 161.612 126.666C161.639 126.639 161.681 126.639 161.702 126.666C163.144 128.087 164.026 129.986 164.178 132.006C164.178 132.043 164.152 132.074 164.115 132.08V132.101Z" fill="#263238"/>
<path d="M115.997 86.5589C115.997 86.5589 112.519 97.2662 111.732 101.248C110.914 105.392 112.293 107.475 115.2 107.921C118.395 108.409 135.633 106.977 135.633 106.977L137.9 100.099L121.757 97.9063L122.24 96.4478C122.24 96.4478 123.814 88.8829 124.512 86.2179C125.933 80.8459 123.657 78.8733 121.946 79.1986C118.688 79.8071 116.852 83.9253 115.997 86.5589Z" fill="#3CC18E"/>
<path d="M139.872 101.762C139.872 101.762 142.972 104.212 143.985 105.146C144.761 105.954 145.443 106.856 146.005 107.827C146.235 109.18 146.167 111.069 145.805 111.593C145.511 112.018 144.782 111.441 144.756 111.043C144.73 110.644 144.635 108.997 144.635 108.997L143.723 107.674C143.723 107.674 143.833 109.72 143.041 110.245C142.558 110.565 139.421 109.978 139.311 108.997C139.248 108.472 139.158 108.015 139.158 108.015L136.194 105.303L137.689 100.776" fill="#F5B8A3"/>
<path d="M115.997 86.5589C115.997 86.5589 112.519 97.2662 111.732 101.248C110.914 105.392 112.293 107.475 115.2 107.921C118.395 108.409 135.633 106.977 135.633 106.977L137.9 100.099L121.757 97.9063L122.24 96.4478C122.24 96.4478 123.814 88.8829 124.512 86.2179C125.933 80.8459 123.657 78.8733 121.946 79.1986C118.688 79.8071 116.852 83.9253 115.997 86.5589Z" fill="#3CC18E"/>
<path d="M122.098 60.8319C122.859 60.5434 123.672 61.0208 124.475 61.1414C125.655 61.3198 126.825 60.7112 127.717 59.9138C128.609 59.1164 129.291 58.1406 130.193 57.3327C131.227 56.3255 132.58 55.7064 134.018 55.5805C135.45 55.5123 137.774 56.5458 137.921 58.319L137.186 61.5664C134.768 63.4392 134.322 65.6059 133.472 68.5437C132.853 70.6999 131.311 71.3084 129.831 71.9957C128.604 72.5622 126.432 72.1426 125.209 71.555C124.517 71.2769 123.956 70.7471 123.636 70.0703C123.337 69.3621 123.646 68.549 124.339 68.2132C122.077 67.3161 120.698 65.0131 120.981 62.5946C121.091 61.8706 121.422 61.089 122.098 60.8319Z" fill="#263238"/>
<path d="M137.134 57.9256C136.064 57.7892 134.993 58.1827 134.259 58.9748C133.734 59.4627 133.372 60.0922 133.21 60.7847C133.063 61.4877 133.257 62.2222 133.734 62.7625C134.227 63.2976 135.004 63.455 135.665 63.1612C136.226 62.8202 136.599 62.2379 136.667 61.5874C136.735 60.9526 136.761 60.3126 136.746 59.6726C136.73 59.0273 136.929 58.3977 137.312 57.8784" fill="#3CC18E"/>
<path d="M136.068 63.2819C134.547 68.6329 133.792 70.8573 135.413 74.5978C137.852 80.2269 144.551 81.2341 147.594 76.5231C150.333 72.2842 152.358 64.2419 148.119 60.1132C143.88 55.9845 137.59 57.9361 136.068 63.2819Z" fill="#F5B8A3"/>
<path d="M141.876 67.4001C141.688 67.8093 141.824 68.2972 142.202 68.5437C142.537 68.6854 142.941 68.3968 143.099 67.9037C143.288 67.4945 143.151 67.0066 142.779 66.7548C142.443 66.6184 142.034 66.907 141.876 67.4001Z" fill="#263238"/>
<path d="M147.28 69.3937C147.101 69.7976 147.238 70.275 147.61 70.5163C147.946 70.6527 148.345 70.3747 148.497 69.8973C148.675 69.4933 148.539 69.0212 148.166 68.7799C147.804 68.6382 147.416 68.9163 147.28 69.3937Z" fill="#263238"/>
<path d="M141.771 65.2334C141.834 65.2649 141.913 65.2649 141.976 65.2334C142.595 64.9711 143.308 65.0393 143.864 65.4171C143.974 65.501 144.132 65.48 144.216 65.3698C144.216 65.3698 144.221 65.3594 144.226 65.3594C144.31 65.2334 144.284 65.0603 144.163 64.9659C143.466 64.478 142.568 64.3836 141.782 64.7088C141.645 64.7665 141.582 64.9239 141.635 65.0656C141.656 65.139 141.708 65.1967 141.771 65.2334Z" fill="#263238"/>
<path d="M149.703 68.0035C149.756 68.0454 149.824 68.0612 149.892 68.0454C150.039 68.014 150.128 67.8671 150.097 67.7202C149.955 66.8388 149.41 66.0781 148.623 65.6584C148.497 65.6007 148.355 65.6584 148.297 65.7844C148.297 65.7948 148.292 65.8001 148.287 65.8106C148.235 65.9522 148.297 66.1096 148.434 66.1726C149.053 66.5136 149.478 67.1221 149.583 67.8199C149.598 67.8933 149.64 67.9615 149.703 68.0035Z" fill="#263238"/>
<path d="M137.019 67.3791C137.019 67.3791 139.547 65.5849 140.691 60.6326C140.864 59.7932 141.672 59.2476 142.511 59.3998C144.904 59.8299 148.975 58.1669 150.454 65.1705C150.454 65.1705 151.346 57.3538 140.103 56.5826C132.874 56.0842 133.373 65.543 133.997 66.6919C134.621 67.8408 137.019 67.3791 137.019 67.3791Z" fill="#263238"/>
<path d="M132.879 66.8911C133.053 68.061 133.687 69.1155 134.637 69.8185C135.875 70.6893 137.428 68.7692 137.491 67.1954C137.533 65.7475 136.51 64.4832 135.083 64.2156C133.666 63.99 132.649 65.4117 132.879 66.8911Z" fill="#F5B8A3"/>
<path d="M144.012 73.9419C143.419 74.4246 142.863 74.9544 142.349 75.5158C142.238 75.4423 142.123 75.3689 142.018 75.2902C140.518 74.2724 140.161 73.3019 140.219 72.536C140.255 72.1635 140.381 71.8015 140.586 71.4867C140.696 71.3084 140.827 71.1405 140.985 70.9988C141.452 72.0113 142.774 73.0973 143.508 73.6219C143.807 73.816 144.012 73.9419 144.012 73.9419Z" fill="#263238"/>
<path d="M143.508 73.5853L142.983 74.0312C141.577 73.0659 140.711 72.1951 140.564 71.4659C140.675 71.2875 140.806 71.1196 140.963 70.978C141.451 71.9905 142.773 73.0502 143.508 73.5853Z" fill="white"/>
<path d="M142.034 75.264C140.533 74.2463 140.177 73.2757 140.234 72.5098C140.796 72.9085 141.284 73.4016 141.672 73.9735C141.924 74.3564 142.049 74.8076 142.034 75.264Z" fill="#F98A8A"/>
<path d="M145.926 68.7169C145.973 70.0022 146.147 71.277 146.451 72.5256C146.503 72.7512 146.367 72.982 146.136 73.0397C146.099 73.0502 146.068 73.0502 146.031 73.0502C145.528 73.0082 145.045 72.8246 144.636 72.5256L145.926 68.7169Z" fill="#934E42"/>
<path opacity="0.2" d="M136.069 68.381C136.069 68.381 136.022 68.381 136.001 68.381C135.938 68.3443 135.917 68.2656 135.954 68.2027C136.463 67.3371 136.174 66.2249 135.308 65.716C135.246 65.6793 135.225 65.6006 135.261 65.5377C135.298 65.4747 135.382 65.4537 135.445 65.4904C136.426 66.078 136.751 67.3423 136.185 68.3338C136.158 68.3653 136.111 68.3863 136.069 68.381Z" fill="#263238"/>
<path d="M142.679 66.7024L143.975 66.8808C143.975 66.8808 142.983 67.5156 142.679 66.7024Z" fill="#263238"/>
<path d="M148.025 68.743L149.321 68.9214C149.321 68.9214 148.329 69.5771 148.025 68.743Z" fill="#263238"/>
<path d="M150.522 67.6939C150.522 67.6939 155.144 65.0708 150.947 59.8247C150.947 59.8247 147.228 55.4075 141.504 56.7033C135.781 57.9991 134.931 60.0346 137.412 66.3981C137.412 66.3981 137.187 65.6059 139.316 64.8243C141.446 64.0426 143.681 63.4708 143.356 61.7815C143.356 61.7815 144.479 62.7993 144.085 64.0951L146.656 64.3574C146.813 63.6649 146.813 62.9514 146.656 62.2589C147.186 62.9409 147.506 63.7646 147.574 64.6249L149.436 65.7791C149.436 65.7791 149.856 63.8223 149.546 62.9409C149.546 62.9881 150.653 65.5902 150.522 67.6939Z" fill="#263238"/>
<path d="M40.1429 251.703L33.9525 246.829C30.0022 251.32 26.823 255.8 24.415 258.47L25.9049 261.975L29.934 261.167C33.1498 257.814 36.5598 254.656 40.1429 251.703Z" fill="#F5B8A3"/>
<path d="M34.2152 258.182L31.8073 256.608C29.3416 257.851 28.8485 256.86 28.5442 254.646C27.8989 254.121 27.2012 254.803 27.0071 254.981L22.6633 258.906C22.3013 259.231 22.2646 259.792 22.5898 260.159C22.6475 260.228 22.7157 260.28 22.7892 260.327L28.5599 264L36.6599 269.198C38.8686 270.599 40.7414 268.674 39.965 267.887C36.4501 264.377 34.3254 261.335 33.8165 259.341C33.7169 258.963 34.0579 258.963 34.2152 258.182Z" fill="#263238"/>
<path d="M32.4682 260.422C32.421 260.422 32.3738 260.395 32.3528 260.348C32.3213 260.285 32.3476 260.212 32.4053 260.18C32.4053 260.18 32.4105 260.18 32.4158 260.18C33.1135 259.855 33.9267 259.855 34.6244 260.18C34.6873 260.212 34.7188 260.29 34.6873 260.353C34.6559 260.416 34.5772 260.448 34.5142 260.416C33.8847 260.123 33.1555 260.123 32.5259 260.416C32.5102 260.427 32.4892 260.427 32.4682 260.427V260.422Z" fill="#263238"/>
<path d="M33.0346 261.938C32.9822 261.938 32.9402 261.907 32.9192 261.859C32.8877 261.796 32.914 261.723 32.9717 261.691C32.9717 261.691 32.9769 261.691 32.9822 261.691C33.6799 261.366 34.4931 261.366 35.1908 261.691C35.2538 261.723 35.2852 261.802 35.2538 261.865C35.2275 261.928 35.1541 261.959 35.0911 261.933C35.0911 261.933 35.0859 261.933 35.0806 261.933C34.4511 261.644 33.7219 261.644 33.0923 261.933C33.0766 261.943 33.0556 261.949 33.0346 261.949V261.938Z" fill="#263238"/>
<path d="M33.9528 263.485C33.9004 263.485 33.8532 263.459 33.8322 263.412C33.8007 263.349 33.8322 263.27 33.8951 263.239C34.5929 262.914 35.406 262.914 36.1037 263.239C36.1667 263.265 36.1982 263.339 36.1719 263.402C36.1719 263.402 36.1719 263.407 36.1719 263.412C36.1405 263.475 36.0618 263.506 35.9988 263.475C35.3693 263.181 34.6401 263.181 34.0105 263.475C33.9948 263.485 33.9738 263.485 33.9581 263.485H33.9528Z" fill="#263238"/>
<path opacity="0.7" d="M22.5901 260.175C22.6478 260.244 22.716 260.296 22.7894 260.343L28.5602 264.015L36.6602 269.199C37.5206 269.844 38.6957 269.87 39.577 269.256C39.2413 269.041 23.078 258.922 22.9154 258.717L22.5953 259.016C22.3016 259.346 22.3016 259.84 22.5953 260.175H22.5901Z" fill="white"/>
<path d="M76.6563 257.054L68.7871 256.576C70.0462 263.501 71.3367 267.987 70.7911 271.543L73.9388 273.642L76.8976 270.772C77.2124 266.203 77.1337 261.612 76.6563 257.054Z" fill="#F5B8A3"/>
<path d="M77.3693 265.92L74.5155 265.951C73.1357 268.343 72.1757 267.782 70.712 266.093C69.8831 266.009 69.6628 266.958 69.6103 267.215L68.1257 272.871C67.9945 273.338 68.2673 273.826 68.7342 273.957C68.7342 273.957 68.7395 273.957 68.7447 273.957C68.8287 273.983 68.9126 273.993 69.0018 273.988L75.8532 273.909L85.4484 273.794C88.0714 273.794 88.596 271.124 87.4996 270.893C82.6417 269.88 79.1897 268.49 77.6789 267.1C77.3956 266.864 77.6789 266.675 77.3693 265.914V265.92Z" fill="#263238"/>
<path d="M77.0817 268.789C77.0817 268.789 77.0345 268.795 77.0135 268.789C76.9506 268.753 76.9296 268.669 76.9663 268.606C77.3755 267.95 78.0523 267.504 78.8129 267.389C78.8811 267.378 78.9493 267.43 78.9598 267.499C78.9703 267.572 78.9231 267.64 78.8549 267.651C78.1677 267.756 77.5644 268.154 77.1971 268.742C77.1709 268.774 77.1289 268.795 77.087 268.789H77.0817Z" fill="#263238"/>
<path d="M78.3664 269.749C78.3664 269.749 78.3191 269.755 78.2982 269.749C78.2405 269.713 78.2195 269.639 78.2509 269.576C78.2509 269.576 78.2509 269.576 78.2509 269.571C78.6601 268.915 79.3316 268.469 80.0923 268.349C80.1605 268.338 80.2287 268.391 80.2392 268.459C80.2497 268.532 80.2025 268.6 80.1343 268.611C79.4471 268.716 78.8438 269.12 78.4765 269.707C78.4451 269.739 78.4083 269.755 78.3664 269.749Z" fill="#263238"/>
<path d="M79.9982 270.547C79.9982 270.547 79.951 270.552 79.93 270.547C79.8671 270.51 79.8461 270.431 79.8828 270.368C80.2868 269.713 80.9635 269.267 81.7242 269.151C81.7924 269.136 81.8606 269.177 81.8763 269.246C81.8763 269.246 81.8763 269.256 81.8763 269.261C81.8868 269.33 81.8344 269.398 81.7662 269.408C81.0789 269.513 80.4704 269.912 80.1084 270.505C80.0769 270.536 80.0402 270.552 79.9982 270.547Z" fill="#263238"/>
<path opacity="0.7" d="M68.7452 273.967C68.8291 273.993 68.913 274.004 69.0022 273.999L75.8537 273.92L85.4488 273.805C86.5243 273.878 87.521 273.254 87.925 272.257C87.5263 272.257 68.4619 272.64 68.2101 272.556L68.1051 272.981C68.0369 273.427 68.3097 273.852 68.7452 273.967Z" fill="white"/>
<path d="M76.4732 173.121C76.5204 173.121 74.8312 179.222 75.2666 180.402C75.4765 181.063 75.9801 181.583 76.6306 181.814C76.7565 182.291 76.9926 182.732 77.3179 183.099C77.8897 183.786 79.3638 183.86 79.3638 183.86L80.2242 184.468C80.2242 184.468 80.0511 185.858 81.2734 185.822C82.4958 185.785 83.0361 185.69 83.1043 184.605C83.1725 183.519 83.2774 181.85 83.2774 181.85C83.949 182.532 84.6624 183.172 85.4126 183.77C86.0789 184.127 87.2802 184.389 87.4166 183.634C87.553 182.879 84.867 179.883 84.2008 178.388C83.7129 177.297 83.3404 175.597 82.3069 173.986L76.4732 173.121Z" fill="#F5B8A3"/>
<path d="M73.2094 137.636C73.2094 137.636 71.5358 146.13 69.8361 153.007C69.0334 156.249 69.6682 158.537 70.6597 161.102C74.5051 171.106 76.0213 174.868 76.0213 174.868L82.3166 173.997L78.5342 156.255L81.792 139.52L73.2094 137.636Z" fill="#F5B8A3"/>
<path d="M77.842 177.433C77.6951 177.312 77.9417 177.512 77.842 177.433L77.9522 177.528L78.2092 177.748C78.3981 177.916 78.5817 178.084 78.7601 178.272C79.2112 178.708 79.6414 179.164 80.0664 179.626C81.21 180.875 82.3065 182.176 83.3819 183.487C86.3407 187.091 89.1841 190.79 92.0013 194.504C95.2854 198.827 98.538 203.176 101.759 207.546C104.781 211.622 107.792 215.704 110.83 219.764C112.981 222.634 115.116 225.535 117.387 228.3C117.901 228.982 118.473 229.622 119.087 230.214C119.528 230.55 120.031 230.786 120.566 230.912C123.525 231.877 126.495 232.801 129.459 233.74L143.487 238.152L157.127 242.427L164.838 244.841L165.211 244.956C166.176 245.26 166.591 243.744 165.625 243.44L160.159 241.73L147.469 237.722L133.084 233.199C129.516 232.077 125.949 230.949 122.387 229.816C121.658 229.58 120.923 229.291 120.183 229.092C119.968 229.039 120.414 229.186 120.183 229.092C120.042 229.029 120.346 229.244 120.22 229.118C120.173 229.076 120.126 229.039 120.079 228.992C119.821 228.74 119.554 228.467 119.339 228.2C117.314 225.876 115.583 223.478 113.731 221.039C110.809 217.162 107.923 213.259 105.033 209.356C101.791 204.981 98.538 200.61 95.2696 196.24C92.2898 192.285 89.2943 188.345 86.1991 184.479C84.1478 181.913 82.0914 179.264 79.7096 176.992C79.3634 176.657 78.9962 176.342 78.6132 176.048C77.8053 175.44 77.0393 176.804 77.821 177.407L77.842 177.433Z" fill="#263238"/>
<path opacity="0.3" d="M77.842 177.433C77.6951 177.312 77.9417 177.512 77.842 177.433L77.9522 177.528L78.2092 177.748C78.3981 177.916 78.5817 178.084 78.7601 178.272C79.2112 178.708 79.6414 179.164 80.0664 179.626C81.21 180.875 82.3065 182.176 83.3819 183.487C86.3407 187.091 89.1841 190.79 92.0013 194.504C95.2854 198.827 98.538 203.176 101.759 207.546C104.781 211.622 107.792 215.704 110.83 219.764C112.981 222.634 115.116 225.535 117.387 228.3C117.901 228.982 118.473 229.622 119.087 230.214C119.528 230.55 120.031 230.786 120.566 230.912C123.525 231.877 126.495 232.801 129.459 233.74L143.487 238.152L157.127 242.427L164.838 244.841L165.211 244.956C166.176 245.26 166.591 243.744 165.625 243.44L160.159 241.73L147.469 237.722L133.084 233.199C129.516 232.077 125.949 230.949 122.387 229.816C121.658 229.58 120.923 229.291 120.183 229.092C119.968 229.039 120.414 229.186 120.183 229.092C120.042 229.029 120.346 229.244 120.22 229.118C120.173 229.076 120.126 229.039 120.079 228.992C119.821 228.74 119.554 228.467 119.339 228.2C117.314 225.876 115.583 223.478 113.731 221.039C110.809 217.162 107.923 213.259 105.033 209.356C101.791 204.981 98.538 200.61 95.2696 196.24C92.2898 192.285 89.2943 188.345 86.1991 184.479C84.1478 181.913 82.0914 179.264 79.7096 176.992C79.3634 176.657 78.9962 176.342 78.6132 176.048C77.8053 175.44 77.0393 176.804 77.821 177.407L77.842 177.433Z" fill="white"/>
<path d="M72.5276 167.214L65.7444 181.693C65.7444 181.693 76.5146 214.13 77.1652 217.508C77.8157 220.887 78.1147 263.48 78.1147 263.48L66.6991 264.188L61.4215 221.952C61.4215 221.952 46.8898 186.666 45.7986 183.797C43.7998 178.43 45.893 171.206 45.893 171.206L49.602 165.85L72.5276 167.214Z" fill="#263238"/>
<path d="M79.1117 174.474C79.1117 175.791 74.4374 220.719 73.6662 220.882C72.895 221.044 39.0418 258.098 39.0418 258.098L29.4204 249.651L54.2346 215.94L56.9888 185.654L57.9541 166.61L79.6363 168.216L79.1117 174.474Z" fill="#263238"/>
<path opacity="0.4" d="M62.6704 232.596L62.0723 222.046L55.1055 206.612L60.3358 222.928L60.8342 234.102L62.6704 232.596Z" fill="#263238"/>
<path opacity="0.4" d="M75.2296 210.636L65.7446 181.693L69.0444 178.677L67.9952 182.826L75.6441 207.2L75.2296 210.636Z" fill="#263238"/>
<path d="M80.4654 117.832C75.9799 118.247 72.5699 125.014 73.9864 144.587L83.8649 145.018C83.8649 145.018 84.8564 132.768 84.3895 126.835C83.5239 118.582 80.4654 117.832 80.4654 117.832Z" fill="#3CC18E"/>
<path d="M80.4652 117.832L71.1218 114.48C70.1513 115.886 66.757 115.193 63.1005 113.835L53.8673 113.74L47.509 158.505C47.509 158.505 46.2762 164.376 44.5869 170.199C56.0392 176.867 71.935 177.916 80.4652 174.301C80.355 174.48 80.1451 168.977 80.0507 161.711C79.8723 148.354 80.4652 117.832 80.4652 117.832Z" fill="#3CC18E"/>
<path d="M80.4652 117.832L71.1218 114.48C70.1513 115.886 66.757 115.193 63.1005 113.835L53.8673 113.74L47.509 158.505C47.509 158.505 46.2762 164.376 44.5869 170.199C56.0392 176.867 71.935 177.916 80.4652 174.301C80.355 174.48 80.1451 168.977 80.0507 161.711C79.8723 148.354 80.4652 117.832 80.4652 117.832Z" fill="#3CC18E"/>
<path opacity="0.2" d="M79.9561 142.804L80.1502 128.188L82.3168 144.818H80.061L79.9561 142.804Z" fill="#263238"/>
<path opacity="0.2" d="M51.1967 139.016L51.8262 139.2L55.9234 128.214L52.8492 140.784L50.7612 140.794L51.1967 139.016Z" fill="#263238"/>
<path d="M62.8065 114.343C62.8065 114.343 63.8557 110.671 62.5547 103.851L62.9219 103.715C62.7436 102.765 62.5442 101.884 62.3501 101.092C62.3501 101.081 62.3501 101.076 62.3501 101.066L70.8803 107.523C70.4658 109.622 70.8383 113.782 71.1269 115.555C71.1269 115.555 71.9767 118.792 67.7956 118.535C64.7266 118.378 62.8065 114.343 62.8065 114.343Z" fill="#F5B8A3"/>
<path opacity="0.2" d="M70.749 110.545L65.6445 108.877C65.9645 110.54 67.2184 112.602 70.8277 113.074C70.7333 112.234 70.707 111.39 70.749 110.545Z" fill="#263238"/>
<path d="M78.6185 92.4934C79.4894 94.6915 79.4264 99.3134 76.1843 98.0595C72.9422 96.8057 77.1286 88.7319 78.6185 92.4934Z" fill="#263238"/>
<path d="M62.6962 96.6902C62.7592 102.461 62.6962 105.761 65.4609 108.851C69.6578 113.494 76.7506 111.259 78.4241 105.54C79.9298 100.389 79.573 91.7694 74.0121 89.2408C69.9936 87.4099 65.2459 89.183 63.415 93.2016C62.9166 94.2928 62.67 95.4889 62.6962 96.6902Z" fill="#F5B8A3"/>
<path d="M62.1034 89.8336C63.0582 86.6859 71.2631 86.9167 73.4088 88.6532C73.734 88.9155 68.8814 91.0559 69.1752 90.9667L66.9088 91.6225C66.5678 91.5281 65.8596 91.8953 65.4714 92.9445C65.4714 92.9445 65.996 99.114 63.3729 101.553C60.923 100.268 60.283 99.2084 59.7531 97.0837C58.9557 93.9203 60.7027 91.5333 62.1034 89.8336Z" fill="#263238"/>
<path d="M60.1679 101.396C60.5456 102.802 61.4637 103.998 62.728 104.722C64.412 105.661 65.7235 104.266 65.6553 102.435C65.5871 100.787 64.6061 98.3112 62.7542 98.1171C60.9023 97.923 59.7272 99.6647 60.1679 101.396Z" fill="#F5B8A3"/>
<path d="M70.891 98.773C70.8595 99.3658 71.1481 99.8537 71.5363 99.8694C71.9245 99.8852 72.2603 99.4183 72.2917 98.8202C72.3232 98.2221 72.0294 97.7343 71.6465 97.7185C71.2635 97.7028 70.9173 98.1749 70.891 98.773Z" fill="#263238"/>
<path d="M76.6879 99.1769C76.6564 99.7697 76.945 100.263 77.3332 100.279C77.7214 100.294 78.0624 99.8274 78.0886 99.2293C78.1148 98.6313 77.8315 98.1434 77.4433 98.1276C77.0551 98.1119 76.7141 98.5841 76.6879 99.1769Z" fill="#263238"/>
<path d="M74.8149 98.7573C74.8149 98.7573 76.5409 101.79 77.0813 103.017C76.2209 103.72 74.8202 103.306 74.8202 103.306V98.7573H74.8149Z" fill="#934E42"/>
<path d="M69.5791 95.9085C69.6683 95.9557 69.7732 95.9557 69.8624 95.9085C70.429 95.4836 71.1635 95.3524 71.8402 95.557C71.9818 95.6147 72.1445 95.5465 72.2022 95.3997C72.2704 95.2633 72.2179 95.1006 72.0815 95.0324C72.0815 95.0324 72.0763 95.0324 72.071 95.0272C71.2159 94.7544 70.2821 94.9065 69.5634 95.4416C69.4375 95.5256 69.406 95.6987 69.4952 95.8193C69.5162 95.8561 69.5424 95.8823 69.5791 95.9033V95.9085Z" fill="#263238"/>
<path opacity="0.2" d="M64.1233 101.847C64.0551 101.847 63.9974 101.795 63.9921 101.726C63.9607 101.244 63.8085 100.782 63.541 100.378C63.3416 100.048 63.0321 99.7907 62.6649 99.6595C62.3081 99.5441 61.9199 99.649 61.6734 99.9323C61.6314 99.99 61.5475 100.001 61.4897 99.9585C61.432 99.9166 61.4215 99.8326 61.4635 99.7749C61.773 99.4025 62.2767 99.2556 62.7383 99.4077C63.1737 99.5494 63.5462 99.8431 63.7875 100.237C64.0761 100.672 64.2492 101.181 64.2807 101.706C64.2807 101.779 64.2335 101.837 64.16 101.847H64.1233Z" fill="#263238"/>
<path d="M69.1808 102.849L74.0125 105.079C73.6768 105.609 73.2781 106.096 72.8217 106.527C72.36 106.91 71.7567 107.088 71.1586 107.02C70.2616 106.952 69.4904 106.353 69.2018 105.504C68.9605 104.638 68.9553 103.72 69.1808 102.849Z" fill="#263238"/>
<path d="M73.6452 104.9C73.6452 104.9 73.2412 105.488 72.916 105.551C72.5907 105.614 69.0601 103.772 69.0601 103.772L69.2069 102.849L73.6452 104.9Z" fill="white"/>
<path d="M71.804 106.994C71.6519 106.375 71.2322 105.85 70.6604 105.567C70.204 105.262 69.6584 105.131 69.1128 105.199C69.2439 105.86 69.6584 106.437 70.2459 106.773C70.7181 107.041 71.2742 107.119 71.804 106.994Z" fill="#F98A8A"/>
<path d="M79.2008 93.296C79.2008 93.296 75.9535 84.4248 67.9322 85.9514C59.9108 87.478 59.0137 92.0999 59.6223 96.8319C59.6223 96.8319 67.2344 93.8836 70.5552 93.0494C73.876 92.2153 79.2008 93.296 79.2008 93.296Z" fill="#3CC18E"/>
<path opacity="0.2" d="M79.2008 93.296C79.2008 93.296 75.9535 84.4248 67.9322 85.9514C59.9108 87.478 59.0137 92.0999 59.6223 96.8319C59.6223 96.8319 67.2344 93.8836 70.5552 93.0494C73.876 92.2153 79.2008 93.296 79.2008 93.296Z" fill="#263238"/>
<path d="M74.9143 91.7012C79.321 91.8113 80.9263 91.7589 84.8819 93.0442C85.5324 93.2068 86.1305 93.5268 86.6341 93.9675C87.1378 94.4291 87.2952 95.1583 87.0276 95.7879C86.8178 96.1866 86.4505 96.4804 86.0203 96.6115C83.7173 97.0732 81.367 97.2935 79.0168 97.2725L78.6443 95.2108C78.4607 94.1563 77.6318 93.3327 76.5773 93.1596C74.9877 92.8763 73.3614 92.8396 71.7614 93.0546C68.278 93.6475 64.8785 94.66 61.6416 96.0764C64.0968 94.2613 66.9035 92.9812 69.8833 92.3097C71.5148 91.8428 73.2146 91.6382 74.9143 91.7012Z" fill="#3CC18E"/>
<path d="M65.4194 85.794C65.7185 85.5422 66.1172 85.4373 66.5001 85.516C66.8779 85.5999 67.2136 85.8045 67.4549 86.1088L65.1204 86.838C65.0207 86.4603 65.1309 86.0616 65.4194 85.794Z" fill="#3CC18E"/>
<path d="M79.3739 96.8055C79.4263 96.8003 79.4788 96.7741 79.5155 96.7373C79.6204 96.6272 79.6204 96.454 79.5155 96.3439C78.928 95.6724 78.0519 95.3366 77.1653 95.4363C77.0131 95.4625 76.9134 95.6042 76.9344 95.7563C76.9554 95.9032 77.0971 96.0081 77.244 95.9819C77.244 95.9819 77.2492 95.9819 77.2544 95.9819C77.9574 95.9084 78.6499 96.1865 79.1063 96.7216C79.1693 96.8003 79.2742 96.8318 79.3739 96.8055Z" fill="#263238"/>
<path d="M97.6303 226.836C96.7122 231.138 95.9778 235.477 95.2695 239.815C94.9075 242.013 94.5613 244.211 94.2203 246.415C93.8898 248.487 93.4544 250.564 93.234 252.652C93.0399 254.478 93.7586 256.409 95.8571 256.487C96.8748 256.466 97.8559 256.099 98.6323 255.438C99.5136 254.767 100.348 254.037 101.187 253.34C104.859 250.223 108.401 246.971 111.952 243.723C115.918 240.098 119.89 236.473 124.018 233.048C124.795 232.402 123.677 231.295 122.906 231.935C116.039 237.622 109.639 243.839 102.971 249.73C101.324 251.178 99.671 252.637 97.9555 254.011C97.3103 254.536 96.324 255.26 95.4374 254.871C94.6977 254.551 94.7344 253.549 94.7869 252.883C94.9443 250.958 95.4007 249.017 95.705 247.112C96.0302 245.072 96.3502 243.026 96.6807 240.985C97.4257 236.41 98.1916 231.841 99.1569 227.308C99.3668 226.317 97.8506 225.897 97.6408 226.889L97.6303 226.836Z" fill="#263238"/>
<path opacity="0.6" d="M97.6303 226.836C96.7122 231.138 95.9778 235.477 95.2695 239.815C94.9075 242.013 94.5613 244.211 94.2203 246.415C93.8898 248.487 93.4544 250.564 93.234 252.652C93.0399 254.478 93.7586 256.409 95.8571 256.487C96.8748 256.466 97.8559 256.099 98.6323 255.438C99.5136 254.767 100.348 254.037 101.187 253.34C104.859 250.223 108.401 246.971 111.952 243.723C115.918 240.098 119.89 236.473 124.018 233.048C124.795 232.402 123.677 231.295 122.906 231.935C116.039 237.622 109.639 243.839 102.971 249.73C101.324 251.178 99.671 252.637 97.9555 254.011C97.3103 254.536 96.324 255.26 95.4374 254.871C94.6977 254.551 94.7344 253.549 94.7869 252.883C94.9443 250.958 95.4007 249.017 95.705 247.112C96.0302 245.072 96.3502 243.026 96.6807 240.985C97.4257 236.41 98.1916 231.841 99.1569 227.308C99.3668 226.317 97.8506 225.897 97.6408 226.889L97.6303 226.836Z" fill="white"/>
<path d="M91.0415 225.241C90.0657 229.811 89.2316 234.411 88.4447 239.012C88.0565 241.3 87.6683 243.592 87.2853 245.885C87.1017 246.976 86.9233 248.067 86.7607 249.158C86.5456 250.082 86.4564 251.031 86.4984 251.981C86.5771 253.534 87.9043 254.724 89.4519 254.641C89.7405 254.625 90.0185 254.567 90.2913 254.467C91.2566 254.074 92.1327 253.502 92.8829 252.778C93.7695 252.044 94.6456 251.304 95.506 250.554C99.0576 247.522 102.541 244.405 106.03 241.3C109.907 237.842 113.794 234.396 117.797 231.08C118.578 230.435 117.461 229.323 116.685 229.968C110.017 235.487 103.669 241.378 97.148 247.065C95.5427 248.461 93.9269 249.851 92.2953 251.215C91.4612 251.907 88.5968 254.462 88.0984 252.117C87.9988 251.267 88.0617 250.407 88.2768 249.578C88.4447 248.566 88.6178 247.553 88.8014 246.541C89.1529 244.416 89.4991 242.291 89.8506 240.167C90.6743 235.314 91.5399 230.472 92.5681 225.661C92.778 224.675 91.2619 224.25 91.052 225.241H91.0415Z" fill="#263238"/>
<path opacity="0.6" d="M91.0415 225.241C90.0657 229.811 89.2316 234.411 88.4447 239.012C88.0565 241.3 87.6683 243.592 87.2853 245.885C87.1017 246.976 86.9233 248.067 86.7607 249.158C86.5456 250.082 86.4564 251.031 86.4984 251.981C86.5771 253.534 87.9043 254.724 89.4519 254.641C89.7405 254.625 90.0185 254.567 90.2913 254.467C91.2566 254.074 92.1327 253.502 92.8829 252.778C93.7695 252.044 94.6456 251.304 95.506 250.554C99.0576 247.522 102.541 244.405 106.03 241.3C109.907 237.842 113.794 234.396 117.797 231.08C118.578 230.435 117.461 229.323 116.685 229.968C110.017 235.487 103.669 241.378 97.148 247.065C95.5427 248.461 93.9269 249.851 92.2953 251.215C91.4612 251.907 88.5968 254.462 88.0984 252.117C87.9988 251.267 88.0617 250.407 88.2768 249.578C88.4447 248.566 88.6178 247.553 88.8014 246.541C89.1529 244.416 89.4991 242.291 89.8506 240.167C90.6743 235.314 91.5399 230.472 92.5681 225.661C92.778 224.675 91.2619 224.25 91.052 225.241H91.0415Z" fill="white"/>
<path d="M152.709 270.148C162.957 270.148 171.265 261.841 171.265 251.593C171.265 241.345 162.957 233.037 152.709 233.037C142.461 233.037 134.154 241.345 134.154 251.593C134.154 261.841 142.461 270.148 152.709 270.148Z" fill="#263238"/>
<path d="M152.699 263.365C159.206 263.365 164.482 258.089 164.482 251.582C164.482 245.074 159.206 239.799 152.699 239.799C146.191 239.799 140.916 245.074 140.916 251.582C140.916 258.089 146.191 263.365 152.699 263.365Z" fill="#3CC18E"/>
<path d="M54.7068 181.431C55.3521 181.809 55.9659 182.234 56.5482 182.701C57.8807 183.671 59.1713 184.694 60.4356 185.754C63.6462 188.445 66.8254 191.404 69.1389 194.919C70.5344 197.017 71.7305 199.32 73.0053 201.518C74.7051 204.44 76.4153 207.357 78.136 210.269C81.3676 215.725 84.5678 221.249 88.2138 226.437C88.7384 227.188 89.2631 227.938 89.8821 228.636C90.2021 229.061 90.6271 229.396 91.1097 229.622C91.6343 229.837 92.2009 230.026 92.7412 230.225L101.896 233.572L116.501 238.907L133.567 245.135L150.06 251.152L163.176 255.936L169.749 258.334L170.043 258.444C170.998 258.79 171.407 257.269 170.463 256.923L165.877 255.249L154.158 250.974L138.173 245.145L121.018 238.887L105.578 233.247L94.7977 229.328L92.0592 228.279C91.8809 228.216 91.7025 228.158 91.5346 228.085C91.5346 228.085 91.7602 228.121 91.5766 228.085C91.4822 228.085 91.5032 228.022 91.6133 228.116C91.5661 228.079 91.5189 228.038 91.4717 227.996C91.2618 227.78 91.0572 227.565 90.8631 227.335C90.3385 226.716 89.8139 225.965 89.2893 225.184C88.5391 224.092 87.8099 222.98 87.0964 221.863C85.2865 219.046 83.5448 216.181 81.8188 213.306C78.519 207.819 75.3084 202.29 72.0925 196.75C71.4157 195.58 70.76 194.405 69.994 193.308C68.735 191.577 67.329 189.956 65.7971 188.461C63.1479 185.838 60.2992 183.43 57.2774 181.253C56.7266 180.807 56.1443 180.403 55.5305 180.046C54.6282 179.579 53.8307 180.938 54.7331 181.405L54.7068 181.431Z" fill="#263238"/>
<path opacity="0.6" d="M54.7068 181.431C55.3521 181.809 55.9659 182.234 56.5482 182.701C57.8807 183.671 59.1713 184.694 60.4356 185.754C63.6462 188.445 66.8254 191.404 69.1389 194.919C70.5344 197.017 71.7305 199.32 73.0053 201.518C74.7051 204.44 76.4153 207.357 78.136 210.269C81.3676 215.725 84.5678 221.249 88.2138 226.437C88.7384 227.188 89.2631 227.938 89.8821 228.636C90.2021 229.061 90.6271 229.396 91.1097 229.622C91.6343 229.837 92.2009 230.026 92.7412 230.225L101.896 233.572L116.501 238.907L133.567 245.135L150.06 251.152L163.176 255.936L169.749 258.334L170.043 258.444C170.998 258.79 171.407 257.269 170.463 256.923L165.877 255.249L154.158 250.974L138.173 245.145L121.018 238.887L105.578 233.247L94.7977 229.328L92.0592 228.279C91.8809 228.216 91.7025 228.158 91.5346 228.085C91.5346 228.085 91.7602 228.121 91.5766 228.085C91.4822 228.085 91.5032 228.022 91.6133 228.116C91.5661 228.079 91.5189 228.038 91.4717 227.996C91.2618 227.78 91.0572 227.565 90.8631 227.335C90.3385 226.716 89.8139 225.965 89.2893 225.184C88.5391 224.092 87.8099 222.98 87.0964 221.863C85.2865 219.046 83.5448 216.181 81.8188 213.306C78.519 207.819 75.3084 202.29 72.0925 196.75C71.4157 195.58 70.76 194.405 69.994 193.308C68.735 191.577 67.329 189.956 65.7971 188.461C63.1479 185.838 60.2992 183.43 57.2774 181.253C56.7266 180.807 56.1443 180.403 55.5305 180.046C54.6282 179.579 53.8307 180.938 54.7331 181.405L54.7068 181.431Z" fill="white"/>
<path d="M84.9189 200.506C85.0606 200.936 88.7119 226.275 90.4798 227.702C91.0045 228.121 124.711 239.951 124.711 239.951L164.309 221.674L84.9189 200.506Z" fill="#E4944B"/>
<path d="M82.5054 199.11C110.31 207.766 138.823 214.969 166.91 222.629C166.91 222.629 164.03 216.659 162.383 215.809C160.736 214.959 93.134 197.185 89.829 196.975C86.5239 196.765 82.5054 199.11 82.5054 199.11Z" fill="#934E42"/>
<path opacity="0.3" d="M85.3754 202.127L160.836 223.211L164.309 221.674L84.9189 200.506L85.3754 202.127Z" fill="#263238"/>
<path d="M82.2959 199.871C93.1711 203.255 104.109 206.408 115.084 209.45C126.059 212.493 137.118 215.431 148.135 218.369C154.33 220.027 160.521 221.695 166.717 223.379C167.141 223.484 167.577 223.227 167.682 222.802C167.729 222.608 167.703 222.398 167.608 222.22C166.932 220.814 166.181 219.45 165.353 218.128C164.644 217 163.779 215.505 162.478 215.011C161.318 214.581 160.096 214.293 158.91 213.962C153.082 212.325 147.232 210.773 141.383 209.241C133.577 207.168 125.765 205.117 117.949 203.097C111.192 201.35 104.435 199.614 97.6618 197.956C95.6735 197.474 93.6905 196.986 91.6917 196.556C91.2038 196.451 90.7159 196.346 90.2228 196.272C88.0614 195.957 85.7636 196.765 83.8068 197.615C83.2297 197.862 82.6684 198.14 82.1228 198.444C81.7451 198.664 81.6244 199.147 81.8395 199.52C82.0598 199.897 82.5425 200.018 82.9202 199.803C84.6671 198.759 86.6135 198.087 88.6332 197.825C89.0582 197.788 89.4778 197.825 89.8975 197.825C90.1389 197.825 89.6772 197.783 89.929 197.825L90.5795 197.94C92.3212 198.292 94.0472 198.717 95.7784 199.137C102.152 200.674 108.506 202.284 114.859 203.942C122.623 205.946 130.382 207.976 138.141 210.028C144.363 211.675 150.59 213.327 156.796 215.043C158.37 215.478 159.944 215.903 161.518 216.386L162.016 216.548C162.068 216.559 162.116 216.58 162.163 216.601C161.785 216.459 162.305 216.727 162.42 216.837C163.826 218.175 164.754 220.126 165.646 221.821C165.856 222.23 166.071 222.639 166.271 223.054L167.157 221.894C156.172 218.899 145.16 215.987 134.164 213.028C123.168 210.07 112.131 207.069 101.187 203.9C95.023 202.116 88.8798 200.275 82.7523 198.376C81.7451 198.051 81.3306 199.567 82.2959 199.871Z" fill="#CC753A"/>
<path d="M151.618 215.809C150.679 212.913 147.599 211.297 144.683 212.168C143.324 207.247 138.235 204.356 133.314 205.71C131.457 206.224 129.805 207.299 128.593 208.8C126.232 207.677 123.525 207.876 121.621 209.655L158.506 219.565C157.399 216.931 154.435 215.504 151.618 215.809Z" fill="#263238"/>
<path d="M147.505 207.021C146.739 207.845 146.215 208.868 145.989 209.97C148.124 209.655 150.092 208.249 150.564 206.025C149.441 205.825 148.292 206.198 147.505 207.021Z" fill="#263238"/>
<path d="M118.961 169.653C119.024 167.377 118.221 165.157 116.721 163.442C114.061 166.978 113.888 171.794 116.296 175.508L116.349 175.744C117.959 174.118 118.893 171.941 118.961 169.653Z" fill="#3CC18E"/>
<path d="M123.772 168.121C119.397 170.403 116.905 175.162 117.518 180.056L117.461 180.324C122.445 178.551 125.199 173.21 123.756 168.121H123.772Z" fill="#3CC18E"/>
<path d="M110.772 169.339C110.52 172.366 112.183 175.235 114.938 176.515L115.058 176.631C115.772 173.452 113.899 170.262 110.772 169.339Z" fill="#3CC18E"/>
<path d="M125.833 181.247C123.735 181.53 121.285 182.296 119.706 183.744C118.127 185.192 117.413 187.291 116.941 189.379L116.81 189.583C121.542 189.615 125.492 185.969 125.833 181.247Z" fill="#3CC18E"/>
<path d="M116.627 208.26C116.522 208.26 116.438 208.181 116.432 208.076C116.432 207.819 115.189 182.302 116.705 170.183C116.721 170.078 116.815 170 116.92 170.015C117.025 170.031 117.104 170.126 117.088 170.231C115.577 182.297 116.805 207.793 116.821 208.05C116.826 208.155 116.742 208.249 116.637 208.254C116.637 208.254 116.637 208.254 116.632 208.254H116.621L116.627 208.26Z" fill="#263238"/>
<path d="M116.218 182.433C116.186 182.438 116.155 182.438 116.123 182.433C116.029 182.38 115.992 182.26 116.045 182.165L122.398 170.671C122.445 170.576 122.56 170.54 122.655 170.592C122.655 170.592 122.665 170.592 122.665 170.597C122.76 170.65 122.791 170.765 122.739 170.86L116.391 182.349C116.349 182.401 116.286 182.433 116.218 182.427V182.433Z" fill="#263238"/>
<path d="M116.175 191.104C116.139 191.104 116.097 191.089 116.065 191.068C115.976 191.005 115.955 190.884 116.013 190.795C117.796 188.177 119.832 185.743 122.093 183.524C122.166 183.445 122.292 183.445 122.366 183.524C122.439 183.603 122.439 183.723 122.366 183.802C120.12 186.005 118.101 188.429 116.333 191.031C116.296 191.078 116.233 191.11 116.17 191.104H116.175Z" fill="#263238"/>
<path d="M116.196 178.441C116.128 178.441 116.065 178.404 116.029 178.346L112.76 173.048C112.702 172.958 112.729 172.838 112.818 172.78C112.818 172.78 112.818 172.78 112.823 172.78C112.918 172.722 113.038 172.749 113.096 172.843L116.364 178.147C116.417 178.241 116.385 178.362 116.296 178.42C116.265 178.435 116.233 178.446 116.196 178.446V178.441Z" fill="#263238"/>
<path d="M113.117 195.281C113.4 193.471 114.79 191.713 114.166 189.993C113.725 188.812 112.419 188.078 112.131 186.845C111.842 185.612 112.571 184.558 113.096 183.482C113.621 182.407 113.867 180.927 112.939 180.182C112.414 179.768 111.679 179.736 111.092 179.411C110.258 178.944 109.87 177.953 109.649 177.019C109.487 176.159 109.151 175.34 108.652 174.621C108.243 174.039 106.701 173.147 106.029 173.158C103.978 172.974 102.174 174.49 101.99 176.536C101.979 176.646 101.974 176.757 101.974 176.867C101.974 179.096 103.936 181.106 103.517 183.298C103.228 184.799 101.943 185.843 100.857 186.924C99.7708 188.004 98.8212 189.547 99.4088 190.968C100.117 192.668 102.646 193.025 103.296 194.746C103.637 195.648 103.349 196.66 103.49 197.615C103.679 198.916 104.634 199.96 105.589 200.847C106.538 201.812 107.708 202.531 108.999 202.945C110.305 203.281 111.858 202.982 112.671 201.896C114.087 200.123 112.765 197.521 113.117 195.281ZM108.165 176.541C107.955 176.678 107.682 176.678 107.472 176.541C107.236 176.395 107.052 176.174 106.947 175.912C106.774 175.602 106.827 175.219 107.068 174.962C107.309 174.758 107.656 174.758 107.897 174.962C108.075 175.115 108.212 175.314 108.285 175.534C108.453 175.865 108.406 176.263 108.165 176.541ZM112.083 182.957C111.805 183.419 111.265 183.66 110.735 183.566C110.378 183.445 110.111 183.136 110.043 182.763C109.99 182.396 110.074 182.024 110.284 181.714C110.531 181.263 111.045 181.032 111.548 181.142C112.01 181.237 112.351 181.63 112.382 182.102C112.382 182.412 112.278 182.711 112.083 182.957Z" fill="#3CC18E"/>
<g opacity="0.2">
<path d="M113.117 195.281C113.4 193.471 114.79 191.713 114.166 189.993C113.725 188.812 112.419 188.078 112.131 186.845C111.842 185.612 112.571 184.558 113.096 183.482C113.621 182.407 113.867 180.927 112.939 180.182C112.414 179.768 111.679 179.736 111.092 179.411C110.258 178.944 109.87 177.953 109.649 177.019C109.487 176.159 109.151 175.34 108.652 174.621C108.243 174.039 106.701 173.147 106.029 173.158C103.978 172.974 102.174 174.49 101.99 176.536C101.979 176.646 101.974 176.757 101.974 176.867C101.974 179.096 103.936 181.106 103.517 183.298C103.228 184.799 101.943 185.843 100.857 186.924C99.7708 188.004 98.8212 189.547 99.4088 190.968C100.117 192.668 102.646 193.025 103.296 194.746C103.637 195.648 103.349 196.66 103.49 197.615C103.679 198.916 104.634 199.96 105.589 200.847C106.538 201.812 107.708 202.531 108.999 202.945C110.305 203.281 111.858 202.982 112.671 201.896C114.087 200.123 112.765 197.521 113.117 195.281ZM108.165 176.541C107.955 176.678 107.682 176.678 107.472 176.541C107.236 176.395 107.052 176.174 106.947 175.912C106.774 175.602 106.827 175.219 107.068 174.962C107.309 174.758 107.656 174.758 107.897 174.962C108.075 175.115 108.212 175.314 108.285 175.534C108.453 175.865 108.406 176.263 108.165 176.541ZM112.083 182.957C111.805 183.419 111.265 183.66 110.735 183.566C110.378 183.445 110.111 183.136 110.043 182.763C109.99 182.396 110.074 182.024 110.284 181.714C110.531 181.263 111.045 181.032 111.548 181.142C112.01 181.237 112.351 181.63 112.382 182.102C112.382 182.412 112.278 182.711 112.083 182.957Z" fill="white"/>
</g>
<path d="M110.808 206.465C110.704 206.465 110.62 206.386 110.614 206.282C109.98 197.924 108.401 190.181 106.732 181.982L106.564 181.174C106.554 181.063 106.638 180.969 106.748 180.959C106.842 180.948 106.926 181.006 106.953 181.095L107.115 181.903C108.794 190.113 110.368 197.851 111.008 206.245C111.013 206.355 110.934 206.444 110.824 206.455L110.808 206.465Z" fill="#263238"/>
<path d="M109.245 194.179C109.187 194.179 109.135 194.158 109.098 194.116C107.566 192.374 105.908 190.759 104.13 189.269C104.036 189.211 104.009 189.09 104.067 188.996C104.125 188.901 104.245 188.875 104.34 188.933C104.356 188.943 104.371 188.954 104.382 188.97C106.171 190.47 107.85 192.107 109.397 193.859C109.471 193.938 109.471 194.058 109.397 194.137C109.355 194.174 109.297 194.19 109.245 194.184V194.179Z" fill="#263238"/>
<path d="M54.14 113.73C54.14 113.73 48.8362 113.347 45.9928 119.637C43.7422 124.61 39.3354 135.543 39.3354 135.543L51.8265 139.215L53.0278 135.622C55.1787 129.185 55.6771 122.307 54.4758 115.624L54.14 113.73Z" fill="#3CC18E"/>
<path d="M41.4183 136.151C41.4183 136.151 38.853 144.047 37.148 150.925C36.3506 154.161 36.5447 156.664 37.9716 159.03C41.3082 164.554 44.928 169.9 48.8259 175.041L54.0195 173.131L46.2657 153.406L51.1971 139.016L41.4183 136.151Z" fill="#F5B8A3"/>
<path d="M47.8657 173.798C47.9182 173.798 48.1543 180.093 48.9149 181.095C49.3084 181.662 49.9484 182.008 50.6409 182.029C50.9085 182.443 51.2652 182.795 51.6901 183.047C52.4403 183.529 53.8673 183.152 53.8673 183.152L54.8745 183.466C54.8745 183.466 55.1316 184.846 56.291 184.442C57.4504 184.038 57.933 183.776 57.6655 182.721C57.3979 181.667 56.994 180.046 56.994 180.046C57.8438 180.487 58.72 180.885 59.617 181.231C60.3567 181.363 61.5843 181.231 61.4847 180.492C61.385 179.752 57.912 177.69 56.8313 176.478C56.0339 175.587 55.4778 174.338 54.0089 173.116L47.8657 173.798Z" fill="#F5B8A3"/>
</svg>
