<svg width="300" height="275" viewBox="0 0 300 275" fill="none" xmlns="http://www.w3.org/2000/svg">
<path d="M131.053 21.2526C137.242 13.0133 144.584 5.85723 155.685 2.38361C179.862 -5.15933 204.339 5.94233 219.41 25.229C226.736 34.6519 231.803 45.6375 234.209 57.3271C236.786 69.6434 234.782 82.4006 236.662 94.8097C238.418 106.414 245.891 115.489 254.51 123.287C262.633 130.644 271.715 136.988 279.134 145.057C301.902 169.814 294.367 209.06 264.551 224.432C246.355 233.809 221.406 236.037 202.281 228.378C190.824 223.798 180.21 217.292 168.706 212.82C118.28 193.201 48.6532 214.677 15.735 160.453C1.1288 136.362 4.18465 103.482 24.8484 83.8164C45.5122 64.1506 73.7344 70.6646 97.6629 58.8512C113.693 50.8982 120.934 34.6519 131.053 21.2526Z" fill="#3CC18E"/>
<path opacity="0.9" d="M131.053 21.2526C137.242 13.0133 144.584 5.85723 155.685 2.38361C179.862 -5.15933 204.339 5.94233 219.41 25.229C226.736 34.6519 231.803 45.6375 234.209 57.3271C236.786 69.6434 234.782 82.4006 236.662 94.8097C238.418 106.414 245.891 115.489 254.51 123.287C262.633 130.644 271.715 136.988 279.134 145.057C301.902 169.814 294.367 209.06 264.551 224.432C246.355 233.809 221.406 236.037 202.281 228.378C190.824 223.798 180.21 217.292 168.706 212.82C118.28 193.201 48.6532 214.677 15.735 160.453C1.1288 136.362 4.18465 103.482 24.8484 83.8164C45.5122 64.1506 73.7344 70.6646 97.6629 58.8512C113.693 50.8982 120.934 34.6519 131.053 21.2526Z" fill="white"/>
<path d="M150 274.563C232.843 274.563 300 270.643 300 265.806C300 260.969 232.843 257.048 150 257.048C67.1573 257.048 0 260.969 0 265.806C0 270.643 67.1573 274.563 150 274.563Z" fill="#E3E6EA"/>
<path d="M231.699 142.535V144.283C231.444 150.047 230.524 155.756 228.945 161.303C228.032 164.769 226.934 168.266 225.758 171.639C225.425 172.598 225.085 173.55 224.737 174.486C224.644 174.749 224.551 175.012 224.45 175.26C221.116 184.211 217.24 192.945 212.846 201.424C207.26 228.687 193.552 260.22 193.552 260.22L188.964 258.657L203.794 190.949L207.578 174.285L208.39 170.695L209.829 164.344L211.245 158.155L213.898 146.434L224.551 144.113L231.699 142.535Z" fill="#F5B8A3"/>
<path opacity="0.2" d="M231.691 144.283C231.436 150.047 230.515 155.756 228.937 161.303C228.024 164.769 226.926 168.266 225.75 171.639C225.417 172.598 225.077 173.55 224.729 174.486C219.189 175.345 211.979 174.772 207.577 174.254L208.389 170.664L209.828 164.313L211.244 158.124L213.898 146.403L224.551 144.082L231.691 144.283Z" fill="#263238"/>
<path d="M248.031 164.823C247.76 167.585 247.412 170.339 247.018 173.016C246.84 174.238 246.654 175.445 246.453 176.629C245.091 184.853 243.296 192.999 241.076 201.029C241.277 228.88 234.431 262.588 234.431 262.588L229.657 261.961L230.067 192.62L230.268 177.921L230.353 171.856L230.392 169.109L230.694 146.945L247.304 139.471C248.998 146.705 248.921 155.834 248.031 164.823Z" fill="#F5B8A3"/>
<path opacity="0.2" d="M248.031 164.823C247.76 167.585 247.412 170.339 247.018 173.016C246.84 174.238 246.654 175.445 246.453 176.629C241.424 178.014 234.33 178.045 230.269 177.921L230.354 171.856L230.392 169.109L248.031 164.823Z" fill="#263238"/>
<path d="M193.451 110.352L186.828 107.474C186.658 105.927 180.059 105.207 179.278 105.486C178.496 105.764 176.957 110.127 177.119 111.187C177.282 112.247 184.082 111.311 184.778 111.187C185.475 111.063 186.117 110.87 186.117 110.87L191.803 113.965L193.451 110.352Z" fill="#F5B8A3"/>
<path d="M213.225 102.886C213.225 102.886 213.039 103.776 212.684 105.13C211.91 108.093 210.223 113.292 207.647 116.123C206.959 116.943 206.061 117.57 205.056 117.933C199.547 119.643 188.972 113.292 188.972 113.292L190.859 108.24C190.859 108.24 200.414 113.346 202.866 111.334C205.319 109.323 207.214 96.0085 210.719 94.5773L213.225 102.886Z" fill="#3CC18E"/>
<path opacity="0.2" d="M212.683 105.13C211.909 108.093 210.223 113.291 207.647 116.123C205.736 107.52 211.198 100.557 211.198 100.557L212.683 105.13Z" fill="#263238"/>
<path d="M195.431 258.711C195.431 258.1 187.981 258.58 187.981 258.58C187.981 258.58 183.408 263.222 178.968 264.274C174.527 265.326 177.003 267.987 181.969 267.987H194.255C197.783 267.987 195.578 264.978 195.431 258.711Z" fill="#263238"/>
<path d="M184.074 260.483C183.842 260.499 183.61 260.437 183.417 260.305C183.208 260.104 183.138 259.802 183.239 259.532C183.293 259.315 183.44 259.137 183.633 259.029C184.159 258.812 184.74 258.75 185.297 258.851C184.693 258.526 184.167 258.131 184.144 257.745C184.144 257.489 184.306 257.28 184.631 257.118C184.933 256.979 185.289 256.979 185.591 257.118C186.596 257.536 187.223 259.261 187.254 259.346C187.254 259.377 187.254 259.4 187.254 259.431C187.254 259.431 187.254 259.47 187.254 259.493C187.254 259.493 187.254 259.532 187.254 259.547L187.192 259.594C186.21 260.066 185.157 260.367 184.074 260.483ZM184.701 259.184C184.399 259.168 184.098 259.222 183.827 259.346C183.718 259.4 183.649 259.493 183.618 259.609C183.54 259.895 183.618 259.973 183.664 259.996C184.012 260.29 185.374 259.88 186.473 259.416C185.892 259.276 185.297 259.199 184.701 259.184ZM185.142 257.366C185.026 257.366 184.91 257.396 184.802 257.451C184.701 257.497 184.531 257.59 184.531 257.698C184.531 258.031 185.614 258.611 186.72 259.029C186.473 258.371 186.032 257.814 185.444 257.427C185.351 257.389 185.242 257.366 185.142 257.366Z" fill="#3CC18E"/>
<path d="M236.125 258.711C236.125 258.1 228.675 258.58 228.675 258.58C228.675 258.58 224.103 263.222 219.662 264.274C215.221 265.326 217.697 267.987 222.664 267.987H234.949C238.477 267.987 236.288 264.978 236.125 258.711Z" fill="#263238"/>
<path d="M224.768 260.483C224.536 260.499 224.303 260.437 224.11 260.305C223.901 260.104 223.832 259.802 223.932 259.532C223.986 259.315 224.133 259.137 224.327 259.029C224.853 258.812 225.433 258.75 225.99 258.851C225.387 258.526 224.86 258.131 224.837 257.745C224.837 257.489 225 257.28 225.325 257.118C225.626 256.979 225.982 256.979 226.284 257.118C227.29 257.536 227.916 259.261 227.947 259.346C227.947 259.377 227.947 259.4 227.947 259.431C227.947 259.431 227.947 259.47 227.947 259.493C227.947 259.493 227.947 259.532 227.947 259.547L227.885 259.594C226.903 260.066 225.851 260.367 224.768 260.483ZM225.394 259.184C225.093 259.168 224.791 259.222 224.52 259.346C224.412 259.4 224.342 259.493 224.311 259.609C224.234 259.895 224.311 259.973 224.358 259.996C224.706 260.29 226.067 259.88 227.166 259.416C226.586 259.276 225.99 259.199 225.394 259.184ZM225.835 257.366C225.719 257.366 225.603 257.396 225.495 257.451C225.394 257.497 225.224 257.59 225.224 257.698C225.224 258.031 226.307 258.611 227.413 259.029C227.166 258.371 226.725 257.814 226.137 257.427C226.044 257.389 225.936 257.366 225.835 257.366Z" fill="#3CC18E"/>
<path d="M223.36 73.7588C223.36 73.7588 225.681 67.9101 231.097 69.8906C240.612 73.3255 237.719 99.4434 237.719 99.4434L228.196 100.527C228.196 100.527 230.756 80.118 229.224 77.2788C227.693 74.4396 225.658 77.6192 225.658 77.6192L223.36 73.7588Z" fill="#263238"/>
<path d="M251.884 174.045C251.884 174.045 240.071 176.884 228.42 173.62L228.002 167.5L226.23 172.738C214.425 174.045 206.766 168.962 206.766 168.962C208.785 157.536 212.088 146.38 216.606 135.696L219.368 122.668L244.666 124.625C250.167 135.124 251.845 152.84 251.884 174.045Z" fill="#263238"/>
<path d="M218.748 129.298L245.47 136.423C244.696 133.213 243.543 129.197 242.097 124.772L242.537 97.9116C242.537 97.9116 225.293 88.0555 211.515 95.2039C211.515 95.2039 210.996 109.686 212.095 114.777C212.954 118.715 217.812 125.376 218.748 129.298Z" fill="#3CC18E"/>
<path opacity="0.6" d="M218.748 129.298L245.47 136.423C244.696 133.213 243.543 129.197 242.097 124.772L242.537 97.9116C242.537 97.9116 225.293 88.0555 211.515 95.2039C211.515 95.2039 210.996 109.686 212.095 114.777C212.954 118.715 217.812 125.376 218.748 129.298Z" fill="white"/>
<path d="M221.147 102.971C219.136 101.795 217.465 100.116 216.289 98.105C214.989 95.8383 214.826 93.7804 215.716 93.3085C217.263 92.4885 223.599 87.8931 223.599 87.8931C223.723 88.3805 223.909 88.8524 224.157 89.2856C224.992 90.7942 227.011 93.1538 231.723 94.4303C238.995 96.3953 226.477 106.128 221.147 102.971Z" fill="#F5B8A3"/>
<path opacity="0.2" d="M220.489 97.7415C220.443 98.8168 220.753 99.8767 221.371 100.759C219.569 100.101 217.859 99.2114 216.289 98.1205C214.989 95.8538 214.826 93.7959 215.716 93.324C217.263 92.504 223.599 87.9086 223.599 87.9086C223.723 88.396 223.909 88.8679 224.157 89.3011C224.551 92.326 223.135 95.3741 220.489 97.7415Z" fill="#263238"/>
<path d="M249.809 137.437C249.809 137.437 236.395 140.307 231.683 135.247C228.643 132.044 226.159 128.362 224.334 124.347C224.125 123.883 223.939 123.426 223.769 122.985C221.448 117.136 221.804 113.075 221.804 113.075L222.624 112.518C234.306 104.217 236.596 94.5695 236.596 94.5695L242.537 97.9116L247.179 125.267C247.829 129.368 248.703 133.429 249.809 137.437Z" fill="#3CC18E"/>
<path d="M223.568 124.819C221.387 132.292 217.232 130.923 217.232 130.923C217.232 130.923 216.845 129.538 216.227 127.704C215.538 125.585 214.664 123.527 213.619 121.554C209.372 114.096 210.718 94.5773 210.718 94.5773L213.132 93.8036C213.132 93.8036 213 105.547 222.624 112.518C223.669 115.906 224.056 119.457 223.769 122.993C223.769 123.604 223.7 124.215 223.568 124.819Z" fill="#3CC18E"/>
<path d="M223.019 114.344C222.996 114.638 222.733 114.854 222.439 114.823C222.145 114.8 221.928 114.537 221.959 114.243C221.99 113.949 222.245 113.732 222.539 113.763C222.833 113.794 223.042 114.05 223.019 114.344Z" fill="#263238"/>
<path d="M224.041 120.618C224.018 120.904 223.762 121.121 223.476 121.097C223.476 121.097 223.468 121.097 223.461 121.097C223.167 121.09 222.934 120.842 222.95 120.54C222.958 120.246 223.205 120.014 223.507 120.03C223.53 120.03 223.553 120.03 223.577 120.03C223.863 120.061 224.079 120.316 224.048 120.602L224.041 120.618Z" fill="#263238"/>
<path opacity="0.2" d="M231.684 135.247C228.643 132.044 226.16 128.362 224.334 124.347C228.481 121.662 234.917 113.028 238.337 104.047L242.816 113.036C242.816 113.036 243.675 127.333 231.684 135.247Z" fill="#263238"/>
<path opacity="0.2" d="M223.568 124.819C221.387 132.292 217.232 130.923 217.232 130.923C217.232 130.923 216.845 129.538 216.227 127.704C218.826 127.178 221.309 126.196 223.568 124.819Z" fill="#263238"/>
<path d="M207.585 79.3289C207.585 79.3289 206.548 69.7823 221.34 71.5926C225.038 72.8691 227.73 76.0796 228.342 79.9478C229.448 86.5933 229.788 91.2429 224.303 91.3357C218.818 91.4286 207.585 79.3289 207.585 79.3289Z" fill="#263238"/>
<path d="M214.455 75.8708C208.491 77.3175 207.346 80.969 208.406 87.22C209.721 95.026 212.746 100.07 219.801 96.6197C229.379 91.9392 224.35 73.4725 214.455 75.8708Z" fill="#F5B8A3"/>
<path d="M212.172 85.9513C211.909 86.957 211.53 87.9318 211.035 88.8446C211.515 89.2624 212.188 89.3707 212.776 89.1386L212.172 85.9513Z" fill="#F98A8A"/>
<path d="M215.701 84.5897C215.809 85.0771 216.165 85.4175 216.474 85.3633C216.784 85.3091 216.985 84.8372 216.876 84.3421C216.768 83.847 216.412 83.5066 216.103 83.5685C215.793 83.6304 215.592 84.0868 215.701 84.5897Z" fill="#263238"/>
<path d="M216.242 83.553L215.082 83.3673C215.082 83.3673 215.809 84.1487 216.242 83.553Z" fill="#263238"/>
<path d="M209.558 85.812C209.666 86.3071 210.022 86.6475 210.332 86.5856C210.641 86.5237 210.842 86.0596 210.734 85.5644C210.626 85.0693 210.27 84.7366 209.96 84.7908C209.651 84.845 209.45 85.3169 209.558 85.812Z" fill="#263238"/>
<path d="M210.099 84.783L208.938 84.5974C208.938 84.5974 209.666 85.3633 210.099 84.783Z" fill="#263238"/>
<path d="M217.566 81C217.504 81 217.449 80.9768 217.403 80.9381C216.637 80.4816 215.701 80.3888 214.866 80.706C214.726 80.7601 214.572 80.6905 214.517 80.5513C214.517 80.5513 214.517 80.5513 214.517 80.5435C214.463 80.4043 214.533 80.2495 214.672 80.1954C215.693 79.8008 216.846 79.9169 217.767 80.5048C217.883 80.5977 217.906 80.7756 217.805 80.8994C217.751 80.9613 217.674 81 217.596 81H217.573H217.566Z" fill="#263238"/>
<path d="M208.119 82.586C207.972 82.586 207.849 82.4699 207.841 82.3229C207.841 82.2533 207.864 82.1837 207.918 82.1295C208.522 81.3791 209.442 80.9536 210.402 80.9768C210.549 80.9845 210.657 81.1161 210.641 81.263V81.2785C210.634 81.4255 210.502 81.5338 210.355 81.5183H210.34C209.551 81.5261 208.816 81.8897 208.32 82.5009C208.266 82.555 208.197 82.586 208.119 82.586Z" fill="#263238"/>
<path d="M223.406 84.3343C223.406 84.3343 219.43 80.1103 218.935 76.2344C218.935 76.2344 205.953 74.2693 208.282 86.3999C208.282 86.3999 204.545 76.0332 214.726 73.31C224.907 70.5868 228.512 85.5876 224.304 91.3357C224.304 91.3357 225.867 86.9801 223.406 84.3343Z" fill="#263238"/>
<path d="M222.733 85.8275C222.493 84.3576 223.483 82.9728 224.953 82.7329C224.953 82.7329 224.961 82.7329 224.969 82.7329C226.864 82.4854 228.667 86.0673 224.296 88.0942C223.661 88.4037 223.135 87.8544 222.733 85.8275Z" fill="#F5B8A3"/>
<path d="M218.833 71.2986C218.833 71.2986 205.016 71.198 205.465 83.8392C206.679 83.0192 208.002 82.3693 209.395 81.9129C209.758 80.443 210.385 79.0427 211.259 77.8049C210.633 79.0117 210.215 80.3192 210.029 81.673C211.221 81.3094 212.451 81.0696 213.696 80.9535C213.673 79.7467 213.812 78.5475 214.106 77.3794C214.129 78.5553 214.246 79.7312 214.462 80.8917C215.793 80.8298 217.131 80.9071 218.446 81.1315C217.866 79.9401 217.441 78.6791 217.185 77.3794C217.533 78.8106 218.207 80.1335 219.166 81.2475C219.599 81.3326 220.04 81.4409 220.489 81.5725C221.162 81.7659 218.013 77.8049 219.793 74.9501C221.572 72.0954 218.833 71.2986 218.833 71.2986Z" fill="#263238"/>
<path d="M213.573 91.0263C214.161 91.4982 214.71 92.0166 215.221 92.5736L215.554 92.357C217.031 91.3435 217.387 90.3842 217.325 89.626C217.287 89.2624 217.171 88.9066 216.97 88.5971C216.861 88.4192 216.73 88.2567 216.575 88.1097C215.933 89.1386 215.082 90.0206 214.076 90.6936C213.774 90.8948 213.573 91.0263 213.573 91.0263Z" fill="#263238"/>
<path d="M214.076 90.6704L214.571 91.1114C215.964 90.1521 216.815 89.2934 216.97 88.5739C216.861 88.3959 216.73 88.2335 216.575 88.0865C215.933 89.1154 215.082 89.9974 214.076 90.6704Z" fill="white"/>
<path d="M215.554 92.326C217.031 91.3125 217.387 90.3532 217.325 89.595C216.768 89.9973 216.289 90.4847 215.902 91.0495C215.654 91.4285 215.53 91.8773 215.554 92.326Z" fill="#F98A8A"/>
<path d="M196.522 121.863C196.174 121.879 195.857 121.67 195.748 121.337C195.71 121.221 191.586 109.787 185.83 108.394C184.02 107.953 182.248 108.572 180.415 110.29C180.098 110.591 179.595 110.576 179.293 110.259C178.991 109.942 179.007 109.439 179.324 109.137C181.544 107.048 183.858 106.275 186.202 106.816C192.785 108.418 197.033 120.27 197.241 120.742C197.396 121.144 197.195 121.585 196.793 121.74C196.777 121.74 196.762 121.747 196.754 121.755C196.684 121.809 196.607 121.848 196.522 121.863Z" fill="#263238"/>
<g opacity="0.4">
<path d="M196.522 121.863C196.174 121.879 195.857 121.67 195.748 121.337C195.71 121.221 191.586 109.787 185.83 108.394C184.02 107.953 182.248 108.572 180.415 110.29C180.098 110.591 179.595 110.576 179.293 110.259C178.991 109.942 179.007 109.439 179.324 109.137C181.544 107.048 183.858 106.275 186.202 106.816C192.785 108.417 197.033 120.27 197.241 120.741C197.396 121.144 197.195 121.585 196.793 121.739C196.777 121.739 196.762 121.747 196.754 121.755C196.684 121.809 196.607 121.848 196.522 121.863Z" fill="white"/>
</g>
<path d="M178.604 130.079L193.18 149.126C193.18 149.126 203.167 147.625 208.297 138.21L196.39 119.016C188.933 119.334 182.186 123.535 178.604 130.079Z" fill="#263238"/>
<path opacity="0.6" d="M208.297 138.203C203.16 147.618 193.18 149.134 193.18 149.134L178.597 130.079C182.179 123.55 188.901 119.357 196.336 119.009H196.383L208.297 138.203Z" fill="white"/>
<path opacity="0.6" d="M196.383 119.016C196.383 119.016 194.534 122.653 188.151 126.83C181.769 131.008 178.597 130.079 178.597 130.079C182.179 123.55 188.901 119.357 196.336 119.009H196.383V119.016Z" fill="white"/>
<path d="M189.444 139.665C189.444 139.665 181.003 138.527 178.474 138.535C175.944 138.543 174.304 143.177 174.304 143.177L176.563 144.012C176.563 144.012 178.551 141.158 180.005 141.506C181.46 141.854 191.417 145.838 191.417 145.838C191.417 145.838 193.002 141.065 189.444 139.665Z" fill="#263238"/>
<path opacity="0.4" d="M189.444 139.665C189.444 139.665 181.003 138.527 178.474 138.535C175.944 138.543 174.304 143.177 174.304 143.177L176.563 144.012C176.563 144.012 178.551 141.158 180.005 141.506C181.46 141.854 191.417 145.838 191.417 145.838C191.417 145.838 193.002 141.065 189.444 139.665Z" fill="white"/>
<path d="M169.708 143.989C169.708 143.989 172.532 141.777 175.665 142.512C178.798 143.247 179.773 147.293 179.773 147.293C179.773 147.293 174.025 150.728 169.708 143.989Z" fill="#263238"/>
<path opacity="0.6" d="M179.812 147.293C179.812 147.293 174.049 150.728 169.755 143.997C169.755 143.997 172.571 141.784 175.704 142.512C178.837 143.239 179.812 147.293 179.812 147.293Z" fill="white"/>
<path opacity="0.2" d="M179.812 147.293C179.812 147.293 174.049 150.728 169.755 143.997C169.755 143.997 175.364 141.715 179.812 147.293Z" fill="#263238"/>
<path d="M180.895 131.944C180.647 131.944 180.408 131.843 180.245 131.658C180.137 131.526 169.414 118.405 179.317 109.137C179.634 108.835 180.137 108.851 180.439 109.168C180.74 109.485 180.725 109.988 180.408 110.29C171.619 118.544 181.065 130.149 181.475 130.636C181.761 130.954 181.738 131.441 181.421 131.727C181.398 131.743 181.382 131.766 181.359 131.781C181.228 131.882 181.065 131.944 180.895 131.944Z" fill="#263238"/>
<g opacity="0.4">
<path d="M180.895 131.944C180.647 131.944 180.408 131.843 180.245 131.658C180.137 131.526 169.414 118.405 179.317 109.137C179.634 108.835 180.137 108.851 180.439 109.168C180.74 109.485 180.725 109.988 180.408 110.29C171.619 118.544 181.065 130.149 181.475 130.636C181.761 130.954 181.738 131.441 181.421 131.727C181.398 131.743 181.382 131.766 181.359 131.781C181.228 131.882 181.065 131.944 180.895 131.944Z" fill="white"/>
</g>
<path d="M163.921 157.396C163.821 157.923 163.751 158.456 163.705 158.944C163.689 159.098 163.797 159.238 163.952 159.253C163.952 159.253 163.952 159.253 163.96 159.253C163.991 159.261 164.03 159.261 164.06 159.253C164.177 159.222 164.262 159.122 164.277 159.006C164.324 158.487 164.393 157.969 164.486 157.458C164.517 157.304 164.409 157.157 164.254 157.126C164.099 157.095 163.96 157.195 163.929 157.342C163.929 157.358 163.929 157.373 163.929 157.396H163.921Z" fill="#3CC18E"/>
<path d="M164.826 154.093C164.548 154.851 164.308 155.625 164.122 156.414C164.083 156.569 164.176 156.723 164.331 156.762C164.377 156.777 164.424 156.777 164.47 156.762C164.571 156.739 164.656 156.654 164.679 156.553C164.865 155.764 165.097 154.99 165.368 154.232C165.422 154.085 165.352 153.93 165.205 153.869C165.205 153.869 165.205 153.869 165.197 153.869C165.05 153.814 164.896 153.892 164.842 154.031C164.842 154.047 164.826 154.07 164.826 154.085V154.093Z" fill="#3CC18E"/>
<path d="M167.557 149.157C167.426 149.072 167.248 149.119 167.163 149.25C166.489 150.364 165.894 151.517 165.375 152.708C165.314 152.855 165.375 153.025 165.522 153.087C165.584 153.11 165.646 153.11 165.708 153.087C165.793 153.064 165.863 153.002 165.901 152.925C166.404 151.757 166.992 150.619 167.658 149.536C167.727 149.405 167.689 149.235 167.557 149.157Z" fill="#3CC18E"/>
<path d="M168.099 148.708C168.168 148.685 168.223 148.647 168.261 148.585C168.865 147.687 169.29 147.161 169.29 147.153C169.391 147.03 169.375 146.852 169.252 146.751C169.136 146.643 168.965 146.643 168.849 146.751C168.849 146.751 168.401 147.308 167.789 148.237C167.704 148.36 167.728 148.538 167.859 148.623C167.859 148.623 167.859 148.623 167.867 148.623C167.929 148.678 168.014 148.708 168.099 148.701V148.708Z" fill="#3CC18E"/>
<path d="M178.357 160.499C178.21 160.553 178.133 160.715 178.187 160.862C178.365 161.365 178.566 161.853 178.791 162.332C178.853 162.456 178.992 162.518 179.123 162.487H179.17C179.309 162.417 179.379 162.255 179.309 162.108C179.092 161.659 178.899 161.18 178.721 160.692C178.682 160.545 178.528 160.452 178.381 160.491C178.373 160.491 178.365 160.491 178.357 160.491V160.499Z" fill="#3CC18E"/>
<path d="M178.264 160.135C178.411 160.096 178.504 159.942 178.465 159.795C178.465 159.795 178.465 159.787 178.465 159.779C178.233 159.013 178.047 158.24 177.9 157.458C177.877 157.303 177.738 157.203 177.583 157.226C177.583 157.226 177.575 157.226 177.567 157.226C177.413 157.257 177.312 157.404 177.335 157.559C177.482 158.363 177.676 159.16 177.916 159.949C177.962 160.096 178.124 160.181 178.271 160.135H178.264Z" fill="#3CC18E"/>
<path d="M177.173 151.896C177.019 151.888 176.887 152.004 176.879 152.159C176.879 152.159 176.879 152.167 176.879 152.174C176.856 153.466 176.926 154.758 177.073 156.043C177.096 156.205 177.235 156.313 177.398 156.298H177.436C177.576 156.259 177.661 156.12 177.645 155.981C177.491 154.712 177.429 153.443 177.452 152.167C177.452 152.02 177.32 151.896 177.173 151.896Z" fill="#3CC18E"/>
<path d="M177.421 148.979C177.267 148.956 177.12 149.064 177.096 149.219C177.096 149.219 176.988 149.923 176.926 151.029C176.911 151.184 177.027 151.316 177.181 151.331C177.181 151.331 177.189 151.331 177.197 151.331C177.228 151.339 177.251 151.339 177.282 151.331C177.398 151.3 177.491 151.2 177.499 151.076C177.561 149.993 177.661 149.32 177.661 149.32C177.692 149.165 177.592 149.01 177.437 148.979C177.437 148.979 177.429 148.979 177.421 148.979Z" fill="#3CC18E"/>
<path d="M172.346 148.848C172.122 149.312 171.905 149.799 171.712 150.302C171.657 150.449 171.735 150.619 171.882 150.674C171.936 150.697 172.006 150.697 172.06 150.674C172.145 150.65 172.222 150.581 172.253 150.496C172.439 150.016 172.64 149.544 172.864 149.095C172.934 148.948 172.88 148.778 172.733 148.709C172.586 148.639 172.416 148.693 172.346 148.84V148.848Z" fill="#3CC18E"/>
<path d="M171.395 151.223C171.14 152.004 170.931 152.793 170.768 153.598C170.737 153.753 170.838 153.907 170.993 153.938C171.039 153.954 171.078 153.954 171.124 153.938C171.232 153.915 171.31 153.83 171.333 153.722C171.488 152.94 171.689 152.159 171.936 151.401C171.983 151.254 171.906 151.091 171.759 151.037C171.612 150.991 171.457 151.068 171.403 151.215C171.403 151.215 171.403 151.215 171.403 151.223H171.395Z" fill="#3CC18E"/>
<path d="M170.528 155.06C170.35 156.344 170.265 157.636 170.265 158.928C170.265 159.083 170.381 159.207 170.535 159.214C170.535 159.214 170.543 159.214 170.551 159.214H170.621C170.744 159.184 170.837 159.067 170.837 158.936C170.837 157.659 170.922 156.391 171.1 155.13C171.116 154.975 171.007 154.828 170.853 154.805C170.698 154.782 170.551 154.89 170.528 155.045C170.528 155.045 170.528 155.052 170.528 155.06Z" fill="#3CC18E"/>
<path d="M170.529 159.81C170.374 159.81 170.243 159.949 170.25 160.104C170.25 160.104 170.25 160.104 170.25 160.112C170.297 161.218 170.39 161.899 170.39 161.93C170.413 162.085 170.56 162.193 170.714 162.17C170.854 162.131 170.939 161.992 170.923 161.853C170.923 161.853 170.831 161.172 170.784 160.096C170.784 159.949 170.676 159.826 170.529 159.81Z" fill="#3CC18E"/>
<g opacity="0.6">
<path d="M163.921 157.396C163.821 157.923 163.751 158.456 163.705 158.944C163.689 159.098 163.797 159.238 163.952 159.253C163.952 159.253 163.952 159.253 163.96 159.253C163.991 159.261 164.03 159.261 164.06 159.253C164.177 159.222 164.262 159.122 164.277 159.006C164.324 158.487 164.393 157.969 164.486 157.458C164.517 157.304 164.409 157.157 164.254 157.126C164.099 157.095 163.96 157.195 163.929 157.342C163.929 157.358 163.929 157.373 163.929 157.396H163.921Z" fill="white"/>
<path d="M164.826 154.093C164.548 154.851 164.308 155.625 164.122 156.414C164.083 156.569 164.176 156.723 164.331 156.762C164.377 156.778 164.424 156.778 164.47 156.762C164.571 156.739 164.656 156.654 164.679 156.553C164.865 155.764 165.097 154.99 165.368 154.232C165.422 154.085 165.352 153.931 165.205 153.869C165.205 153.869 165.205 153.869 165.197 153.869C165.05 153.814 164.896 153.892 164.842 154.031C164.842 154.047 164.826 154.07 164.826 154.085V154.093Z" fill="white"/>
<path d="M167.557 149.157C167.426 149.072 167.248 149.119 167.163 149.25C166.489 150.364 165.894 151.517 165.375 152.708C165.314 152.855 165.375 153.025 165.522 153.087C165.584 153.111 165.646 153.111 165.708 153.087C165.793 153.064 165.863 153.002 165.901 152.925C166.404 151.757 166.992 150.619 167.658 149.536C167.727 149.405 167.689 149.235 167.557 149.157Z" fill="white"/>
<path d="M168.099 148.709C168.168 148.685 168.223 148.647 168.261 148.585C168.865 147.687 169.29 147.161 169.29 147.154C169.391 147.03 169.375 146.852 169.252 146.751C169.136 146.643 168.965 146.643 168.849 146.751C168.849 146.751 168.401 147.308 167.789 148.237C167.704 148.36 167.728 148.538 167.859 148.623C167.859 148.623 167.859 148.623 167.867 148.623C167.929 148.678 168.014 148.709 168.099 148.701V148.709Z" fill="white"/>
<path d="M178.357 160.499C178.21 160.553 178.133 160.715 178.187 160.862C178.365 161.365 178.566 161.853 178.791 162.332C178.853 162.456 178.992 162.518 179.123 162.487H179.17C179.309 162.417 179.379 162.255 179.309 162.108C179.092 161.659 178.899 161.179 178.721 160.692C178.682 160.545 178.528 160.452 178.381 160.491C178.373 160.491 178.365 160.491 178.357 160.491V160.499Z" fill="white"/>
<path d="M178.264 160.135C178.411 160.096 178.504 159.942 178.465 159.795C178.465 159.795 178.465 159.787 178.465 159.779C178.233 159.013 178.047 158.24 177.9 157.458C177.877 157.304 177.738 157.203 177.583 157.226C177.583 157.226 177.575 157.226 177.567 157.226C177.413 157.257 177.312 157.404 177.335 157.559C177.482 158.363 177.676 159.16 177.916 159.949C177.962 160.096 178.124 160.181 178.271 160.135H178.264Z" fill="white"/>
<path d="M177.173 151.896C177.019 151.888 176.887 152.004 176.879 152.159C176.879 152.159 176.879 152.167 176.879 152.175C176.856 153.466 176.926 154.758 177.073 156.043C177.096 156.205 177.235 156.313 177.398 156.298H177.436C177.576 156.259 177.661 156.12 177.645 155.981C177.491 154.712 177.429 153.443 177.452 152.167C177.452 152.02 177.32 151.896 177.173 151.896Z" fill="white"/>
<path d="M177.421 148.979C177.267 148.956 177.12 149.064 177.096 149.219C177.096 149.219 176.988 149.923 176.926 151.029C176.911 151.184 177.027 151.316 177.181 151.331C177.181 151.331 177.189 151.331 177.197 151.331C177.228 151.339 177.251 151.339 177.282 151.331C177.398 151.3 177.491 151.2 177.499 151.076C177.561 149.993 177.661 149.32 177.661 149.32C177.692 149.165 177.592 149.01 177.437 148.979C177.437 148.979 177.429 148.979 177.421 148.979Z" fill="white"/>
<path d="M172.346 148.848C172.122 149.312 171.905 149.799 171.712 150.302C171.657 150.449 171.735 150.62 171.882 150.674C171.936 150.697 172.006 150.697 172.06 150.674C172.145 150.65 172.222 150.581 172.253 150.496C172.439 150.016 172.64 149.544 172.864 149.095C172.934 148.948 172.88 148.778 172.733 148.709C172.586 148.639 172.416 148.693 172.346 148.84V148.848Z" fill="white"/>
<path d="M171.395 151.223C171.14 152.004 170.931 152.793 170.768 153.598C170.737 153.753 170.838 153.907 170.993 153.938C171.039 153.954 171.078 153.954 171.124 153.938C171.232 153.915 171.31 153.83 171.333 153.722C171.488 152.94 171.689 152.159 171.936 151.401C171.983 151.254 171.906 151.091 171.759 151.037C171.612 150.991 171.457 151.068 171.403 151.215C171.403 151.215 171.403 151.215 171.403 151.223H171.395Z" fill="white"/>
<path d="M170.528 155.06C170.35 156.344 170.265 157.636 170.265 158.928C170.265 159.083 170.381 159.207 170.535 159.215C170.535 159.215 170.543 159.215 170.551 159.215H170.621C170.744 159.184 170.837 159.068 170.837 158.936C170.837 157.66 170.922 156.391 171.1 155.13C171.116 154.975 171.007 154.828 170.853 154.805C170.698 154.782 170.551 154.89 170.528 155.045C170.528 155.045 170.528 155.052 170.528 155.06Z" fill="white"/>
<path d="M170.529 159.81C170.374 159.81 170.243 159.95 170.25 160.104C170.25 160.104 170.25 160.104 170.25 160.112C170.297 161.218 170.39 161.899 170.39 161.93C170.413 162.085 170.56 162.193 170.714 162.17C170.854 162.131 170.939 161.992 170.923 161.853C170.923 161.853 170.831 161.172 170.784 160.097C170.784 159.95 170.676 159.826 170.529 159.81Z" fill="white"/>
</g>
<path d="M216.946 130.141L210.308 132.996C209.062 132.06 204.01 136.369 203.678 137.135C203.345 137.901 205.457 142.032 206.355 142.612C207.252 143.192 211.197 137.646 211.592 137.019C211.987 136.392 212.281 135.827 212.281 135.827L218.431 133.816L216.946 130.141Z" fill="#F5B8A3"/>
<path d="M242.538 97.9116C250.901 103.869 237.757 124.525 235.753 126.807C233.749 129.089 215.298 135.526 215.298 135.526L213.023 131.07C213.023 131.07 227.297 124.486 229.533 121.631C231.769 118.777 236.155 111.419 238.654 103.288C239.892 99.2887 242.538 97.9116 242.538 97.9116Z" fill="#3CC18E"/>
<path d="M148.116 169.071C149.555 169.542 150.685 170.68 151.149 172.126C152.124 174.486 154.367 176.072 156.92 176.203C157.756 176.234 158.56 176.497 159.241 176.977L159.968 177.403C159.968 177.147 159.914 176.876 159.899 176.629C159.69 176.474 159.496 176.304 159.295 176.126L159.164 175.995C156.889 173.813 156.843 171.515 154.174 169.442C151.505 167.369 148.116 169.071 148.116 169.071Z" fill="#3CC18E"/>
<path d="M170.18 166.788C168.819 167.461 167.867 168.746 167.612 170.239C166.978 172.722 164.982 174.61 162.467 175.105C161.647 175.267 160.897 175.654 160.293 176.227L159.636 176.745V175.971C159.814 175.786 159.984 175.592 160.154 175.383L160.27 175.244C162.212 172.753 161.949 170.471 164.285 168.049C166.622 165.628 170.18 166.788 170.18 166.788Z" fill="#3CC18E"/>
<path d="M160.301 176.211C160.363 177.65 160.216 179.089 159.86 180.489C158.583 185.448 159.148 180.559 159.148 180.559C159.512 179.313 159.674 178.021 159.643 176.73V175.956C159.566 174.966 159.365 173.991 159.048 173.055C157.701 169.187 155.001 167.949 153.942 163.771C152.882 159.594 156.564 156.615 156.564 156.615C156.379 158.51 157.121 160.383 158.552 161.644C161.028 164.057 161.384 168.243 160.324 170.37C159.697 171.608 160.092 173.163 160.278 175.236C160.254 175.53 160.301 175.879 160.301 176.211Z" fill="#3CC18E"/>
<path d="M142.066 168.483C141.223 169.744 139.823 170.525 138.306 170.571C135.769 170.873 133.634 172.614 132.821 175.035C132.551 175.824 132.063 176.513 131.421 177.039C131.228 177.225 131.421 177.364 131.235 177.573C131.491 177.612 131.328 177.712 131.599 177.766C131.8 177.619 132.017 177.465 132.241 177.325L132.404 177.232C135.119 175.639 137.355 176.196 140.063 174.2C142.77 172.204 142.066 168.483 142.066 168.483Z" fill="#3CC18E"/>
<path d="M121.062 170.463C122.424 171.128 123.383 172.413 123.631 173.906C124.265 176.381 126.269 178.269 128.776 178.756C129.596 178.919 130.346 179.313 130.95 179.886L131.607 180.404C131.607 180.149 131.607 179.878 131.654 179.631C131.468 179.445 131.29 179.252 131.127 179.05L131.011 178.903C129.07 176.42 129.333 174.138 126.996 171.709C124.66 169.279 121.062 170.463 121.062 170.463Z" fill="#3CC18E"/>
<path d="M130.949 177.596C130.887 179.035 131.034 180.482 131.398 181.874C132.674 186.833 132.102 181.944 132.102 181.944C131.746 180.698 131.576 179.406 131.606 178.114C131.606 177.859 131.606 177.596 131.653 177.341C131.73 176.358 131.924 175.383 132.249 174.447C133.595 170.579 136.287 169.341 137.355 165.164C138.422 160.986 134.724 158 134.724 158C134.918 159.903 134.175 161.775 132.744 163.036C130.26 165.45 129.904 169.635 130.972 171.763C131.591 173.001 131.196 174.556 130.972 176.621C130.988 176.915 130.964 177.248 130.949 177.596Z" fill="#3CC18E"/>
<path d="M115.817 171.453C114.37 171.933 113.241 173.086 112.792 174.548C111.817 176.908 109.566 178.493 107.013 178.625C106.178 178.656 105.373 178.919 104.692 179.399L103.973 179.816C104.004 179.561 104.027 179.306 104.042 179.043C104.243 178.888 104.445 178.718 104.638 178.54L104.777 178.408C107.044 176.227 107.098 173.929 109.767 171.856C112.436 169.782 115.817 171.453 115.817 171.453Z" fill="#3CC18E"/>
<path d="M93.9777 166.239C94.6276 167.608 95.8963 168.583 97.3895 168.862C99.8496 169.535 101.706 171.562 102.155 174.076C102.302 174.896 102.681 175.654 103.246 176.265L103.756 176.938C103.501 176.938 103.756 177.905 103.501 177.929C103.199 177.387 102.82 176.884 102.387 176.435L102.24 176.319C99.7877 174.339 97.4978 174.563 95.115 172.188C92.7322 169.813 93.9777 166.239 93.9777 166.239Z" fill="#3CC18E"/>
<path d="M103.307 176.211C103.238 177.65 103.385 179.097 103.748 180.489C105.025 185.448 104.46 180.559 104.46 180.559C104.096 179.313 103.934 178.021 103.965 176.73V175.956C104.034 174.966 104.236 173.991 104.561 173.055C105.907 169.187 108.607 167.949 109.667 163.771C110.726 159.594 107.044 156.615 107.044 156.615C107.23 158.51 106.487 160.383 105.056 161.644C102.572 164.057 102.224 168.243 103.284 170.37C103.903 171.608 103.508 173.163 103.33 175.236C103.33 175.53 103.315 175.879 103.307 176.211Z" fill="#3CC18E"/>
<path d="M183.371 204.147V267.531H179.827V209.872H110.471V267.531H106.928V204.147H183.371Z" fill="#E4944B"/>
<path d="M155.52 204.147V267.531H151.977V209.872H82.6204V267.531H79.0771V204.147H155.52Z" fill="#CC753A"/>
<path d="M176.323 180.428L173.453 204.147H90.6202L87.75 180.428H176.323Z" fill="#3CC18E"/>
<path d="M176.323 180.428L175.929 183.708L175.836 184.481L175.457 187.576L175.364 188.35L174.707 193.765L174.614 194.539L173.453 204.147H90.6202L89.4597 194.539L89.3669 193.765L88.7093 188.35L88.6165 187.576L88.2374 184.481L88.1446 183.708L87.75 180.428H176.323Z" fill="#F5B8A3"/>
<g opacity="0.2">
<path d="M175.928 183.708L175.835 184.481H88.2364L88.1436 183.708H175.928Z" fill="white"/>
</g>
<g opacity="0.2">
<path d="M175.457 187.576L175.364 188.35H88.709L88.6162 187.576H175.457Z" fill="white"/>
</g>
<g opacity="0.2">
<path d="M174.707 193.765L174.614 194.539H89.46L89.3672 193.765H174.707Z" fill="white"/>
</g>
<path d="M36.5236 133.429C36.3147 133.429 36.1445 133.259 36.1445 133.05C36.1445 133.05 36.1445 133.05 36.1445 133.042C36.1445 132.416 36.5236 117.809 44.0743 112.402C44.2445 112.286 44.4843 112.324 44.6081 112.494C44.7319 112.665 44.6932 112.904 44.523 113.036C37.2895 118.212 36.9182 132.903 36.9182 133.05C36.9182 133.267 36.7402 133.437 36.5236 133.429Z" fill="#263238"/>
<path d="M46.4963 108.487C46.4963 108.487 48.3453 104.317 46.9451 104.696C44.2219 105.47 43.5488 109.338 43.5488 109.338C43.5488 109.338 43.7577 106.058 42.605 106.692C41.4522 107.327 40.9881 111.458 43.3399 114.05C45.6918 116.641 50.0319 116.092 50.1402 115.349C50.2485 114.607 48.2602 114.15 48.2602 114.15C48.2602 114.15 51.2697 113.547 52.051 111.427C52.8324 109.307 50.3181 110.932 48.5929 111.071C48.5929 111.071 51.7338 108.866 51.1459 106.963C50.5579 105.06 47.7961 107.195 46.4963 108.487Z" fill="#3CC18E"/>
<path d="M46.4963 108.487C46.4963 108.487 48.3453 104.317 46.9451 104.696C44.2219 105.47 43.5488 109.338 43.5488 109.338C43.5488 109.338 43.7577 106.058 42.605 106.692C41.4522 107.327 40.9881 111.458 43.3399 114.05C45.6918 116.641 50.0319 116.092 50.1402 115.349C50.2485 114.607 48.2602 114.15 48.2602 114.15C48.2602 114.15 51.2697 113.547 52.051 111.427C52.8324 109.307 50.3181 110.932 48.5929 111.071C48.5929 111.071 51.7338 108.866 51.1459 106.963C50.5579 105.06 47.7961 107.195 46.4963 108.487Z" fill="#3CC18E"/>
<path d="M34.5819 141.838C34.373 141.838 34.2028 141.668 34.1951 141.459C34.1951 141.312 33.8237 126.613 26.5903 121.438C26.4201 121.314 26.3814 121.066 26.5052 120.896C26.6289 120.726 26.8765 120.687 27.0467 120.811C34.5974 126.227 34.961 140.825 34.9687 141.444C34.9687 141.661 34.8063 141.831 34.5896 141.838H34.5819Z" fill="#263238"/>
<path d="M24.6179 116.873C24.6179 116.873 22.7689 112.696 24.1615 113.082C26.8847 113.856 27.5577 117.724 27.5577 117.724C27.5577 117.724 27.3566 114.444 28.5093 115.071C29.662 115.697 30.1184 119.836 27.7743 122.428C25.4302 125.02 21.0747 124.478 20.9664 123.728C20.858 122.977 22.8463 122.536 22.8463 122.536C22.8463 122.536 19.8368 121.925 19.0555 119.813C18.2741 117.701 20.7962 119.318 22.5136 119.457C22.5136 119.457 19.3727 117.245 19.9606 115.349C20.5486 113.454 23.3105 115.574 24.6179 116.873Z" fill="#3CC18E"/>
<path d="M24.6179 116.873C24.6179 116.873 22.7689 112.696 24.1615 113.082C26.8847 113.856 27.5577 117.724 27.5577 117.724C27.5577 117.724 27.3566 114.444 28.5093 115.071C29.662 115.697 30.1184 119.836 27.7743 122.428C25.4302 125.02 21.0747 124.478 20.9664 123.728C20.858 122.977 22.8463 122.536 22.8463 122.536C22.8463 122.536 19.8368 121.925 19.0555 119.813C18.2741 117.701 20.7962 119.318 22.5136 119.457C22.5136 119.457 19.3727 117.245 19.9606 115.349C20.5486 113.454 23.3105 115.574 24.6179 116.873Z" fill="#3CC18E"/>
<path d="M34.8146 137.583C34.6057 137.552 34.451 137.367 34.4665 137.158C34.4665 137.003 36.0137 121.445 31.8361 113.516C31.7355 113.33 31.8052 113.098 31.9908 113.005C31.9908 113.005 31.9908 113.005 31.9986 113.005C32.1843 112.904 32.4163 112.974 32.5169 113.152C36.8261 121.298 35.3097 136.585 35.2401 137.235C35.2169 137.444 35.0235 137.599 34.8146 137.583Z" fill="#263238"/>
<path d="M32.3156 107.497C32.3156 107.497 32.5631 102.081 33.8628 103.203C36.3772 105.447 35.0233 109.972 35.0233 109.972C35.0233 109.972 36.5706 106.36 37.4448 107.652C38.319 108.943 36.6247 113.601 32.7411 115.117C28.8574 116.633 24.5096 113.732 24.7881 112.881C25.0666 112.03 27.4339 112.603 27.4339 112.603C27.4339 112.603 24.5405 110.359 24.8345 107.682C25.1362 104.882 26.9543 108.077 28.7027 109.145C28.7027 109.145 26.5288 105.114 28.1689 103.397C29.809 101.679 31.6348 105.423 32.3156 107.497Z" fill="#F98A8A"/>
<path d="M63.5008 141.39C63.292 141.39 63.1218 141.212 63.114 141.003C63.114 140.856 62.7427 126.165 55.5092 120.989C55.339 120.857 55.3003 120.618 55.4241 120.447C55.5402 120.277 55.78 120.231 55.9502 120.347C63.5008 125.762 63.8722 140.361 63.8799 140.987C63.8799 141.204 63.7175 141.374 63.5008 141.382H63.4931L63.5008 141.39Z" fill="#263238"/>
<path d="M53.5281 116.44C53.5281 116.44 51.6791 112.27 53.0794 112.649C55.8026 113.423 56.4756 117.291 56.4756 117.291C56.4756 117.291 56.2668 114.011 57.4195 114.645C58.5722 115.28 59.0364 119.403 56.6458 122.002C54.2553 124.602 49.9539 124.045 49.8456 123.302C49.7373 122.559 51.7255 122.103 51.7255 122.103C51.7255 122.103 48.7161 121.5 47.9347 119.38C47.1533 117.26 49.6677 118.885 51.3929 119.024C51.3929 119.024 48.2519 116.819 48.8399 114.916C49.4278 113.013 52.2284 115.148 53.5281 116.44Z" fill="#3CC18E"/>
<path d="M53.5281 116.44C53.5281 116.44 51.6791 112.27 53.0794 112.649C55.8026 113.423 56.4756 117.291 56.4756 117.291C56.4756 117.291 56.2668 114.011 57.4195 114.645C58.5722 115.28 59.0364 119.403 56.6458 122.002C54.2553 124.602 49.9539 124.045 49.8456 123.302C49.7373 122.559 51.7255 122.103 51.7255 122.103C51.7255 122.103 48.7161 121.5 47.9347 119.38C47.1533 117.26 49.6677 118.885 51.3929 119.024C51.3929 119.024 48.2519 116.819 48.8399 114.916C49.4278 113.013 52.2284 115.148 53.5281 116.44Z" fill="#F98A8A"/>
<path d="M73.0012 113.531C73.0012 113.531 72.1347 107.443 75.0436 105.377C77.9525 103.311 75.2602 107.984 75.7554 112.541C75.7554 112.541 78.3934 104.619 82.7567 105.307C85.1705 105.686 78.5869 112.92 78.5869 112.92C78.5869 112.92 86.0524 108.518 87.2748 110.359C88.4971 112.2 80.0026 115.937 80.0026 115.937C80.0026 115.937 87.8086 114.947 88.1877 116.324C88.5667 117.701 79.5462 118.444 79.5462 118.444C79.5462 118.444 86.6636 119.519 86.5862 121.02C86.5089 122.521 81.6118 122.443 78.3238 120.687C78.3238 120.687 80.3121 123.07 82.0682 123.782C83.8244 124.494 76.5058 124.664 73.9992 120.177C72.3436 119.264 71.0903 117.755 70.5024 115.96C68.7617 109.346 71.8098 108.928 71.9413 110.382C72.1579 112.843 73.0012 113.531 73.0012 113.531Z" fill="#3CC18E"/>
<path d="M73.5819 119.898C73.5819 119.898 72.1584 118.823 72.1971 117.647C72.2357 116.471 74.3014 118.421 74.3014 118.421C74.3014 118.421 74.1157 116.394 75.075 116.471C76.0343 116.548 75.5005 118.575 75.5005 118.575C75.5005 118.575 77.8678 118.382 78.1773 118.916C78.4867 119.449 75.5392 119.89 75.5392 119.89C75.5392 119.89 77.8601 120.757 77.0864 121.678C76.3128 122.598 74.2704 121.445 73.5819 119.898Z" fill="#F5B8A3"/>
<path d="M70.5643 142.156C70.3632 142.156 70.2007 142.001 70.1852 141.8C70.1465 141.196 69.311 127.023 74.2236 119.457C74.3474 119.287 74.5872 119.248 74.7651 119.372C74.9276 119.488 74.974 119.705 74.8735 119.875C70.1001 127.232 70.9434 141.606 70.9511 141.746C70.9666 141.954 70.8119 142.14 70.603 142.156C70.603 142.156 70.603 142.156 70.5953 142.156H70.5643Z" fill="#263238"/>
<path d="M66.5412 137.274C66.4251 137.274 66.3168 137.22 66.2395 137.135C66.077 136.926 62.1624 132.021 65.0558 121.329C65.1099 121.113 65.3266 120.989 65.5432 121.043C65.7598 121.097 65.8836 121.314 65.8294 121.531C63.0521 131.797 66.8352 136.593 66.8738 136.64C67.0054 136.802 66.9821 137.05 66.8197 137.181C66.7423 137.243 66.6417 137.282 66.5412 137.274Z" fill="#263238"/>
<path d="M61.753 117.771C61.753 117.771 54.7903 112.456 54.6587 108.959C54.5272 105.462 63.0449 115.372 63.0449 115.372C63.0449 115.372 57.7842 106.46 60.051 105.47C62.3177 104.48 65.5206 114.235 65.5206 114.235C65.5206 114.235 63.3234 105.803 65.7527 105.725C68.1819 105.648 67.4392 114.39 67.4392 114.39C67.4392 114.39 68.9865 107.265 71.1294 108.023C73.2724 108.781 69.1412 115.852 69.1412 115.852C69.1412 115.852 74.603 112.371 76.3669 113.616C78.1308 114.862 70.2165 118.258 70.2165 118.258C70.2165 118.258 76.777 119.31 77.7053 120.695C78.6337 122.08 70.0927 121.121 70.0927 121.121C70.0927 121.121 75.2297 125.12 74.8196 126.667C74.4096 128.215 67.0059 121.825 67.0059 121.825C67.0059 121.825 71.5936 126.753 70.6884 127.24C69.7833 127.727 66.8203 125.128 65.273 122.598C65.3426 123.519 64.8784 124.393 64.0816 124.849C62.7432 125.546 61.5905 124.432 61.1263 123.263C60.6621 122.095 62.3951 120.424 62.3951 120.424C62.3951 120.424 58.0627 121.268 56.9796 118.359C55.8965 115.45 61.753 117.771 61.753 117.771Z" fill="#F5B8A3"/>
<path opacity="0.6" d="M62.9895 117.554C62.8966 115.829 65.8287 115.519 67.6932 117.33C68.5828 118.034 68.7376 119.318 68.0336 120.208C67.4533 120.943 66.4553 121.19 65.6043 120.819C64.1499 120.362 63.121 119.07 62.9895 117.554Z" fill="white"/>
<path d="M94.0517 140.16H93.9975C93.7886 140.129 93.6416 139.928 93.6726 139.719C93.6726 139.572 95.5525 125.02 89.1932 118.776C89.0463 118.629 89.0385 118.39 89.1932 118.243C89.3402 118.088 89.5878 118.088 89.7425 118.243C96.3803 124.726 94.5236 139.224 94.4462 139.843C94.4153 140.036 94.2451 140.167 94.0517 140.167V140.16Z" fill="#263238"/>
<path d="M87.9242 113.988C87.9242 113.988 86.7328 109.578 88.0557 110.166C90.6319 111.319 90.7093 115.272 90.7093 115.272C90.7093 115.272 91.0033 111.999 92.0477 112.796C93.0921 113.593 92.9141 117.755 90.1987 119.96C87.4832 122.165 83.2747 120.966 83.2747 120.215C83.2747 119.465 85.3171 119.31 85.3171 119.31C85.3171 119.31 82.4391 118.258 81.9827 116.045C81.5262 113.833 83.7775 115.821 85.4563 116.223C85.4563 116.223 82.6867 113.562 83.5532 111.775C84.4196 109.988 86.8334 112.51 87.9242 113.988Z" fill="#3CC18E"/>
<path opacity="0.3" d="M87.9242 113.988C87.9242 113.988 86.7328 109.578 88.0557 110.166C90.6319 111.319 90.7093 115.272 90.7093 115.272C90.7093 115.272 91.0033 111.999 92.0477 112.796C93.0921 113.593 92.9141 117.755 90.1987 119.96C87.4832 122.165 83.2747 120.966 83.2747 120.215C83.2747 119.465 85.3171 119.31 85.3171 119.31C85.3171 119.31 82.4391 118.258 81.9827 116.045C81.5262 113.833 83.7775 115.821 85.4563 116.223C85.4563 116.223 82.6867 113.562 83.5532 111.775C84.4196 109.988 86.8334 112.51 87.9242 113.988Z" fill="white"/>
<path d="M98.2217 112.727C98.2217 112.727 97.3553 106.63 100.264 104.565C103.173 102.499 100.481 107.18 100.976 111.729C100.976 111.729 103.614 103.814 107.977 104.503C110.391 104.882 103.807 112.115 103.807 112.115C103.807 112.115 111.265 107.713 112.495 109.547C113.725 111.38 105.223 115.125 105.223 115.125C105.223 115.125 113.029 114.142 113.408 115.519C113.787 116.896 104.767 117.639 104.767 117.639C104.767 117.639 111.884 118.714 111.807 120.215C111.729 121.716 106.832 121.639 103.544 119.883C103.544 119.883 105.533 122.265 107.289 122.977C109.045 123.689 101.757 123.89 99.2197 119.372C97.5642 118.459 96.3109 116.951 95.7152 115.156C93.9822 108.549 97.0304 108.131 97.1541 109.578C97.394 112.038 98.2217 112.727 98.2217 112.727Z" fill="#F5B8A3"/>
<path d="M98.7939 119.094C98.7939 119.094 97.3781 118.01 97.4168 116.842C97.4555 115.674 99.5211 117.616 99.5211 117.616C99.5211 117.616 99.3354 115.589 100.295 115.666C101.254 115.744 100.72 117.771 100.72 117.771C100.72 117.771 103.088 117.577 103.397 118.111C103.706 118.645 100.751 119.086 100.751 119.086C100.751 119.086 103.072 119.945 102.298 120.865C101.525 121.786 99.4824 120.641 98.7939 119.094Z" fill="#F5B8A3"/>
<path d="M95.7836 141.351C95.5825 141.351 95.4123 141.189 95.3968 140.987C95.3968 140.392 94.5303 126.219 99.4429 118.645C99.559 118.467 99.7988 118.413 99.9845 118.529C100.162 118.645 100.217 118.885 100.093 119.07C95.3194 126.42 96.1627 140.794 96.1704 140.941C96.1859 141.158 96.0235 141.336 95.8068 141.351H95.7836Z" fill="#263238"/>
<path d="M97.7413 136.941C97.5247 136.941 97.3545 136.771 97.3545 136.555C97.3545 136.291 97.3545 130.017 106.298 123.472C106.468 123.341 106.708 123.38 106.839 123.55C106.963 123.72 106.924 123.96 106.754 124.091C98.1668 130.381 98.1281 136.469 98.1281 136.547C98.1281 136.756 97.9579 136.934 97.749 136.941H97.7413Z" fill="#263238"/>
<path d="M105.904 118.629C105.904 118.629 103.776 110.119 105.857 107.311C107.938 104.503 108.41 117.554 108.41 117.554C108.41 117.554 109.865 107.311 112.278 107.953C114.692 108.595 111.079 118.212 111.079 118.212C111.079 118.212 114.622 110.251 116.603 111.682C118.583 113.113 112.503 119.504 112.503 119.504C112.503 119.504 118.166 114.9 119.357 116.835C120.548 118.769 112.92 121.708 112.92 121.708C112.92 121.708 119.357 122.397 119.96 124.47C120.564 126.544 112.278 124.238 112.278 124.238C112.278 124.238 116.734 129.159 116.603 130.814C116.471 132.47 110.414 126.404 110.414 126.404C110.414 126.404 111.961 132.725 110.646 133.684C109.331 134.644 107.551 125.02 107.551 125.02C107.551 125.02 108.062 131.735 107.048 131.549C106.035 131.363 105.362 127.503 105.687 124.586C105.169 125.337 104.271 125.731 103.366 125.6C101.881 125.306 101.679 123.72 102.051 122.505C102.422 121.291 104.805 121.082 104.805 121.082C104.805 121.082 100.898 119.032 101.888 116.1C102.879 113.168 105.904 118.629 105.904 118.629Z" fill="#F98A8A"/>
<path opacity="0.6" d="M107.041 119.233C108.039 117.833 110.522 119.419 110.855 121.995C111.118 123.093 110.445 124.2 109.346 124.47C108.425 124.695 107.474 124.262 107.041 123.418C106.19 122.157 106.19 120.494 107.041 119.233Z" fill="white"/>
<path d="M123.024 153.087V267.531H119.481V158.812H50.1243V267.531H46.5811V153.087H123.024Z" fill="#CC753A"/>
<path d="M92.0786 153.087V267.531H88.5353V158.812H19.179V267.531H15.6357V153.087H92.0786Z" fill="#E4944B"/>
<path d="M110.886 129.368L110.437 133.065L110.344 133.847L108.016 153.087H86.2999L83.9403 133.592L83.8397 132.756L83.4297 129.368H110.886Z" fill="#CC753A"/>
<g opacity="0.6">
<path d="M110.437 133.065L110.345 133.839C109.029 133.367 108.395 134.118 107.559 135.116C106.886 135.889 106.128 136.818 104.906 136.926C103.25 137.073 102.353 136.152 101.494 135.317C100.883 134.582 100.078 134.025 99.1733 133.708C98.0515 133.398 96.9762 134.272 95.8389 135.193C94.7017 136.114 93.6805 136.957 92.4194 136.957C92.2957 136.957 92.1719 136.957 92.0481 136.957C90.6014 136.756 89.7736 135.812 88.9536 134.907C88.3347 133.986 87.3986 133.328 86.3309 133.034C85.4877 132.918 84.6367 133.127 83.9404 133.615L83.8398 132.779C84.6367 132.315 85.5651 132.137 86.4779 132.276C87.7312 132.593 88.8298 133.344 89.5725 134.396C90.3461 135.232 91.0037 136.028 92.1641 136.191C93.3246 136.353 94.2762 135.51 95.3593 134.644C96.6048 133.63 97.8813 132.586 99.3899 133.011C100.434 133.359 101.363 133.986 102.074 134.822C102.91 135.665 103.575 136.322 104.859 136.206C105.772 136.121 106.368 135.433 106.995 134.659C107.799 133.638 108.728 132.555 110.437 133.065Z" fill="white"/>
</g>
<path d="M48.9953 129.368L48.2913 135.178L48.1908 135.998L46.1252 153.087H24.4092L22.158 134.489L22.0574 133.669L21.5391 129.368H48.9953Z" fill="#3CC18E"/>
<path opacity="0.6" d="M46.6505 134.249C47.1843 134.574 47.7336 134.899 48.2906 135.177L48.19 135.997C47.5247 135.68 46.8826 135.293 46.2559 134.914C44.8556 134.071 43.525 133.259 42.0396 133.321C41.0339 133.421 40.0978 133.885 39.4093 134.628C38.3262 135.758 36.8021 136.361 35.2394 136.284C33.6998 136.183 32.2067 135.703 30.8993 134.891C29.7311 134.21 28.4701 133.707 27.1472 133.414C25.5999 133.081 23.7432 133.692 22.1572 134.489L22.0566 133.669C23.7122 132.895 25.6308 132.299 27.3096 132.663C28.7022 132.973 30.0328 133.499 31.2706 134.21C32.4775 134.969 33.8623 135.417 35.2858 135.51C36.6474 135.572 37.9703 135.038 38.9064 134.04C39.7265 133.189 40.825 132.655 42.0009 132.547C43.7339 132.477 45.2193 133.383 46.6505 134.249Z" fill="white"/>
<path d="M48.9953 129.368L48.2913 135.178L48.1908 135.998L46.1252 153.087H24.4092L22.158 134.489L22.0574 133.669L21.5391 129.368H48.9953Z" fill="#934E42"/>
<path d="M79.9407 129.368L79.4069 133.754L79.2753 134.845L77.0705 153.087H55.3546L53.142 134.775L53.0182 133.762L52.4844 129.368H79.9407Z" fill="#3CC18E"/>
<path opacity="0.6" d="M79.4061 133.754L79.2746 134.845C78.0136 135.835 76.4199 136.307 74.8262 136.175C73.6657 136.114 72.6059 135.51 71.9715 134.543C71.4454 133.708 70.5248 133.205 69.5345 133.22C68.3663 133.104 67.2136 133.553 66.44 134.435C65.4033 135.495 63.9876 136.09 62.5022 136.075C60.1813 136.075 58.7965 134.814 57.7134 133.8C56.9939 133.127 56.4214 132.594 55.7638 132.586C55.0985 132.586 54.3713 133.359 53.5977 134.249L53.1257 134.775L53.002 133.762C53.8994 132.764 54.7426 131.82 55.7638 131.843C56.785 131.866 57.4504 132.539 58.224 133.267C59.2607 134.234 60.4366 135.332 62.4867 135.332C63.7864 135.348 65.032 134.822 65.9217 133.878C66.85 132.864 68.1961 132.346 69.5655 132.478C70.7723 132.478 71.8941 133.096 72.5517 134.102C73.0546 134.907 73.921 135.41 74.8726 135.441C76.7371 135.649 78.3849 134.613 79.4061 133.754Z" fill="white"/>
<path d="M79.9407 129.368L79.4069 133.754L79.2753 134.845L77.0705 153.087H55.3546L53.142 134.775L53.0182 133.762L52.4844 129.368H79.9407Z" fill="#263238"/>
<path d="M263.171 239.974C263.171 239.673 262.157 210.112 257.353 205.439C252.711 200.906 247.296 205.269 247.095 205.439L246.6 204.844C246.662 204.79 252.727 199.838 257.887 204.844C262.916 209.733 263.898 238.682 263.944 239.913L263.171 239.974Z" fill="#3CC18E"/>
<path d="M263.58 245.784C263.58 245.429 260.293 210.282 273.127 195.552L273.715 196.063C261.097 210.545 264.315 245.359 264.354 245.707L263.58 245.784Z" fill="#3CC18E"/>
<path d="M263.125 242.063L262.351 242.017C262.351 241.614 264.858 202.066 255.45 193.417L255.976 192.845C265.662 201.749 263.233 240.423 263.125 242.063Z" fill="#3CC18E"/>
<path d="M264.355 242.04H263.581C263.581 240.949 263.891 215.319 271.178 211.141C272.586 210.228 274.342 210.058 275.897 210.685C280.299 212.503 282.481 220.339 282.574 220.672L281.8 220.881C281.8 220.804 279.626 213.075 275.565 211.396C274.226 210.878 272.725 211.033 271.526 211.814C264.656 215.767 264.355 241.785 264.355 242.04Z" fill="#3CC18E"/>
<path d="M261.515 242.063L260.741 242.017C260.741 241.816 261.84 221.771 256.424 214.708C255.117 213.006 253.686 212.193 252.2 212.294C248.657 212.541 245.686 217.709 245.663 217.779L244.982 217.392C245.114 217.168 248.185 211.799 252.146 211.52C253.926 211.404 255.566 212.294 257.043 214.243C262.668 221.523 261.569 241.228 261.515 242.063Z" fill="#3CC18E"/>
<path d="M262.668 244.786C262.521 242.845 259.132 197.061 265.097 188.992L265.716 189.448C259.921 197.293 263.395 244.26 263.442 244.732L262.668 244.786Z" fill="#3CC18E"/>
<path d="M277.514 215.334C277.514 215.334 273.932 216.657 275 219.775C276.067 222.893 287.378 228.014 287.378 228.014C287.378 228.014 292.112 223.666 287.764 216.603C283.417 209.54 277.607 213.098 277.514 215.334Z" fill="#3CC18E"/>
<path opacity="0.2" d="M277.514 215.334C277.514 215.334 273.932 216.657 275 219.775C276.067 222.893 287.378 228.014 287.378 228.014C287.378 228.014 292.112 223.666 287.764 216.603C283.417 209.54 277.607 213.098 277.514 215.334Z" fill="white"/>
<path d="M261.956 209.4C261.956 209.4 265.77 209.246 265.987 212.495C266.203 215.744 257.732 224.873 257.732 224.873C257.732 224.873 251.682 222.684 252.982 214.491C254.282 206.298 261.012 207.381 261.956 209.4Z" fill="#3CC18E"/>
<path opacity="0.2" d="M261.956 209.4C261.956 209.4 265.77 209.246 265.987 212.495C266.203 215.744 257.732 224.873 257.732 224.873C257.732 224.873 251.682 222.684 252.982 214.491C254.282 206.298 261.012 207.381 261.956 209.4Z" fill="white"/>
<path d="M258.73 193.672C258.73 193.672 261.267 193.402 261.051 191.854C260.834 190.307 251.179 186.323 245.47 192.767C245.47 192.767 249.121 199.041 254.405 199.127C259.689 199.212 258.73 193.672 258.73 193.672Z" fill="#3CC18E"/>
<path opacity="0.2" d="M258.73 193.672C258.73 193.672 261.267 193.402 261.051 191.854C260.834 190.307 251.179 186.323 245.47 192.767C245.47 192.767 249.121 199.041 254.405 199.127C259.689 199.212 258.73 193.672 258.73 193.672Z" fill="white"/>
<path d="M263.441 189.928C263.441 189.928 261.12 191.042 260.494 189.619C259.867 188.195 265.955 179.701 274.202 182.153C274.202 182.153 274.419 189.41 269.978 192.272C265.538 195.135 263.441 189.928 263.441 189.928Z" fill="#3CC18E"/>
<path opacity="0.2" d="M263.441 189.928C263.441 189.928 261.12 191.042 260.494 189.619C259.867 188.195 265.955 179.701 274.202 182.153C274.202 182.153 274.419 189.41 269.978 192.272C265.538 195.135 263.441 189.928 263.441 189.928Z" fill="white"/>
<path d="M251.435 214.081C251.435 214.081 253.191 212.665 251.295 211.969C249.4 211.273 240.124 211.474 240.023 220.672C240.023 220.672 250.854 222.467 252.177 218.97C253.5 215.474 251.435 214.081 251.435 214.081Z" fill="#3CC18E"/>
<path opacity="0.2" d="M251.435 214.081C251.435 214.081 253.191 212.665 251.295 211.969C249.4 211.273 240.124 211.474 240.023 220.672C240.023 220.672 250.854 222.467 252.177 218.97C253.5 215.474 251.435 214.081 251.435 214.081Z" fill="white"/>
<path d="M273.499 193.456C273.499 193.456 271.75 192.04 273.638 191.344C275.525 190.647 284.817 190.849 284.91 200.047C284.91 200.047 274.079 201.842 272.764 198.345C271.448 194.848 273.499 193.456 273.499 193.456Z" fill="#3CC18E"/>
<path opacity="0.2" d="M273.499 193.456C273.499 193.456 271.75 192.04 273.638 191.344C275.525 190.647 284.817 190.849 284.91 200.047C284.91 200.047 274.079 201.842 272.764 198.345C271.448 194.848 273.499 193.456 273.499 193.456Z" fill="white"/>
<path d="M267.766 200.859C267.766 200.859 267.619 199.142 269.004 199.815C270.389 200.488 275.232 205.71 270.219 210.646C270.219 210.646 263.465 205.648 264.679 203.041C265.894 200.434 267.766 200.859 267.766 200.859Z" fill="#3CC18E"/>
<path opacity="0.2" d="M267.766 200.859C267.766 200.859 267.619 199.142 269.004 199.815C270.389 200.488 275.232 205.71 270.219 210.646C270.219 210.646 263.465 205.648 264.679 203.041C265.894 200.434 267.766 200.859 267.766 200.859Z" fill="white"/>
<path d="M249.872 203.312C249.872 203.312 250.916 201.943 249.385 201.765C247.853 201.587 240.968 203.428 242.569 210.275C242.569 210.275 250.955 209.64 251.311 206.786C251.667 203.931 249.872 203.312 249.872 203.312Z" fill="#3CC18E"/>
<path opacity="0.2" d="M249.872 203.312C249.872 203.312 250.916 201.943 249.385 201.765C247.853 201.587 240.968 203.428 242.569 210.275C242.569 210.275 250.955 209.64 251.311 206.786C251.667 203.931 249.872 203.312 249.872 203.312Z" fill="white"/>
<path d="M278.18 267.531H249.431L246.329 236.052H281.282L278.18 267.531Z" fill="#CC753A"/>
<path d="M282.813 232.579H244.789V239.526H282.813V232.579Z" fill="#E4944B"/>
</svg>
