<svg width="79" height="50" viewBox="0 0 79 50" fill="none" xmlns="http://www.w3.org/2000/svg">
<path d="M32.5516 18.0113L37.6858 23.4222C38.6716 24.4611 40.3271 24.4611 41.3129 23.4222L46.4471 18.0113C48.2946 16.0643 48.2946 12.9075 46.4471 10.9604C44.5996 9.01336 41.6042 9.01336 39.7567 10.9604C39.6168 11.1078 39.3819 11.1078 39.242 10.9604C37.3945 9.01336 34.3991 9.01336 32.5516 10.9604C30.7041 12.9075 30.7041 16.0643 32.5516 18.0113Z" fill="#FF6F69"/>
<path d="M29.1197 41V34.8965H26.9615V33.9541H32.3668V34.8965H30.2135V41H29.1197ZM33.4725 41V33.9541H34.5271V36.708H34.5516C34.825 36.1123 35.3768 35.7656 36.1434 35.7656C37.242 35.7656 37.9646 36.5859 37.9646 37.8262V41H36.91V38.0264C36.91 37.1768 36.4803 36.6689 35.7381 36.6689C35.0105 36.6689 34.5271 37.2256 34.5271 38.0264V41H33.4725ZM40.1348 35.2822H39.373L40.2275 33.7441H41.248L40.1348 35.2822ZM39.334 41V35.8633H40.3887V41H39.334ZM43.9846 41.1025C42.4855 41.1025 41.548 40.0723 41.548 38.4268V38.4219C41.548 36.7959 42.5051 35.7656 43.9699 35.7656C45.2932 35.7656 46.0939 36.6152 46.1818 37.582L46.1867 37.6162H45.1809L45.1711 37.5771C45.0588 37.0742 44.6682 36.6494 43.9797 36.6494C43.1594 36.6494 42.6271 37.333 42.6271 38.4316V38.4365C42.6271 39.5596 43.1691 40.2188 43.9846 40.2188C44.634 40.2188 45.049 39.8428 45.176 39.2861L45.1809 39.2471H46.1965L46.1916 39.2812C46.0793 40.3115 45.2199 41.1025 43.9846 41.1025ZM47.2826 41V33.9541H48.3373V36.708H48.3617C48.6352 36.1123 49.1869 35.7656 49.9535 35.7656C51.0521 35.7656 51.7748 36.5859 51.7748 37.8262V41H50.7201V38.0264C50.7201 37.1768 50.2904 36.6689 49.5482 36.6689C48.8207 36.6689 48.3373 37.2256 48.3373 38.0264V41H47.2826Z" fill="#263238"/>
</svg>
