<svg width="25" height="24" viewBox="0 0 25 24" fill="none" xmlns="http://www.w3.org/2000/svg">
<path d="M12.499 3.66675V2.91675V3.66675ZM4.16602 11.9998H3.41602V11.9997L4.16602 11.9998ZM12.499 20.3337V21.0837V20.3337ZM19.3574 19.9675L19.1075 20.6747L19.1072 20.6746L19.3574 19.9675ZM20.6338 18.6912L19.9266 18.941L19.9265 18.9407L20.6338 18.6912ZM20.832 11.9998L21.582 11.9997V11.9998H20.832ZM19.8595 16.4967L19.1522 16.7462L19.8595 16.4967ZM19.9147 15.8008L19.2476 15.4581L19.9147 15.8008ZM16.5322 19.2917L16.1684 18.6359L16.5322 19.2917ZM17.2537 19.2229L17.5039 18.5159L17.2537 19.2229ZM12.499 3.66675V4.41675C8.31102 4.41675 4.9162 7.81174 4.91602 11.9998L4.16602 11.9998L3.41602 11.9997C3.41623 6.98336 7.48253 2.91675 12.499 2.91675V3.66675ZM4.16602 11.9998H4.91602C4.91602 16.188 8.31098 19.5837 12.499 19.5837V20.3337V21.0837C7.48232 21.0837 3.41602 17.0162 3.41602 11.9998H4.16602ZM12.499 20.3337V19.5837C13.8314 19.5837 15.0811 19.239 16.1684 18.6359L16.5322 19.2917L16.896 19.9476C15.593 20.6704 14.0937 21.0837 12.499 21.0837V20.3337ZM17.2537 19.2229L17.5039 18.5159L19.6077 19.2605L19.3574 19.9675L19.1072 20.6746L17.0034 19.93L17.2537 19.2229ZM19.3574 19.9675L19.6073 19.2604C19.8054 19.3304 19.9967 19.1392 19.9266 18.941L20.6338 18.6912L21.3409 18.4413C21.831 19.8283 20.4947 21.1648 19.1075 20.6747L19.3574 19.9675ZM20.6338 18.6912L19.9265 18.9407L19.1522 16.7462L19.8595 16.4967L20.5668 16.2471L21.3411 18.4416L20.6338 18.6912ZM19.9147 15.8008L19.2476 15.4581C19.7803 14.4214 20.082 13.2468 20.082 11.9998H20.832H21.582C21.582 13.4918 21.2204 14.9007 20.5818 16.1436L19.9147 15.8008ZM20.832 11.9998L20.082 11.9998C20.0819 7.81174 16.687 4.41675 12.499 4.41675V3.66675V2.91675C17.5155 2.91675 21.5818 6.98336 21.582 11.9997L20.832 11.9998ZM19.8595 16.4967L19.1522 16.7462C18.997 16.3061 19.051 15.8407 19.2476 15.4581L19.9147 15.8008L20.5818 16.1436C20.5567 16.1924 20.5607 16.2299 20.5668 16.2471L19.8595 16.4967ZM16.5322 19.2917L16.1684 18.6359C16.5602 18.4186 17.0455 18.3537 17.5039 18.5159L17.2537 19.2229L17.0034 19.93C16.9855 19.9236 16.9461 19.9198 16.896 19.9476L16.5322 19.2917Z" fill="#263238"/>
</svg>
