<svg width="72" height="75" viewBox="0 0 72 75" fill="none" xmlns="http://www.w3.org/2000/svg">
<path d="M43.5262 12.8254C43.5262 12.8254 41.579 14.4737 40.8092 12.6986C39.5232 9.71899 40.293 -0.125579 27.2514 0.00121356C14.2099 0.11895 10.0348 8.01634 9.01136 8.81332C9.01136 8.81332 15.9669 7.88049 23.1035 11.6752C29.2711 14.9537 25.3043 15.6783 22.3518 15.4971C19.3993 15.316 10.7865 12.8345 6.46644 14.2926C0.0905693 16.439 0 30.5493 0 30.5493C0 30.5493 6.16757 24.5266 17.3797 24.0104C28.5918 23.4851 27.2333 25.7855 25.5669 26.3651C23.9005 26.9447 5.22568 29.6255 2.20076 33.8097C-4.02115 42.4316 5.94116 53.8158 5.94116 53.8158C5.94116 53.8158 8.39551 51.3433 15.7133 42.7304C23.6288 33.4202 28.0394 36.4904 26.4544 39.1983C20.8574 48.7622 13.8657 47.8112 11.5925 55.9712C9.32834 64.1313 21.3284 74.5826 21.3284 74.5826C21.3284 74.5826 37.6937 74.2928 41.0356 65.372C44.3775 56.4513 35.9911 42.6218 43.3632 44.6776C49.3496 46.344 45.6002 68.6687 45.6002 68.6687C45.6002 68.6687 62.1738 64.4483 58.4697 55.1833C54.7746 45.9184 44.1511 35.1681 49.241 35.5848C58.2614 36.3274 63.324 57.3479 63.324 57.3479C63.324 57.3479 72.6252 47.4399 65.8599 39.3342C60.0455 32.3787 50.2372 28.0677 53.6244 26.8451C60.5889 24.3455 70.0169 38.0482 70.0169 38.0482C70.0169 38.0482 76.1211 24.5538 65.7693 14.5824C57.3104 6.44048 47.8462 9.51974 43.5081 12.8254H43.5262Z" fill="white"/>
</svg>
