<svg width="191" height="62" viewBox="0 0 191 62" fill="none" xmlns="http://www.w3.org/2000/svg">
<path d="M8.32767 44.9454C5.99106 44.1122 4.17973 42.9349 2.89369 41.4133C1.59859 39.9009 0.955566 38.1892 0.955566 36.2873C0.955566 34.2043 1.62575 32.4835 2.95708 31.125C4.2884 29.7665 5.98199 29.0873 8.01974 29.0873C8.42728 29.0873 8.74427 29.1506 8.97069 29.2865C9.1971 29.4223 9.31484 29.5854 9.31484 29.7665C9.31484 29.9024 9.12465 30.2646 8.73522 30.8533C8.34578 31.442 8.01975 32.1031 7.74805 32.8276C7.47635 33.5522 7.34049 34.4126 7.34049 35.4088C7.34049 37.5824 8.1556 39.3484 9.78579 40.7069C11.416 42.0654 13.5624 42.7447 16.2341 42.7447C18.5888 42.7447 20.4907 42.1198 21.9398 40.879C23.3889 39.6382 24.1134 37.9265 24.1134 35.7529C24.1134 33.9869 23.6606 32.4925 22.7549 31.2699C21.8492 30.0473 20.7262 29.042 19.3949 28.245C18.0545 27.448 16.2613 26.5605 13.9971 25.5642C11.416 24.4321 9.32389 23.3725 7.71181 22.3672C6.09973 21.371 4.74123 20.0578 3.63632 18.4276C2.52236 16.7974 1.96991 14.7415 1.96991 12.2419C1.96991 10.1589 2.47708 8.20264 3.50048 6.36414C4.52388 4.52564 6.04539 3.05847 8.08314 1.9445C10.1209 0.839591 12.5843 0.278076 15.4824 0.278076C18.1088 0.278076 20.4636 0.667511 22.5466 1.43733C24.6296 2.20714 26.2598 3.27583 27.4372 4.63433C28.6145 5.99282 29.2032 7.55056 29.2032 9.31661C29.2032 11.3996 28.5783 13.1113 27.3376 14.4427C26.0877 15.783 24.5209 16.4442 22.619 16.4442C21.804 16.4442 21.3964 16.1997 21.3964 15.6925C21.3964 15.6019 21.5685 15.2759 21.9036 14.7053C22.2477 14.1438 22.5466 13.4827 22.8183 12.74C23.09 11.9883 23.2258 11.1189 23.2258 10.1226C23.2258 8.26604 22.5013 6.72641 21.0522 5.50376C19.6032 4.28112 17.7466 3.66526 15.4824 3.66526C13.0371 3.66526 11.1533 4.35356 9.84918 5.73923C8.53597 7.1249 7.87484 8.80943 7.87484 10.8019C7.87484 12.3415 8.3005 13.6547 9.16993 14.7415C10.0303 15.8283 11.0899 16.7431 12.3579 17.4948C13.6258 18.2465 15.3918 19.1159 17.656 20.1121C20.373 21.3348 22.5828 22.4668 24.2764 23.5084C25.9791 24.5499 27.41 25.9446 28.5874 27.6835C29.7647 29.4314 30.3534 31.5869 30.3534 34.168C30.3534 37.836 29.1217 40.7522 26.6493 42.9258C24.1768 45.0994 20.7081 46.1862 16.225 46.1862C13.2816 46.1862 10.6462 45.7696 8.30955 44.9273L8.32767 44.9454Z" fill="white"/>
<path d="M37.0281 60.804L37.7073 59.7896C38.4771 58.7481 39.0205 57.6522 39.3375 56.493C39.6545 55.3428 39.8085 53.7851 39.8085 51.8379V21.8785C39.8085 21.2898 39.7179 20.837 39.5368 20.52C39.3556 20.203 39.0115 19.9766 38.5224 19.8408L35.3345 19.0891V17.1872C35.9684 16.5985 37.1911 16.0279 39.0024 15.4845C40.8137 14.9411 42.3987 14.6694 43.7572 14.6694C44.7987 14.6694 45.3239 15.6204 45.3239 17.5223V17.794C47.9504 15.2581 50.9119 13.9902 54.2266 13.9902C56.7172 13.9902 58.9542 14.6241 60.9467 15.8921C62.9391 17.16 64.4878 18.917 65.6018 21.154C66.7067 23.4 67.2682 25.9631 67.2682 28.8612C67.2682 32.1216 66.6795 35.074 65.5021 37.7276C64.3248 40.3722 62.7036 42.4461 60.6478 43.9405C58.5829 45.4348 56.2915 46.1775 53.7557 46.1775C51.2198 46.1775 49.2726 45.6069 47.6424 44.4748C47.2349 44.2484 47.0357 43.8861 47.0357 43.388C47.0357 42.9352 47.1172 42.5639 47.2711 42.265C47.4251 41.9752 47.6696 41.8212 47.9866 41.8212C48.1225 41.8212 48.5662 41.9933 49.3089 42.3284C50.0515 42.6726 51.0387 42.8356 52.2613 42.8356C54.7972 42.8356 56.844 41.6401 58.4108 39.2401C59.9776 36.8401 60.7565 33.7608 60.7565 30.0023C60.7565 26.4702 59.9776 23.5812 58.4108 21.3442C56.844 19.0981 54.7791 17.9842 52.1979 17.9842C50.8394 17.9842 49.6168 18.1653 48.53 18.5276C47.4432 18.8898 46.3745 19.5057 45.3421 20.357V54.8628C45.3421 56.4477 45.5141 57.5526 45.8492 58.1866C46.1934 58.8205 46.8817 59.2462 47.9232 59.4726L49.1459 59.7443L48.6024 61.5828H37.7345L37.0552 60.7677L37.0281 60.804Z" fill="white"/>
<path d="M73.1553 43.4152L74.3055 43.071C75.3923 42.8899 76.1078 42.4733 76.4429 41.8122C76.778 41.151 76.9501 40.0371 76.9501 38.4522V21.1993C76.9501 20.7011 76.8595 20.3479 76.6784 20.1487C76.4972 19.9494 76.1803 19.8408 75.7274 19.8408H73.0829L72.4761 18.2106C73.6534 17.1238 75.0119 16.2362 76.5516 15.557C78.0912 14.8777 79.4497 14.5426 80.6271 14.5426C81.2157 14.5426 81.6867 14.7238 82.049 15.086C82.4112 15.4483 82.5924 15.9011 82.5924 16.4445V23.1646H82.9365C83.661 20.4023 84.7569 18.1834 86.2331 16.5079C87.7003 14.8324 89.3033 13.9902 91.0241 13.9902C92.7448 13.9902 94.1577 14.5426 95.2717 15.6566C96.3766 16.7706 96.9381 18.2921 96.9381 20.2393C96.9381 21.7789 96.3675 23.0649 95.2354 24.1064C94.1033 25.148 92.6724 25.6732 90.9516 25.6732C90.1365 25.6732 89.729 25.4649 89.729 25.0574C89.729 24.9215 89.8829 24.6046 90.1999 24.1064C90.5169 23.6083 90.7886 23.1102 91.015 22.6121C91.2414 22.114 91.3592 21.5253 91.3592 20.8461C91.3592 20.0762 91.178 19.4785 90.8158 19.0438C90.4535 18.6181 89.9735 18.4008 89.3848 18.4008C88.4339 18.4008 87.4377 18.9894 86.3961 20.1668C85.3546 21.3442 84.458 23.2279 83.7154 25.8C82.9727 28.3812 82.5924 31.6687 82.5924 35.6537C82.5924 37.5103 82.7373 39.0137 83.0361 40.1729C83.3259 41.3322 83.8422 42.4009 84.5667 43.3971L85.3184 44.348L84.5667 45.299H73.7712L73.1644 43.3971L73.1553 43.4152Z" fill="white"/>
<path d="M103.721 41.8212C101.004 38.8959 99.646 34.9744 99.646 30.0386C99.646 25.1027 101.004 21.1993 103.721 18.3193C106.438 15.4483 110.106 14.0083 114.725 14.0083C117.759 14.0083 120.404 14.6694 122.668 15.9736C124.932 17.2868 126.68 19.1434 127.903 21.5434C129.125 23.9434 129.732 26.7691 129.732 30.0386C129.732 33.308 129.107 36.1518 127.867 38.5971C126.617 41.0424 124.869 42.9262 122.605 44.2303C120.34 45.5435 117.714 46.1956 114.725 46.1956C110.106 46.1956 106.438 44.7375 103.721 41.8122V41.8212ZM120.875 39.376C122.478 37.0393 123.284 33.9782 123.284 30.1744C123.284 28.2272 123.012 26.271 122.469 24.2966C121.925 22.3314 121.029 20.6559 119.788 19.2702C118.538 17.8936 116.926 17.1962 114.934 17.1962C112.262 17.1962 110.125 18.3736 108.512 20.7283C106.9 23.0831 106.103 26.2076 106.103 30.1019C106.103 33.9963 106.864 37.0937 108.377 39.4031C109.889 41.7126 111.963 42.8718 114.589 42.8718C117.216 42.8718 119.263 41.7035 120.875 39.376Z" fill="white"/>
<path d="M141.288 43.5237C139.658 41.7395 138.843 39.2308 138.843 36.0157V20.6647C138.843 19.6685 138.435 19.1704 137.62 19.1704H134.831L134.36 17.676C135.401 16.5892 136.678 15.7107 138.2 15.0315C139.712 14.3522 141.107 14.0172 142.375 14.0172C142.964 14.0172 143.453 14.1892 143.833 14.5243C144.213 14.8685 144.413 15.3032 144.413 15.8466V34.5214C144.413 36.9667 144.911 38.8323 145.907 40.1274C146.903 41.4135 148.37 42.0656 150.327 42.0656C153.089 42.0656 155.235 40.8791 156.775 38.4973C158.315 36.1244 159.085 32.8278 159.085 28.6165C159.085 25.6278 158.912 23.2821 158.577 21.5885C158.242 19.8949 157.59 18.2285 156.639 16.5983L155.888 15.6473L156.639 14.7688L164.247 14.0172V39.901C164.247 41.169 164.79 41.8029 165.877 41.8029C166.964 41.8029 167.933 41.4407 168.938 40.7161L170.161 42.2829C169.165 43.4603 168.042 44.4112 166.801 45.1358C165.551 45.8603 164.392 46.2226 163.305 46.2226C161.675 46.2226 160.497 45.7335 159.773 44.7644C159.048 43.7954 158.686 42.2829 158.686 40.2452C157.69 42.1018 156.259 43.5599 154.402 44.6286C152.546 45.6882 150.463 46.2226 148.153 46.2226C145.21 46.2226 142.918 45.326 141.288 43.5418V43.5237Z" fill="white"/>
<path d="M178.783 44.6106C177.832 43.551 177.352 42.0838 177.352 40.2272V18.5637H171.99C171.99 17.4769 172.081 16.7615 172.262 16.4264C172.443 16.0822 172.851 15.8286 173.485 15.6475C175.658 15.1041 177.198 14.1984 178.103 12.9305C179.009 11.6626 179.688 9.9871 180.141 7.90408C180.232 7.27011 180.449 6.87162 180.784 6.71765C181.128 6.56369 181.88 6.48218 183.057 6.48218V14.769H191C191 15.6294 190.873 16.3992 190.629 17.0785C190.375 17.7577 190.049 18.2558 189.642 18.5728H183.057V38.4702C183.057 39.7382 183.23 40.6348 183.565 41.151C183.909 41.6763 184.507 41.9299 185.367 41.9299C186.59 41.9299 187.966 41.2778 189.515 39.9646L190.665 41.5948C189.624 42.9533 188.356 44.0672 186.861 44.9186C185.367 45.7789 183.981 46.2046 182.722 46.2046C181.047 46.2046 179.734 45.6703 178.783 44.6106Z" fill="white"/>
</svg>
