<svg width="24" height="24" viewBox="0 0 24 24" fill="none" xmlns="http://www.w3.org/2000/svg">
<path d="M11.8408 2.83325C14.9224 2.83327 17.4209 5.33175 17.4209 8.41333V10.3309C17.4209 11.3397 18.071 12.2219 18.5879 13.0883C18.8595 13.5437 19.0156 14.076 19.0156 14.6448C19.0155 16.1139 17.9659 17.3745 16.5107 17.5764C15.0655 17.7768 13.2593 17.9788 11.8418 17.9788C10.4243 17.9788 8.61815 17.7768 7.17285 17.5764C5.71757 17.3746 4.66806 16.114 4.66797 14.6448C4.66797 14.0763 4.82386 13.5442 5.09522 13.089C5.6114 12.2231 6.26074 11.3413 6.26074 10.3332V8.41333C6.26074 5.33174 8.75923 2.83325 11.8408 2.83325Z" fill="#3CC18E"/>
<path d="M11.8408 2.83325L11.8408 2.14575H11.8408V2.83325ZM19.0156 14.6448L19.7031 14.6448V14.6448H19.0156ZM16.5107 17.5764L16.6052 18.2574L16.6052 18.2574L16.5107 17.5764ZM11.8418 17.9788V18.6663H11.8418L11.8418 17.9788ZM7.17285 17.5764L7.0784 18.2574L7.07842 18.2574L7.17285 17.5764ZM4.66797 14.6448H3.98047V14.6448L4.66797 14.6448ZM11.8408 2.83325L11.8408 3.52075C14.5427 3.52077 16.7334 5.71146 16.7334 8.41333H17.4209H18.1084C18.1084 4.95205 15.3021 2.14578 11.8408 2.14575L11.8408 2.83325ZM17.4209 8.41333H16.7334V10.3309H17.4209H18.1084V8.41333H17.4209ZM18.5879 13.0883L17.9974 13.4405C18.2073 13.7924 18.3281 14.2034 18.3281 14.6448H19.0156H19.7031C19.7031 13.9486 19.5117 13.295 19.1783 12.7361L18.5879 13.0883ZM19.0156 14.6448L18.3281 14.6447C18.3281 15.7869 17.5157 16.7429 16.4163 16.8954L16.5107 17.5764L16.6052 18.2574C18.4161 18.0061 19.703 16.4409 19.7031 14.6448L19.0156 14.6448ZM16.5107 17.5764L16.4163 16.8954C14.9765 17.0951 13.2094 17.2913 11.8418 17.2913L11.8418 17.9788L11.8418 18.6663C13.3092 18.6663 15.1544 18.4586 16.6052 18.2574L16.5107 17.5764ZM11.8418 17.9788V17.2913C10.4742 17.2913 8.70712 17.0951 7.26728 16.8954L7.17285 17.5764L7.07842 18.2574C8.52917 18.4586 10.3744 18.6663 11.8418 18.6663V17.9788ZM7.17285 17.5764L7.2673 16.8954C6.16781 16.7429 5.35554 15.787 5.35547 14.6447L4.66797 14.6448L3.98047 14.6448C3.98058 16.441 5.26733 18.0062 7.0784 18.2574L7.17285 17.5764ZM4.66797 14.6448H5.35547C5.35547 14.2036 5.4761 13.7927 5.68576 13.441L5.09522 13.089L4.50467 12.737C4.17162 13.2957 3.98047 13.949 3.98047 14.6448H4.66797ZM6.26074 10.3332H6.94824V8.41333H6.26074H5.57324V10.3332H6.26074ZM6.26074 8.41333H6.94824C6.94824 5.71144 9.13893 3.52075 11.8408 3.52075V2.83325V2.14575C8.37954 2.14575 5.57324 4.95204 5.57324 8.41333H6.26074ZM5.09522 13.089L5.68576 13.441C5.91904 13.0497 6.24487 12.5561 6.48673 12.0713C6.7376 11.5685 6.94824 10.9863 6.94824 10.3332H6.26074H5.57324C5.57324 10.6882 5.45921 11.0509 5.25636 11.4575C5.04451 11.8821 4.78758 12.2624 4.50467 12.737L5.09522 13.089ZM17.4209 10.3309H16.7334C16.7334 10.9845 16.9443 11.567 17.1955 12.0701C17.4376 12.5552 17.7639 13.0489 17.9974 13.4405L18.5879 13.0883L19.1783 12.7361C18.895 12.2613 18.6378 11.8808 18.4257 11.4559C18.2226 11.0491 18.1084 10.6862 18.1084 10.3309H17.4209Z" fill="#3CC18E"/>
<path d="M13.834 20.0978C13.4056 20.7421 12.673 21.1668 11.8412 21.1668C11.0095 21.1668 10.2769 20.7421 9.84848 20.0978" stroke="#3CC18E" stroke-width="1.375" stroke-linecap="round"/>
</svg>
