<svg width="24" height="24" viewBox="0 0 24 24" fill="none" xmlns="http://www.w3.org/2000/svg">
<path d="M22.2471 9.51367C22.2557 10.4859 22.1106 13.5215 20.0234 15.7041C18.561 17.2327 16.42 18.0537 13.5508 18.0537C13.4413 18.0537 13.3465 18.0529 13.2549 18.0498C13.2213 17.1552 13.3004 14.4044 15.2471 12.2568L15.248 12.2559C16.7488 10.5958 19.0616 9.63929 22.2471 9.51367ZM1.94434 3.15918C6.20159 3.74507 9.04035 5.32472 10.5811 7.74121H10.582C11.7246 9.53175 11.9997 11.5291 11.9443 13.2129C11.8941 14.7386 11.57 15.9628 11.4209 16.457L11.3535 16.4482L10.7109 16.3506C7.55368 15.8107 5.24377 14.4756 3.75586 12.4404L3.75488 12.4395C2.3121 10.4706 1.8486 8.15561 1.76465 6.2627C1.70085 4.82365 1.85794 3.666 1.94434 3.15918Z" stroke="#777B84" stroke-width="1.5"/>
</svg>
