<svg width="22" height="22" viewBox="0 0 22 22" fill="none" xmlns="http://www.w3.org/2000/svg">
<path d="M2.29102 10.0269C2.29102 8.9047 2.80488 7.84432 3.68565 7.14897L8.72732 3.16871C10.0595 2.11702 11.9392 2.11702 13.2714 3.16871L18.313 7.14897C19.1938 7.84432 19.7077 8.9047 19.7077 10.0269V16.0417C19.7077 18.0667 18.0661 19.7083 16.041 19.7083H14.666C14.1598 19.7083 13.7493 19.2979 13.7493 18.7917V16.0417C13.7493 15.0291 12.9285 14.2083 11.916 14.2083H10.0827C9.07016 14.2083 8.24935 15.0291 8.24935 16.0417V18.7917C8.24935 19.2979 7.83894 19.7083 7.33268 19.7083H5.95768C3.93264 19.7083 2.29102 18.0667 2.29102 16.0417L2.29102 10.0269Z" stroke="#777B84" stroke-width="1.5"/>
</svg>
