<svg width="24" height="24" viewBox="0 0 24 24" fill="none" xmlns="http://www.w3.org/2000/svg">
<path d="M16.5801 2.14575C19.491 2.14575 21.8514 4.50539 21.8516 7.41626V16.5833C21.8515 19.4942 19.4911 21.8538 16.5801 21.8538H7.41406C4.50324 21.8536 2.14262 19.4941 2.14258 16.5833V7.41626C2.14273 4.5055 4.50331 2.14593 7.41406 2.14575H16.5801ZM11.998 8.56274C11.6184 8.56274 11.3105 8.87055 11.3105 9.25024V11.3127H9.24805C8.86835 11.3127 8.56055 11.6205 8.56055 12.0002C8.56074 12.3798 8.86847 12.6877 9.24805 12.6877H11.3105V14.7502C11.3107 15.1298 11.6185 15.4377 11.998 15.4377C12.3776 15.4377 12.6853 15.1298 12.6855 14.7502V12.6877H14.748C15.1276 12.6877 15.4353 12.3798 15.4355 12.0002C15.4355 11.6205 15.1277 11.3127 14.748 11.3127H12.6855V9.25024C12.6855 8.87055 12.3777 8.56274 11.998 8.56274Z" fill="#3CC18E"/>
</svg>
