<svg width="24" height="24" viewBox="0 0 24 24" fill="none" xmlns="http://www.w3.org/2000/svg">
<path d="M3.59766 3.75274C6.0481 2.83322 8.78002 2.83325 11.2305 3.75274L11.3105 3.78204V20.7303L10.0098 20.243C8.34429 19.6181 6.48382 19.618 4.81836 20.243C3.59375 20.7023 2.14266 19.8785 2.14258 18.49V5.79376C2.14259 4.87078 2.74082 4.07441 3.59766 3.75274ZM12.7637 3.75274C15.2141 2.83317 17.946 2.83329 20.3965 3.75274C21.2535 4.07434 21.8516 4.87068 21.8516 5.79376V18.49C21.8515 19.8786 20.4004 20.7026 19.1758 20.243C17.5103 19.6181 15.6498 19.618 13.9844 20.243L12.6855 20.7303V3.78106L12.7637 3.75274Z" fill="#3CC18E"/>
</svg>
