<svg width="24" height="24" viewBox="0 0 24 24" fill="none" xmlns="http://www.w3.org/2000/svg">
<path d="M20.5652 16.2226C18.9249 17.9371 16.5653 18.8032 13.5506 18.8032C13.436 18.8032 13.3215 18.8032 13.2069 18.7988C12.5976 19.6069 12.0203 20.4775 11.5438 21.3794C11.4613 21.5357 11.3009 21.625 11.136 21.625C11.0673 21.625 10.994 21.6071 10.9298 21.5759C10.7007 21.4643 10.6137 21.1919 10.7282 20.9731C10.9848 20.482 11.2689 20.0043 11.5713 19.5444C11.6079 18.7675 11.4842 17.9773 11.2551 17.1914C7.61725 16.7093 4.88656 15.2582 3.15009 12.8829C0.0253661 8.61903 1.21203 2.96658 1.26243 2.72995C1.31283 2.50224 1.53275 2.35491 1.771 2.37723C6.3023 2.94872 9.47743 4.6141 11.2139 7.33763C13.7155 11.2577 12.3639 15.9904 12.0982 16.8164V16.8209C12.2539 17.312 12.3685 17.8165 12.4326 18.3166C12.4555 18.2809 12.483 18.2496 12.5105 18.2139C12.4647 17.4236 12.4372 14.2402 14.6914 11.7533C16.4187 9.84238 19.0532 8.83334 22.5215 8.75297C22.7644 8.74851 22.9705 8.93156 22.9889 9.1682C22.998 9.34232 23.2638 13.4008 20.5652 16.2226Z" fill="#3CC18E"/>
</svg>
