<svg width="25" height="24" viewBox="0 0 25 24" fill="none" xmlns="http://www.w3.org/2000/svg">
<path d="M3.79297 11.0269C3.79297 9.9047 4.30683 8.84432 5.18761 8.14897L10.2293 4.16871C11.5614 3.11702 13.4412 3.11702 14.7733 4.16871L19.815 8.14897C20.6958 8.84432 21.2096 9.9047 21.2096 11.0269V17.0417C21.2096 19.0667 19.568 20.7083 17.543 20.7083H16.168C15.6617 20.7083 15.2513 20.2979 15.2513 19.7917V17.0417C15.2513 16.0291 14.4305 15.2083 13.418 15.2083H11.5846C10.5721 15.2083 9.7513 16.0291 9.7513 17.0417V19.7917C9.7513 20.2979 9.3409 20.7083 8.83464 20.7083H7.45964C5.43459 20.7083 3.79297 19.0667 3.79297 17.0417L3.79297 11.0269Z" fill="#3CC18E" stroke="#3CC18E" stroke-width="1.375" stroke-linecap="round"/>
</svg>
