<svg width="25" height="24" viewBox="0 0 25 24" fill="none" xmlns="http://www.w3.org/2000/svg">
<path d="M12.3408 2.83325L12.3408 2.08325H12.3408V2.83325ZM19.5156 14.6448L20.2656 14.6448V14.6448H19.5156ZM17.0107 17.5764L17.1138 18.3193L17.1138 18.3193L17.0107 17.5764ZM12.3418 17.9788V18.7288H12.3418L12.3418 17.9788ZM7.67285 17.5764L7.56981 18.3193L7.56984 18.3193L7.67285 17.5764ZM5.16797 14.6448H4.41797V14.6448L5.16797 14.6448ZM12.3408 2.83325L12.3408 3.58325C15.0082 3.58327 17.1709 5.74597 17.1709 8.41333H17.9209H18.6709C18.6709 4.91754 15.8366 2.08328 12.3408 2.08325L12.3408 2.83325ZM17.9209 8.41333H17.1709V10.3309H17.9209H18.6709V8.41333H17.9209ZM19.0879 13.0883L18.4438 13.4725C18.6481 13.815 18.7656 14.215 18.7656 14.6448H19.5156H20.2656C20.2656 13.937 20.071 13.2724 19.732 12.704L19.0879 13.0883ZM19.5156 14.6448L18.7656 14.6447C18.7656 15.7572 17.9748 16.6855 16.9077 16.8335L17.0107 17.5764L17.1138 18.3193C18.9571 18.0635 20.2655 16.4707 20.2656 14.6448L19.5156 14.6448ZM17.0107 17.5764L16.9077 16.8335C15.4684 17.0331 13.7048 17.2288 12.3418 17.2288L12.3418 17.9788L12.3418 18.7288C13.8137 18.7288 15.6625 18.5205 17.1138 18.3193L17.0107 17.5764ZM12.3418 17.9788V17.2288C10.9787 17.2288 9.21521 17.0331 7.77586 16.8335L7.67285 17.5764L7.56984 18.3193C9.02108 18.5205 10.8699 18.7288 12.3418 18.7288V17.9788ZM7.67285 17.5764L7.77589 16.8335C6.70874 16.6855 5.91804 15.7573 5.91797 14.6447L5.16797 14.6448L4.41797 14.6448C4.41808 16.4707 5.7264 18.0636 7.56981 18.3193L7.67285 17.5764ZM5.16797 14.6448H5.91797C5.91797 14.2152 6.03539 13.8153 6.23944 13.473L5.59522 13.089L4.95099 12.705C4.61232 13.2731 4.41797 13.9374 4.41797 14.6448H5.16797ZM6.76074 10.3332H7.51074V8.41333H6.76074H6.01074V10.3332H6.76074ZM6.76074 8.41333H7.51074C7.51074 5.74595 9.67344 3.58325 12.3408 3.58325V2.83325V2.08325C8.84502 2.08325 6.01074 4.91753 6.01074 8.41333H6.76074ZM5.59522 13.089L6.23944 13.473C6.47047 13.0855 6.79943 12.5867 7.04266 12.0992C7.29571 11.592 7.51074 10.9998 7.51074 10.3332H6.76074H6.01074C6.01074 10.6746 5.9011 11.0274 5.70044 11.4296C5.48995 11.8515 5.23615 12.2266 4.95099 12.705L5.59522 13.089ZM17.9209 10.3309H17.1709C17.1709 10.998 17.3862 11.5906 17.6396 12.098C17.8831 12.5858 18.2124 13.0848 18.4438 13.4725L19.0879 13.0883L19.732 12.704C19.4465 12.2255 19.1923 11.8501 18.9816 11.428C18.7807 11.0256 18.6709 10.6726 18.6709 10.3309H17.9209Z" fill="#777B84"/>
<path d="M14.334 20.0977C13.9056 20.742 13.173 21.1666 12.3412 21.1666C11.5095 21.1666 10.7769 20.742 10.3485 20.0977" stroke="#777B84" stroke-width="1.5" stroke-linecap="round"/>
</svg>
