<svg width="24" height="24" viewBox="0 0 24 24" fill="none" xmlns="http://www.w3.org/2000/svg">
<path d="M12.0007 4.77445V20.2415M12.0007 4.77445L13.0091 4.39601C15.304 3.53483 17.864 3.53483 20.1589 4.39601C20.7679 4.62458 21.1673 5.17801 21.1673 5.79344V18.4899C21.1673 19.335 20.2576 19.9128 19.4212 19.599C17.5999 18.9155 15.5681 18.9155 13.7468 19.599L12.0132 20.2495C12.0072 20.2518 12.0007 20.2476 12.0007 20.2415M12.0007 4.77445L10.9922 4.39601C8.69733 3.53483 6.1373 3.53483 3.84245 4.39601C3.23337 4.62458 2.83398 5.17801 2.83398 5.79344V18.4899C2.83398 19.335 3.74375 19.9128 4.5801 19.599C6.40143 18.9155 8.43321 18.9155 10.2545 19.599L11.9881 20.2495C11.9941 20.2518 12.0007 20.2476 12.0007 20.2415" stroke="#777B84" stroke-width="1.5"/>
</svg>
