<svg width="270" height="75" viewBox="0 0 270 75" fill="none" xmlns="http://www.w3.org/2000/svg">
<path d="M43.5262 12.8254C43.5262 12.8254 41.579 14.4737 40.8092 12.6986C39.5232 9.71899 40.293 -0.125579 27.2514 0.00121356C14.2099 0.11895 10.0348 8.01634 9.01136 8.81332C9.01136 8.81332 15.9669 7.88049 23.1035 11.6752C29.2711 14.9537 25.3043 15.6783 22.3518 15.4971C19.3993 15.316 10.7865 12.8345 6.46644 14.2926C0.0905693 16.439 0 30.5493 0 30.5493C0 30.5493 6.16757 24.5266 17.3797 24.0104C28.5918 23.4851 27.2333 25.7855 25.5669 26.3651C23.9005 26.9447 5.22568 29.6255 2.20076 33.8097C-4.02115 42.4316 5.94116 53.8158 5.94116 53.8158C5.94116 53.8158 8.39551 51.3433 15.7133 42.7304C23.6288 33.4202 28.0394 36.4904 26.4544 39.1983C20.8574 48.7622 13.8657 47.8112 11.5925 55.9712C9.32834 64.1313 21.3284 74.5826 21.3284 74.5826C21.3284 74.5826 37.6937 74.2928 41.0356 65.372C44.3775 56.4513 35.9911 42.6218 43.3632 44.6776C49.3496 46.344 45.6002 68.6687 45.6002 68.6687C45.6002 68.6687 62.1738 64.4483 58.4697 55.1833C54.7746 45.9184 44.1511 35.1681 49.241 35.5848C58.2614 36.3274 63.324 57.3479 63.324 57.3479C63.324 57.3479 72.6252 47.4399 65.8599 39.3342C60.0455 32.3787 50.2372 28.0677 53.6244 26.8451C60.5889 24.3455 70.0169 38.0482 70.0169 38.0482C70.0169 38.0482 76.1211 24.5538 65.7693 14.5824C57.3104 6.44048 47.8462 9.51974 43.5081 12.8254H43.5262Z" fill="white"/>
<path d="M87.3277 57.9454C84.9911 57.1122 83.1797 55.9349 81.8937 54.4133C80.5986 52.9009 79.9556 51.1892 79.9556 49.2873C79.9556 47.2043 80.6258 45.4835 81.9571 44.125C83.2884 42.7665 84.982 42.0873 87.0197 42.0873C87.4273 42.0873 87.7443 42.1506 87.9707 42.2865C88.1971 42.4223 88.3148 42.5854 88.3148 42.7665C88.3148 42.9024 88.1247 43.2646 87.7352 43.8533C87.3458 44.442 87.0197 45.1031 86.748 45.8276C86.4763 46.5522 86.3405 47.4126 86.3405 48.4088C86.3405 50.5824 87.1556 52.3484 88.7858 53.7069C90.416 55.0654 92.5624 55.7447 95.2341 55.7447C97.5888 55.7447 99.4907 55.1198 100.94 53.879C102.389 52.6382 103.113 50.9265 103.113 48.7529C103.113 46.9869 102.661 45.4925 101.755 44.2699C100.849 43.0473 99.7262 42.042 98.3949 41.245C97.0545 40.448 95.2613 39.5605 92.9971 38.5642C90.416 37.4321 88.3239 36.3725 86.7118 35.3672C85.0997 34.371 83.7412 33.0578 82.6363 31.4276C81.5224 29.7974 80.9699 27.7415 80.9699 25.2419C80.9699 23.1589 81.4771 21.2026 82.5005 19.3641C83.5239 17.5256 85.0454 16.0585 87.0831 14.9445C89.1209 13.8396 91.5843 13.2781 94.4824 13.2781C97.1088 13.2781 99.4636 13.6675 101.547 14.4373C103.63 15.2071 105.26 16.2758 106.437 17.6343C107.615 18.9928 108.203 20.5506 108.203 22.3166C108.203 24.3996 107.578 26.1113 106.338 27.4427C105.088 28.783 103.521 29.4442 101.619 29.4442C100.804 29.4442 100.396 29.1997 100.396 28.6925C100.396 28.6019 100.568 28.2759 100.904 27.7053C101.248 27.1438 101.547 26.4827 101.818 25.74C102.09 24.9883 102.226 24.1189 102.226 23.1226C102.226 21.266 101.501 19.7264 100.052 18.5038C98.6032 17.2811 96.7466 16.6653 94.4824 16.6653C92.0371 16.6653 90.1533 17.3536 88.8492 18.7392C87.536 20.1249 86.8748 21.8094 86.8748 23.8019C86.8748 25.3415 87.3005 26.6547 88.1699 27.7415C89.0303 28.8283 90.0899 29.7431 91.3579 30.4948C92.6258 31.2465 94.3918 32.1159 96.656 33.1121C99.373 34.3348 101.583 35.4668 103.276 36.5084C104.979 37.5499 106.41 38.9446 107.587 40.6835C108.765 42.4314 109.353 44.5869 109.353 47.168C109.353 50.836 108.122 53.7522 105.649 55.9258C103.177 58.0994 99.7081 59.1862 95.225 59.1862C92.2816 59.1862 89.6462 58.7696 87.3096 57.9273L87.3277 57.9454Z" fill="white"/>
<path d="M116.028 73.804L116.707 72.7896C117.477 71.7481 118.021 70.6522 118.338 69.493C118.654 68.3428 118.808 66.7851 118.808 64.8379V34.8785C118.808 34.2898 118.718 33.837 118.537 33.52C118.356 33.203 118.011 32.9766 117.522 32.8408L114.334 32.0891V30.1872C114.968 29.5985 116.191 29.0279 118.002 28.4845C119.814 27.9411 121.399 27.6694 122.757 27.6694C123.799 27.6694 124.324 28.6204 124.324 30.5223V30.794C126.95 28.2581 129.912 26.9902 133.227 26.9902C135.717 26.9902 137.954 27.6241 139.947 28.8921C141.939 30.16 143.488 31.917 144.602 34.154C145.707 36.4 146.268 38.9631 146.268 41.8612C146.268 45.1216 145.68 48.074 144.502 50.7276C143.325 53.3722 141.704 55.4461 139.648 56.9405C137.583 58.4348 135.292 59.1775 132.756 59.1775C130.22 59.1775 128.273 58.6069 126.642 57.4748C126.235 57.2484 126.036 56.8861 126.036 56.388C126.036 55.9352 126.117 55.5639 126.271 55.265C126.425 54.9752 126.67 54.8212 126.987 54.8212C127.122 54.8212 127.566 54.9933 128.309 55.3284C129.052 55.6726 130.039 55.8356 131.261 55.8356C133.797 55.8356 135.844 54.6401 137.411 52.2401C138.978 49.8401 139.756 46.7608 139.756 43.0023C139.756 39.4702 138.978 36.5812 137.411 34.3442C135.844 32.0981 133.779 30.9842 131.198 30.9842C129.839 30.9842 128.617 31.1653 127.53 31.5276C126.443 31.8898 125.375 32.5057 124.342 33.357V67.8628C124.342 69.4477 124.514 70.5526 124.849 71.1866C125.193 71.8205 125.882 72.2462 126.923 72.4726L128.146 72.7443L127.602 74.5828H116.734L116.055 73.7677L116.028 73.804Z" fill="white"/>
<path d="M152.155 56.4152L153.306 56.071C154.392 55.8899 155.108 55.4733 155.443 54.8122C155.778 54.151 155.95 53.0371 155.95 51.4522V34.1993C155.95 33.7011 155.859 33.3479 155.678 33.1487C155.497 32.9494 155.18 32.8408 154.727 32.8408H152.083L151.476 31.2106C152.653 30.1238 154.012 29.2362 155.552 28.557C157.091 27.8777 158.45 27.5426 159.627 27.5426C160.216 27.5426 160.687 27.7238 161.049 28.086C161.411 28.4483 161.592 28.9011 161.592 29.4445V36.1646H161.936C162.661 33.4023 163.757 31.1834 165.233 29.5079C166.7 27.8324 168.303 26.9902 170.024 26.9902C171.745 26.9902 173.158 27.5426 174.272 28.6566C175.377 29.7706 175.938 31.2921 175.938 33.2393C175.938 34.7789 175.367 36.0649 174.235 37.1064C173.103 38.148 171.672 38.6732 169.952 38.6732C169.137 38.6732 168.729 38.4649 168.729 38.0574C168.729 37.9215 168.883 37.6046 169.2 37.1064C169.517 36.6083 169.789 36.1102 170.015 35.6121C170.241 35.114 170.359 34.5253 170.359 33.8461C170.359 33.0762 170.178 32.4785 169.816 32.0438C169.454 31.6181 168.974 31.4008 168.385 31.4008C167.434 31.4008 166.438 31.9894 165.396 33.1668C164.355 34.3442 163.458 36.2279 162.715 38.8C161.973 41.3812 161.592 44.6687 161.592 48.6537C161.592 50.5103 161.737 52.0137 162.036 53.1729C162.326 54.3322 162.842 55.4009 163.567 56.3971L164.318 57.348L163.567 58.299H152.771L152.164 56.3971L152.155 56.4152Z" fill="white"/>
<path d="M182.721 54.8212C180.004 51.8959 178.646 47.9744 178.646 43.0386C178.646 38.1027 180.004 34.1993 182.721 31.3193C185.438 28.4483 189.106 27.0083 193.725 27.0083C196.759 27.0083 199.404 27.6694 201.668 28.9736C203.932 30.2868 205.68 32.1434 206.903 34.5434C208.125 36.9434 208.732 39.7691 208.732 43.0386C208.732 46.308 208.107 49.1518 206.867 51.5971C205.617 54.0424 203.869 55.9262 201.605 57.2303C199.34 58.5435 196.714 59.1956 193.725 59.1956C189.106 59.1956 185.438 57.7375 182.721 54.8122V54.8212ZM199.875 52.376C201.478 50.0393 202.284 46.9782 202.284 43.1744C202.284 41.2272 202.012 39.271 201.469 37.2966C200.925 35.3314 200.029 33.6559 198.788 32.2702C197.538 30.8936 195.926 30.1962 193.934 30.1962C191.262 30.1962 189.125 31.3736 187.512 33.7283C185.9 36.0831 185.103 39.2076 185.103 43.1019C185.103 46.9963 185.864 50.0937 187.377 52.4031C188.889 54.7126 190.963 55.8718 193.589 55.8718C196.216 55.8718 198.263 54.7035 199.875 52.376Z" fill="white"/>
<path d="M220.288 56.5237C218.658 54.7395 217.843 52.2308 217.843 49.0157V33.6647C217.843 32.6685 217.435 32.1704 216.62 32.1704H213.831L213.36 30.676C214.401 29.5892 215.678 28.7107 217.2 28.0315C218.712 27.3522 220.107 27.0172 221.375 27.0172C221.964 27.0172 222.453 27.1892 222.833 27.5243C223.213 27.8685 223.413 28.3032 223.413 28.8466V47.5214C223.413 49.9667 223.911 51.8323 224.907 53.1274C225.903 54.4135 227.37 55.0656 229.327 55.0656C232.089 55.0656 234.235 53.8791 235.775 51.4973C237.315 49.1244 238.085 45.8278 238.085 41.6165C238.085 38.6278 237.912 36.2821 237.577 34.5885C237.242 32.8949 236.59 31.2285 235.639 29.5983L234.888 28.6473L235.639 27.7688L243.247 27.0172V52.901C243.247 54.169 243.79 54.8029 244.877 54.8029C245.964 54.8029 246.933 54.4407 247.938 53.7161L249.161 55.2829C248.165 56.4603 247.042 57.4112 245.801 58.1358C244.551 58.8603 243.392 59.2226 242.305 59.2226C240.675 59.2226 239.497 58.7335 238.773 57.7644C238.048 56.7954 237.686 55.2829 237.686 53.2452C236.69 55.1018 235.259 56.5599 233.402 57.6286C231.546 58.6882 229.463 59.2226 227.153 59.2226C224.21 59.2226 221.918 58.326 220.288 56.5418V56.5237Z" fill="white"/>
<path d="M257.783 57.6106C256.832 56.551 256.352 55.0838 256.352 53.2272V31.5637H250.99C250.99 30.4769 251.081 29.7615 251.262 29.4264C251.443 29.0822 251.851 28.8286 252.485 28.6475C254.658 28.1041 256.198 27.1984 257.103 25.9305C258.009 24.6626 258.688 22.9871 259.141 20.9041C259.232 20.2701 259.449 19.8716 259.784 19.7177C260.128 19.5637 260.88 19.4822 262.057 19.4822V27.769H270C270 28.6294 269.873 29.3992 269.629 30.0785C269.375 30.7577 269.049 31.2558 268.642 31.5728H262.057V51.4702C262.057 52.7382 262.23 53.6348 262.565 54.151C262.909 54.6763 263.507 54.9299 264.367 54.9299C265.59 54.9299 266.966 54.2778 268.515 52.9646L269.665 54.5948C268.624 55.9533 267.356 57.0672 265.861 57.9186C264.367 58.7789 262.981 59.2046 261.722 59.2046C260.047 59.2046 258.734 58.6703 257.783 57.6106Z" fill="white"/>
</svg>
