<svg width="25" height="24" viewBox="0 0 25 24" fill="none" xmlns="http://www.w3.org/2000/svg">
<path d="M12.4987 4.77433V20.2414M12.4987 4.77433L13.5072 4.39589C15.802 3.5347 18.362 3.5347 20.6569 4.39589C21.266 4.62445 21.6654 5.17788 21.6654 5.79332V18.4898C21.6654 19.3348 20.7556 19.9127 19.9193 19.5988C18.0979 18.9153 16.0661 18.9153 14.2448 19.5988L12.5113 20.2494C12.5052 20.2516 12.4987 20.2475 12.4987 20.2414M12.4987 4.77433L11.4902 4.39589C9.19538 3.5347 6.63535 3.5347 4.34049 4.39589C3.73142 4.62445 3.33203 5.17788 3.33203 5.79332V18.4898C3.33203 19.3348 4.2418 19.9127 5.07814 19.5988C6.89947 18.9153 8.93126 18.9153 10.7526 19.5988L12.4861 20.2494C12.4921 20.2516 12.4987 20.2475 12.4987 20.2414" stroke="#777B84" stroke-width="1.5"/>
</svg>
